<?xml version="1.0" standalone="no"?>
<!DOCTYPE svg PUBLIC "-//W3C//DTD SVG 20010904//EN"
 "http://www.w3.org/TR/2001/REC-SVG-20010904/DTD/svg10.dtd">
<svg version="1.0" xmlns="http://www.w3.org/2000/svg"
 width="677.000000pt" height="493.000000pt" viewBox="0 0 677.000000 493.000000"
 preserveAspectRatio="xMidYMid meet">
<metadata>
Created by potrace 1.14, written by Peter Selinger 2001-2017
</metadata>
<g transform="translate(0.000000,493.000000) scale(0.100000,-0.100000)"
fill="#000000" stroke="none">
<path d="M3298 4514 c-2 -11 -23 -22 -58 -31 -114 -29 -212 -109 -266 -217
-19 -40 -38 -92 -41 -116 -4 -30 -11 -44 -24 -47 -11 -3 -19 -14 -19 -24 0
-18 17 -19 485 -19 478 0 485 0 485 20 0 11 -6 20 -13 20 -8 0 -18 23 -25 58
-17 82 -53 149 -114 210 -51 51 -172 122 -209 122 -28 0 -49 11 -49 26 0 11
-17 14 -74 14 -61 0 -75 -3 -78 -16z"/>
<path d="M4627 4349 l-57 -89 60 -30 c33 -16 66 -30 75 -30 15 0 95 114 95
136 0 9 -49 53 -105 95 -6 5 -33 -28 -68 -82z"/>
<path d="M2114 4315 c-4 -9 -2 -26 4 -38 6 -12 18 -71 27 -132 9 -60 23 -135
30 -165 7 -30 16 -77 19 -105 l6 -50 -27 34 c-16 19 -44 53 -63 76 -19 22 -55
65 -80 94 -25 29 -66 75 -92 102 -25 27 -48 56 -50 66 -4 23 -36 29 -44 8 -5
-11 2 -24 18 -38 14 -12 45 -49 69 -82 24 -33 96 -123 160 -201 64 -77 123
-154 131 -170 8 -16 23 -78 32 -139 10 -60 22 -124 27 -141 5 -18 19 -78 29
-135 41 -223 45 -234 66 -234 16 0 19 6 16 45 -1 25 -6 54 -12 65 -5 11 -18
72 -29 135 -11 63 -27 147 -35 185 -8 39 -15 83 -16 98 0 27 3 25 52 -35 29
-34 57 -68 63 -74 5 -7 46 -56 90 -110 118 -144 150 -178 163 -170 7 4 12 13
12 21 0 8 -85 116 -188 242 -103 125 -198 242 -209 258 -14 19 -28 64 -37 120
-27 161 -76 375 -88 392 -5 6 -8 28 -6 49 2 30 -1 39 -15 42 -9 2 -20 -4 -23
-13z"/>
<path d="M4790 4261 c-22 -33 -40 -67 -40 -76 0 -8 26 -32 58 -52 31 -19 84
-53 117 -75 64 -41 107 -57 112 -42 2 6 19 34 38 63 19 29 35 58 35 65 0 12
-250 176 -269 176 -6 0 -28 -27 -51 -59z"/>
<path d="M5092 4060 l-33 -52 27 -39 27 -40 56 6 c102 12 104 15 73 98 -23 60
-28 65 -77 72 -39 6 -41 5 -73 -45z"/>
<path d="M4777 4077 c-2 -6 -120 -189 -261 -406 -141 -217 -256 -399 -256
-405 0 -18 13 -30 69 -66 40 -25 57 -31 69 -24 15 10 64 84 197 299 34 55 121
196 193 313 73 117 132 216 132 220 0 8 -117 82 -130 82 -4 0 -10 -6 -13 -13z"/>
<path d="M2890 4004 c0 -33 2 -35 28 -30 202 39 720 39 915 0 25 -5 27 -4 27
30 l0 36 -485 0 -485 0 0 -36z"/>
<path d="M2765 4015 c-5 -2 -53 -15 -105 -30 -129 -35 -320 -107 -320 -120 1
-35 17 -34 117 5 56 22 159 56 229 75 70 19 129 37 131 39 2 2 1 11 -3 20 -6
15 -25 19 -49 11z"/>
<path d="M3950 4002 c0 -14 26 -25 132 -55 73 -20 194 -62 270 -93 135 -53
162 -58 156 -27 -5 24 -220 110 -407 163 -123 35 -151 37 -151 12z"/>
<path d="M3021 3964 c-68 -7 -126 -16 -129 -18 -2 -3 11 -15 31 -26 45 -27 54
-57 22 -82 -30 -23 -48 -77 -39 -114 10 -42 42 -83 69 -90 19 -5 25 -16 35
-66 16 -83 50 -157 96 -207 54 -60 87 -75 41 -19 -46 56 -84 138 -105 227 -14
62 -19 71 -43 76 -71 16 -100 115 -50 169 30 31 38 32 67 5 l23 -21 7 37 c6
36 7 37 43 31 180 -30 407 -31 556 -2 39 8 71 13 73 11 2 -2 7 -25 11 -52 6
-39 8 -44 15 -25 12 36 42 46 66 22 54 -54 24 -159 -51 -175 -20 -5 -29 -11
-25 -21 7 -18 -29 -134 -60 -196 -13 -26 -39 -64 -56 -84 -27 -30 -29 -35 -10
-25 55 29 149 184 160 263 3 28 13 44 38 63 43 33 61 88 45 138 -7 19 -19 41
-27 47 -7 7 -14 27 -14 45 0 24 6 35 25 45 24 13 34 30 18 30 -5 0 -64 7 -133
15 -155 18 -526 18 -699 -1z"/>
<path d="M2730 3864 c-89 -24 -234 -74 -308 -105 -38 -17 -42 -21 -32 -39 10
-19 11 -19 63 1 94 38 220 80 312 103 76 19 90 26 93 44 4 28 -15 28 -128 -4z"/>
<path d="M3922 3868 c2 -17 14 -25 58 -35 98 -24 303 -94 379 -129 76 -35 91
-36 91 -4 0 14 -28 29 -128 69 -122 48 -356 121 -388 121 -10 0 -14 -8 -12
-22z"/>
<path d="M1926 3646 c-109 -73 -232 -168 -315 -243 -22 -20 -23 -23 -8 -38 15
-15 24 -10 109 62 103 87 201 159 296 218 35 21 65 42 67 46 7 10 -5 39 -15
39 -4 0 -65 -38 -134 -84z"/>
<path d="M4805 3643 c-4 -13 1 -23 17 -33 133 -87 366 -286 464 -398 37 -42
73 -83 79 -90 14 -16 45 -5 45 15 0 29 -310 326 -445 426 -71 54 -135 97 -141
97 -7 0 -15 -8 -19 -17z"/>
<path d="M2037 3556 c-93 -59 -285 -206 -330 -253 -24 -26 -26 -31 -13 -42 13
-11 20 -9 44 11 143 117 249 197 323 244 78 49 87 59 78 75 -5 11 -11 19 -13
19 -2 0 -42 -24 -89 -54z"/>
<path d="M4726 3533 c-8 -19 -19 -9 129 -118 75 -55 175 -143 267 -235 138
-138 148 -146 163 -130 15 17 7 27 -112 147 -70 71 -162 156 -203 189 -85 68
-219 164 -230 164 -5 0 -11 -8 -14 -17z"/>
<path d="M3405 3530 c-3 -5 -20 -6 -39 -3 -35 5 -74 -11 -156 -66 l-45 -31 42
0 c64 0 138 19 162 41 21 20 21 20 42 0 23 -22 98 -41 157 -41 l37 0 -25 21
c-67 53 -164 97 -175 79z"/>
<path d="M1156 3441 c-24 -25 -26 -32 -15 -43 17 -16 345 -313 377 -342 l22
-19 25 23 c33 31 32 42 -12 81 -37 32 -179 161 -296 269 -32 30 -62 56 -66 58
-4 1 -20 -11 -35 -27z"/>
<path d="M5651 3345 c-22 -20 -41 -45 -41 -54 0 -10 32 -59 72 -110 64 -83 74
-92 97 -86 73 18 114 76 108 153 -3 45 -9 59 -39 89 -30 30 -43 35 -95 40 -59
5 -61 5 -102 -32z"/>
<path d="M5560 3198 c-14 -13 -119 -104 -235 -202 -115 -99 -214 -183 -219
-187 -8 -7 31 -69 45 -69 3 0 87 53 185 118 99 65 218 142 266 172 48 30 87
57 87 60 1 8 -88 125 -97 128 -4 1 -18 -8 -32 -20z"/>
<path d="M1676 3100 c-96 -108 -98 -112 -80 -129 141 -132 273 -250 291 -259
12 -7 39 -12 60 -12 35 0 45 7 114 80 61 64 80 92 94 136 35 110 -10 215 -115
270 -26 14 -64 19 -150 22 l-115 4 -99 -112z m306 40 c74 -21 138 -127 124
-209 -8 -52 -49 -106 -98 -130 -87 -41 -184 -17 -234 59 -98 148 36 327 208
280z"/>
<path d="M1879 3101 c-68 -37 -89 -127 -44 -193 46 -68 145 -76 203 -17 105
108 -27 281 -159 210z"/>
<path d="M3101 3175 c-30 -7 -60 -11 -67 -8 -17 6 -174 -28 -174 -38 0 -4 -37
-19 -82 -34 -104 -34 -134 -51 -214 -122 -47 -42 -64 -63 -64 -82 0 -18 -62
-110 -190 -286 -104 -143 -186 -263 -181 -268 4 -4 97 -68 207 -141 l199 -133
80 74 80 74 6 -28 c88 -415 91 -435 86 -548 -5 -120 -24 -218 -41 -212 -6 2
-12 12 -14 23 -7 40 -9 42 -52 34 l-41 -7 -39 71 c-21 39 -43 78 -48 86 -8 12
-16 10 -51 -13 -24 -16 -44 -27 -45 -25 -1 2 -28 40 -59 84 -58 84 -157 252
-157 266 0 4 43 40 95 79 l96 71 -88 57 c-248 162 -254 165 -268 150 -8 -8
-75 -90 -149 -184 -92 -116 -135 -178 -136 -195 0 -64 90 -219 172 -296 54
-51 190 -155 289 -222 l77 -51 6 -74 7 -73 47 -13 c26 -6 64 -16 85 -22 20 -5
37 -16 37 -24 0 -7 13 -16 29 -20 21 -4 52 -32 103 -92 40 -47 83 -89 96 -94
44 -17 145 -10 172 11 14 11 33 20 43 20 11 0 32 14 48 31 24 26 33 29 61 24
31 -6 35 -4 50 27 15 32 14 35 -3 57 -11 13 -19 31 -19 40 0 9 -23 44 -51 78
-44 54 -67 71 -161 120 -77 40 -107 61 -103 71 3 7 14 64 25 125 17 94 20 154
20 414 0 203 -3 303 -10 303 -6 0 -28 -9 -50 -20 -55 -28 -59 -25 -21 14 l32
33 -53 9 -53 8 58 6 c31 3 57 10 57 15 0 6 -10 21 -22 35 -12 14 -46 54 -77
90 -63 74 -39 58 67 -44 l72 -70 0 142 0 142 30 0 30 0 2 252 3 252 60 13 c33
7 63 12 68 13 4 0 7 -119 7 -265 l0 -265 375 0 375 0 0 265 c0 146 3 265 8
265 4 -1 34 -6 67 -13 l60 -13 3 -252 2 -252 25 0 25 0 0 -115 c0 -63 2 -115
5 -115 5 0 154 69 210 97 39 20 29 11 -80 -77 -49 -40 -94 -76 -99 -81 -5 -4
13 -1 40 7 68 20 77 12 15 -14 l-53 -22 36 -37 c40 -43 40 -51 -1 -30 -15 8
-38 18 -50 21 l-23 7 0 -319 c0 -283 2 -332 21 -423 11 -57 22 -106 25 -110 2
-4 -45 -32 -105 -63 -97 -50 -115 -63 -160 -121 -28 -35 -51 -73 -51 -83 0
-11 -9 -27 -19 -36 -19 -17 -19 -20 -3 -53 15 -32 19 -34 50 -28 28 5 37 2 61
-24 16 -17 37 -31 48 -31 10 0 29 -9 43 -20 27 -21 128 -28 172 -11 13 5 57
47 97 94 50 59 83 88 102 92 16 4 29 13 29 20 0 8 17 19 38 24 20 6 58 16 83
22 45 12 47 14 53 57 3 25 6 58 6 74 0 24 9 34 58 65 103 66 299 221 350 279
59 65 121 183 128 240 5 38 1 43 -126 194 -72 85 -139 163 -149 173 -18 18
-24 16 -190 -81 l-171 -99 95 -72 c52 -39 95 -75 95 -79 0 -19 -158 -276 -216
-350 -1 -2 -21 9 -45 25 -35 23 -43 25 -51 13 -5 -8 -27 -47 -48 -86 l-39 -71
-41 7 c-43 8 -45 6 -52 -34 -6 -36 -25 -27 -37 16 -7 24 -15 102 -18 174 -5
125 -4 139 36 335 23 112 45 212 49 222 6 14 20 5 88 -57 l81 -75 94 58 c52
32 148 91 214 131 66 41 121 75 123 76 2 1 -87 123 -197 271 -138 184 -200
276 -201 294 0 20 -18 42 -72 89 -73 63 -108 82 -208 115 -30 9 -60 23 -66 30
-11 15 -140 44 -194 44 -19 0 -59 5 -89 10 -29 6 -57 11 -60 11 -4 0 -47 -36
-96 -80 -50 -44 -98 -80 -108 -80 -10 0 -39 20 -65 44 -81 76 -133 116 -150
115 -10 0 -41 -7 -71 -14z m-825 -1005 c60 -40 110 -75 111 -78 1 -4 -28 -29
-65 -57 -37 -27 -77 -58 -89 -69 l-23 -19 32 -56 c17 -31 68 -113 114 -184
l84 -127 -61 -38 -61 -37 4 -62 c2 -35 2 -63 0 -63 -25 0 -319 225 -383 294
-44 47 -129 205 -129 241 0 16 47 83 141 199 l140 175 38 -23 c21 -14 87 -57
147 -96z m2551 -62 c70 -84 131 -156 136 -159 31 -22 -46 -194 -125 -280 -53
-58 -355 -289 -378 -289 -4 0 -6 28 -3 63 l5 62 -61 37 -61 38 84 127 c46 71
97 153 114 184 l32 56 -23 19 c-12 11 -52 42 -89 69 -37 28 -68 52 -68 55 0 7
283 169 297 169 7 1 70 -68 140 -151z"/>
<path d="M1283 3043 c-58 -77 -193 -283 -193 -295 0 -4 8 -12 18 -17 15 -8 26
4 74 82 31 51 86 132 123 180 53 71 64 91 54 103 -6 8 -15 14 -18 14 -4 0 -30
-30 -58 -67z"/>
<path d="M1378 2941 c-31 -42 -82 -116 -113 -166 -49 -78 -54 -90 -38 -96 20
-7 43 -1 43 11 0 11 129 205 169 254 36 45 37 52 14 64 -15 8 -28 -4 -75 -67z"/>
<path d="M5555 2917 c-17 -13 -13 -21 48 -125 36 -61 80 -138 97 -171 27 -55
51 -74 64 -53 7 11 -73 172 -136 274 -50 80 -56 87 -73 75z"/>
<path d="M317 2884 c-19 -19 0 -48 73 -114 61 -55 84 -70 92 -62 21 21 56 13
165 -39 60 -28 149 -69 198 -91 169 -76 255 -122 260 -139 3 -9 110 -117 237
-240 127 -123 243 -237 258 -253 30 -31 50 -28 50 7 0 13 -25 97 -55 187 l-55
164 20 21 c11 12 82 50 158 85 75 35 147 70 160 78 23 15 29 37 13 47 -9 5
-190 13 -666 29 l-120 4 -275 109 c-251 100 -276 112 -290 140 -14 29 -21 32
-102 47 -48 9 -93 19 -100 21 -8 3 -17 2 -21 -1z"/>
<path d="M5430 2845 c-10 -12 -1 -33 54 -118 36 -57 77 -129 91 -160 26 -59
30 -63 55 -47 12 7 8 21 -26 87 -45 89 -146 253 -155 253 -4 0 -12 -7 -19 -15z"/>
<path d="M6047 2659 c-26 -11 -59 -30 -72 -43 -32 -32 -66 -101 -68 -139 -2
-46 13 -127 24 -127 5 0 9 -5 9 -10 0 -15 55 -67 88 -83 97 -50 233 -13 278
75 l16 31 -89 -7 -89 -6 -27 41 c-15 22 -27 47 -27 55 0 26 40 94 55 95 8 1
24 3 35 4 11 1 43 3 70 4 70 1 76 22 21 73 -24 21 -46 38 -49 39 -4 0 -16 3
-27 5 -52 13 -104 10 -148 -7z"/>
<path d="M5640 2394 c-255 -88 -260 -90 -260 -121 0 -53 25 -116 53 -133 33
-20 13 -26 309 76 l197 67 -23 31 c-28 37 -46 88 -46 127 0 16 -3 29 -7 28 -5
0 -105 -34 -223 -75z"/>
<path d="M2970 2305 l0 -125 420 0 420 0 0 125 0 125 -420 0 -420 0 0 -125z
m800 0 l0 -85 -380 0 -380 0 0 85 0 85 380 0 380 0 0 -85z"/>
<path d="M897 2348 c-63 -169 -109 -352 -136 -543 -26 -178 -27 -175 4 -175
21 0 25 5 25 31 0 112 62 407 124 591 34 102 40 128 28 133 -25 9 -29 6 -45
-37z"/>
<path d="M1025 2297 c-50 -119 -114 -384 -135 -557 -13 -113 -14 -112 12 -108
20 3 23 12 35 103 20 164 57 327 112 492 28 81 28 84 10 94 -17 9 -22 5 -34
-24z"/>
<path d="M3000 2005 c0 -152 1 -156 25 -180 l24 -25 340 0 340 0 28 24 28 24
3 156 3 156 -395 0 -396 0 0 -155z m750 -9 c0 -142 -4 -151 -73 -161 -23 -4
-168 -5 -323 -3 -220 2 -285 6 -297 17 -14 11 -17 35 -17 142 l0 129 355 0
355 0 0 -124z"/>
<path d="M5910 2154 c-14 -4 -12 -19 11 -112 37 -148 57 -273 71 -440 10 -114
15 -142 26 -137 7 3 18 5 24 5 6 0 8 21 4 58 -3 31 -8 86 -11 122 -17 188 -83
512 -103 509 -4 -1 -14 -3 -22 -5z"/>
<path d="M5768 2115 c-3 -3 5 -47 18 -98 34 -134 63 -312 70 -437 7 -108 7
-110 31 -110 l25 0 -7 88 c-11 166 -39 342 -76 479 -10 40 -19 75 -19 78 0 7
-35 7 -42 0z"/>
<path d="M679 1575 c-75 -15 -115 -33 -144 -65 -17 -19 -20 -39 -23 -165 -5
-168 0 -181 81 -215 93 -40 192 -51 432 -48 l220 3 0 120 -1 120 -29 3 c-17 2
-100 -1 -185 -7 -169 -13 -317 -3 -403 25 -49 16 -107 58 -107 76 0 6 8 3 19
-6 76 -69 376 -92 521 -41 29 10 46 12 48 5 2 -5 17 -10 34 -10 l30 0 -4 60
c-6 90 -38 117 -170 144 -91 19 -227 19 -319 1z m281 -46 c78 -12 150 -42 150
-62 0 -8 -24 -25 -52 -38 -49 -22 -66 -24 -218 -24 -152 0 -169 2 -217 24 -29
13 -53 30 -53 38 0 8 20 23 44 33 82 37 225 49 346 29z"/>
<path d="M6142 1548 c-7 -7 -12 -21 -12 -33 0 -11 -10 -24 -22 -30 -24 -11
-34 -49 -24 -91 6 -22 11 -24 70 -24 78 0 99 15 94 69 -2 26 -9 39 -25 46 -14
6 -23 19 -23 32 0 12 -9 27 -19 33 -24 13 -24 13 -39 -2z"/>
<path d="M5920 1290 l0 -110 35 0 35 0 0 110 0 110 -35 0 -35 0 0 -110z"/>
<path d="M6130 1165 c0 -158 2 -187 15 -192 9 -3 25 3 35 12 18 17 20 32 20
192 l0 173 -35 0 -35 0 0 -185z"/>
<path d="M5664 1307 c-3 -8 -4 -34 -2 -58 l3 -44 75 0 75 0 0 55 0 55 -73 3
c-55 2 -74 0 -78 -11z"/>
<path d="M3020 1288 c0 -2 20 -30 45 -63 25 -33 45 -66 45 -73 0 -8 9 -25 20
-39 12 -15 18 -34 15 -44 -5 -15 1 -18 32 -21 31 -2 39 -7 41 -25 3 -23 5 -23
168 -23 l164 0 0 25 c0 22 5 25 33 25 34 0 52 9 53 25 1 24 50 114 86 159 21
27 37 50 36 52 -2 1 -37 -5 -78 -14 -54 -11 -137 -16 -295 -16 -206 -1 -246 3
-347 31 -10 2 -18 3 -18 1z m510 -178 l0 -90 -145 0 -145 0 0 90 0 90 145 0
145 0 0 -90z"/>
<path d="M3288 1114 c-1 -31 -1 -58 1 -60 2 -2 49 -4 103 -4 l98 0 0 60 0 60
-99 0 -99 0 -4 -56z"/>
<path d="M5877 1143 c-4 -3 -7 -28 -7 -55 0 -45 2 -48 25 -48 21 0 25 -5 25
-30 0 -18 6 -33 15 -37 19 -7 55 24 55 47 0 10 9 20 20 23 17 4 20 14 20 56
l0 51 -73 0 c-41 0 -77 -3 -80 -7z"/>
</g>
</svg>
