<?xml version="1.0" encoding="UTF-8" standalone="no"?>
<svg
   xmlns:dc="http://purl.org/dc/elements/1.1/"
   xmlns:cc="http://creativecommons.org/ns#"
   xmlns:rdf="http://www.w3.org/1999/02/22-rdf-syntax-ns#"
   xmlns:svg="http://www.w3.org/2000/svg"
   xmlns="http://www.w3.org/2000/svg"
   xmlns:sodipodi="http://sodipodi.sourceforge.net/DTD/sodipodi-0.dtd"
   xmlns:inkscape="http://www.inkscape.org/namespaces/inkscape"
   version="1.0"
   width="601.18927pt"
   height="360.05334pt"
   viewBox="0 0 601.18927 360.05334"
   preserveAspectRatio="xMidYMid meet"
   id="svg200"
   sodipodi:docname="Logo_2-red.svg"
   inkscape:version="0.92.2 (5c3e80d, 2017-08-06)">
  <defs
     id="defs204" />
  <sodipodi:namedview
     pagecolor="#ffffff"
     bordercolor="#666666"
     borderopacity="1"
     objecttolerance="10"
     gridtolerance="10"
     guidetolerance="10"
     inkscape:pageopacity="0"
     inkscape:pageshadow="2"
     inkscape:window-width="1858"
     inkscape:window-height="1058"
     id="namedview202"
     showgrid="false"
     inkscape:zoom="0.95631532"
     inkscape:cx="727.49902"
     inkscape:cy="106.04074"
     inkscape:window-x="-8"
     inkscape:window-y="92"
     inkscape:window-maximized="1"
     inkscape:current-layer="svg200" />
  <metadata
     id="metadata108">
Created by potrace 1.14, written by Peter Selinger 2001-2017
<rdf:RDF>
  <cc:Work
     rdf:about="">
    <dc:format>image/svg+xml</dc:format>
    <dc:type
       rdf:resource="http://purl.org/dc/dcmitype/StillImage" />
    <dc:title></dc:title>
  </cc:Work>
</rdf:RDF>
</metadata>
  <g
     transform="matrix(0.1,0,0,-0.1,-31.010712,453)"
     id="g198"
     style="opacity:1;vector-effect:none;fill:#000000;fill-opacity:1;stroke:none;stroke-width:1;stroke-linecap:butt;stroke-linejoin:miter;stroke-miterlimit:4;stroke-dasharray:none;stroke-dashoffset:0;stroke-opacity:1">
    <path
       d="m 3298,4514 c -2,-11 -23,-22 -58,-31 -114,-29 -212,-109 -266,-217 -19,-40 -38,-92 -41,-116 -4,-30 -11,-44 -24,-47 -11,-3 -19,-14 -19,-24 0,-18 17,-19 485,-19 478,0 485,0 485,20 0,11 -6,20 -13,20 -8,0 -18,23 -25,58 -17,82 -53,149 -114,210 -51,51 -172,122 -209,122 -28,0 -49,11 -49,26 0,11 -17,14 -74,14 -61,0 -75,-3 -78,-16 z"
       id="path110"
       style="vector-effect:none;fill:#000000;fill-opacity:1;stroke:none;stroke-width:1;stroke-linecap:butt;stroke-linejoin:miter;stroke-miterlimit:4;stroke-dasharray:none;stroke-dashoffset:0;stroke-opacity:1"
       inkscape:connector-curvature="0" />
    <path
       d="m 4627,4349 -57,-89 60,-30 c 33,-16 66,-30 75,-30 15,0 95,114 95,136 0,9 -49,53 -105,95 -6,5 -33,-28 -68,-82 z"
       id="path112"
       style="vector-effect:none;fill:#000000;fill-opacity:1;stroke:none;stroke-width:1;stroke-linecap:butt;stroke-linejoin:miter;stroke-miterlimit:4;stroke-dasharray:none;stroke-dashoffset:0;stroke-opacity:1"
       inkscape:connector-curvature="0" />
    <path
       d="m 2114,4315 c -4,-9 -2,-26 4,-38 6,-12 18,-71 27,-132 9,-60 23,-135 30,-165 7,-30 16,-77 19,-105 l 6,-50 -27,34 c -16,19 -44,53 -63,76 -19,22 -55,65 -80,94 -25,29 -66,75 -92,102 -25,27 -48,56 -50,66 -4,23 -36,29 -44,8 -5,-11 2,-24 18,-38 14,-12 45,-49 69,-82 24,-33 96,-123 160,-201 64,-77 123,-154 131,-170 8,-16 23,-78 32,-139 10,-60 22,-124 27,-141 5,-18 19,-78 29,-135 41,-223 45,-234 66,-234 16,0 19,6 16,45 -1,25 -6,54 -12,65 -5,11 -18,72 -29,135 -11,63 -27,147 -35,185 -8,39 -15,83 -16,98 0,27 3,25 52,-35 29,-34 57,-68 63,-74 5,-7 46,-56 90,-110 118,-144 150,-178 163,-170 7,4 12,13 12,21 0,8 -85,116 -188,242 -103,125 -198,242 -209,258 -14,19 -28,64 -37,120 -27,161 -76,375 -88,392 -5,6 -8,28 -6,49 2,30 -1,39 -15,42 -9,2 -20,-4 -23,-13 z"
       id="path114"
       style="vector-effect:none;fill:#000000;fill-opacity:1;stroke:none;stroke-width:1;stroke-linecap:butt;stroke-linejoin:miter;stroke-miterlimit:4;stroke-dasharray:none;stroke-dashoffset:0;stroke-opacity:1"
       inkscape:connector-curvature="0" />
    <path
       d="m 4790,4261 c -22,-33 -40,-67 -40,-76 0,-8 26,-32 58,-52 31,-19 84,-53 117,-75 64,-41 107,-57 112,-42 2,6 19,34 38,63 19,29 35,58 35,65 0,12 -250,176 -269,176 -6,0 -28,-27 -51,-59 z"
       id="path116"
       style="vector-effect:none;fill:#000000;fill-opacity:1;stroke:none;stroke-width:1;stroke-linecap:butt;stroke-linejoin:miter;stroke-miterlimit:4;stroke-dasharray:none;stroke-dashoffset:0;stroke-opacity:1"
       inkscape:connector-curvature="0" />
    <path
       d="m 5092,4060 -33,-52 27,-39 27,-40 56,6 c 102,12 104,15 73,98 -23,60 -28,65 -77,72 -39,6 -41,5 -73,-45 z"
       id="path118"
       style="vector-effect:none;fill:#000000;fill-opacity:1;stroke:none;stroke-width:1;stroke-linecap:butt;stroke-linejoin:miter;stroke-miterlimit:4;stroke-dasharray:none;stroke-dashoffset:0;stroke-opacity:1"
       inkscape:connector-curvature="0" />
    <path
       d="m 4777,4077 c -2,-6 -120,-189 -261,-406 -141,-217 -256,-399 -256,-405 0,-18 13,-30 69,-66 40,-25 57,-31 69,-24 15,10 64,84 197,299 34,55 121,196 193,313 73,117 132,216 132,220 0,8 -117,82 -130,82 -4,0 -10,-6 -13,-13 z"
       id="path120"
       style="vector-effect:none;fill:#000000;fill-opacity:1;stroke:none;stroke-width:1;stroke-linecap:butt;stroke-linejoin:miter;stroke-miterlimit:4;stroke-dasharray:none;stroke-dashoffset:0;stroke-opacity:1"
       inkscape:connector-curvature="0" />
    <path
       d="m 2890,4004 c 0,-33 2,-35 28,-30 202,39 720,39 915,0 25,-5 27,-4 27,30 v 36 h -485 -485 z"
       id="path122"
       style="vector-effect:none;fill:#000000;fill-opacity:1;stroke:none;stroke-width:1;stroke-linecap:butt;stroke-linejoin:miter;stroke-miterlimit:4;stroke-dasharray:none;stroke-dashoffset:0;stroke-opacity:1"
       inkscape:connector-curvature="0" />
    <path
       d="m 2765,4015 c -5,-2 -53,-15 -105,-30 -129,-35 -320,-107 -320,-120 1,-35 17,-34 117,5 56,22 159,56 229,75 70,19 129,37 131,39 2,2 1,11 -3,20 -6,15 -25,19 -49,11 z"
       id="path124"
       style="vector-effect:none;fill:#000000;fill-opacity:1;stroke:none;stroke-width:1;stroke-linecap:butt;stroke-linejoin:miter;stroke-miterlimit:4;stroke-dasharray:none;stroke-dashoffset:0;stroke-opacity:1"
       inkscape:connector-curvature="0" />
    <path
       d="m 3950,4002 c 0,-14 26,-25 132,-55 73,-20 194,-62 270,-93 135,-53 162,-58 156,-27 -5,24 -220,110 -407,163 -123,35 -151,37 -151,12 z"
       id="path126"
       style="vector-effect:none;fill:#000000;fill-opacity:1;stroke:none;stroke-width:1;stroke-linecap:butt;stroke-linejoin:miter;stroke-miterlimit:4;stroke-dasharray:none;stroke-dashoffset:0;stroke-opacity:1"
       inkscape:connector-curvature="0" />
    <path
       d="m 3021,3964 c -68,-7 -126,-16 -129,-18 -2,-3 11,-15 31,-26 45,-27 54,-57 22,-82 -30,-23 -48,-77 -39,-114 10,-42 42,-83 69,-90 19,-5 25,-16 35,-66 16,-83 50,-157 96,-207 54,-60 87,-75 41,-19 -46,56 -84,138 -105,227 -14,62 -19,71 -43,76 -71,16 -100,115 -50,169 30,31 38,32 67,5 l 23,-21 7,37 c 6,36 7,37 43,31 180,-30 407,-31 556,-2 39,8 71,13 73,11 2,-2 7,-25 11,-52 6,-39 8,-44 15,-25 12,36 42,46 66,22 54,-54 24,-159 -51,-175 -20,-5 -29,-11 -25,-21 7,-18 -29,-134 -60,-196 -13,-26 -39,-64 -56,-84 -27,-30 -29,-35 -10,-25 55,29 149,184 160,263 3,28 13,44 38,63 43,33 61,88 45,138 -7,19 -19,41 -27,47 -7,7 -14,27 -14,45 0,24 6,35 25,45 24,13 34,30 18,30 -5,0 -64,7 -133,15 -155,18 -526,18 -699,-1 z"
       id="path128"
       style="vector-effect:none;fill:#000000;fill-opacity:1;stroke:none;stroke-width:1;stroke-linecap:butt;stroke-linejoin:miter;stroke-miterlimit:4;stroke-dasharray:none;stroke-dashoffset:0;stroke-opacity:1"
       inkscape:connector-curvature="0" />
    <path
       d="m 2730,3864 c -89,-24 -234,-74 -308,-105 -38,-17 -42,-21 -32,-39 10,-19 11,-19 63,1 94,38 220,80 312,103 76,19 90,26 93,44 4,28 -15,28 -128,-4 z"
       id="path130"
       style="vector-effect:none;fill:#000000;fill-opacity:1;stroke:none;stroke-width:1;stroke-linecap:butt;stroke-linejoin:miter;stroke-miterlimit:4;stroke-dasharray:none;stroke-dashoffset:0;stroke-opacity:1"
       inkscape:connector-curvature="0" />
    <path
       d="m 3922,3868 c 2,-17 14,-25 58,-35 98,-24 303,-94 379,-129 76,-35 91,-36 91,-4 0,14 -28,29 -128,69 -122,48 -356,121 -388,121 -10,0 -14,-8 -12,-22 z"
       id="path132"
       style="vector-effect:none;fill:#000000;fill-opacity:1;stroke:none;stroke-width:1;stroke-linecap:butt;stroke-linejoin:miter;stroke-miterlimit:4;stroke-dasharray:none;stroke-dashoffset:0;stroke-opacity:1"
       inkscape:connector-curvature="0" />
    <path
       d="m 1926,3646 c -109,-73 -232,-168 -315,-243 -22,-20 -23,-23 -8,-38 15,-15 24,-10 109,62 103,87 201,159 296,218 35,21 65,42 67,46 7,10 -5,39 -15,39 -4,0 -65,-38 -134,-84 z"
       id="path134"
       style="vector-effect:none;fill:#000000;fill-opacity:1;stroke:none;stroke-width:1;stroke-linecap:butt;stroke-linejoin:miter;stroke-miterlimit:4;stroke-dasharray:none;stroke-dashoffset:0;stroke-opacity:1"
       inkscape:connector-curvature="0" />
    <path
       d="m 4805,3643 c -4,-13 1,-23 17,-33 133,-87 366,-286 464,-398 37,-42 73,-83 79,-90 14,-16 45,-5 45,15 0,29 -310,326 -445,426 -71,54 -135,97 -141,97 -7,0 -15,-8 -19,-17 z"
       id="path136"
       style="vector-effect:none;fill:#000000;fill-opacity:1;stroke:none;stroke-width:1;stroke-linecap:butt;stroke-linejoin:miter;stroke-miterlimit:4;stroke-dasharray:none;stroke-dashoffset:0;stroke-opacity:1"
       inkscape:connector-curvature="0" />
    <path
       d="m 2037,3556 c -93,-59 -285,-206 -330,-253 -24,-26 -26,-31 -13,-42 13,-11 20,-9 44,11 143,117 249,197 323,244 78,49 87,59 78,75 -5,11 -11,19 -13,19 -2,0 -42,-24 -89,-54 z"
       id="path138"
       style="vector-effect:none;fill:#000000;fill-opacity:1;stroke:none;stroke-width:1;stroke-linecap:butt;stroke-linejoin:miter;stroke-miterlimit:4;stroke-dasharray:none;stroke-dashoffset:0;stroke-opacity:1"
       inkscape:connector-curvature="0" />
    <path
       d="m 4726,3533 c -8,-19 -19,-9 129,-118 75,-55 175,-143 267,-235 138,-138 148,-146 163,-130 15,17 7,27 -112,147 -70,71 -162,156 -203,189 -85,68 -219,164 -230,164 -5,0 -11,-8 -14,-17 z"
       id="path140"
       style="vector-effect:none;fill:#000000;fill-opacity:1;stroke:none;stroke-width:1;stroke-linecap:butt;stroke-linejoin:miter;stroke-miterlimit:4;stroke-dasharray:none;stroke-dashoffset:0;stroke-opacity:1"
       inkscape:connector-curvature="0" />
    <path
       d="m 3405,3530 c -3,-5 -20,-6 -39,-3 -35,5 -74,-11 -156,-66 l -45,-31 h 42 c 64,0 138,19 162,41 21,20 21,20 42,0 23,-22 98,-41 157,-41 h 37 l -25,21 c -67,53 -164,97 -175,79 z"
       id="path142"
       style="vector-effect:none;fill:#000000;fill-opacity:1;stroke:none;stroke-width:1;stroke-linecap:butt;stroke-linejoin:miter;stroke-miterlimit:4;stroke-dasharray:none;stroke-dashoffset:0;stroke-opacity:1"
       inkscape:connector-curvature="0" />
    <path
       d="m 1156,3441 c -24,-25 -26,-32 -15,-43 17,-16 345,-313 377,-342 l 22,-19 25,23 c 33,31 32,42 -12,81 -37,32 -179,161 -296,269 -32,30 -62,56 -66,58 -4,1 -20,-11 -35,-27 z"
       id="path144"
       style="vector-effect:none;fill:#000000;fill-opacity:1;stroke:none;stroke-width:1;stroke-linecap:butt;stroke-linejoin:miter;stroke-miterlimit:4;stroke-dasharray:none;stroke-dashoffset:0;stroke-opacity:1"
       inkscape:connector-curvature="0" />
    <path
       d="m 5651,3345 c -22,-20 -41,-45 -41,-54 0,-10 32,-59 72,-110 64,-83 74,-92 97,-86 73,18 114,76 108,153 -3,45 -9,59 -39,89 -30,30 -43,35 -95,40 -59,5 -61,5 -102,-32 z"
       id="path146"
       style="vector-effect:none;fill:#000000;fill-opacity:1;stroke:none;stroke-width:1;stroke-linecap:butt;stroke-linejoin:miter;stroke-miterlimit:4;stroke-dasharray:none;stroke-dashoffset:0;stroke-opacity:1"
       inkscape:connector-curvature="0" />
    <path
       d="m 5560,3198 c -14,-13 -119,-104 -235,-202 -115,-99 -214,-183 -219,-187 -8,-7 31,-69 45,-69 3,0 87,53 185,118 99,65 218,142 266,172 48,30 87,57 87,60 1,8 -88,125 -97,128 -4,1 -18,-8 -32,-20 z"
       id="path148"
       style="vector-effect:none;fill:#000000;fill-opacity:1;stroke:none;stroke-width:1;stroke-linecap:butt;stroke-linejoin:miter;stroke-miterlimit:4;stroke-dasharray:none;stroke-dashoffset:0;stroke-opacity:1"
       inkscape:connector-curvature="0" />
    <path
       d="m 1676,3100 c -96,-108 -98,-112 -80,-129 141,-132 273,-250 291,-259 12,-7 39,-12 60,-12 35,0 45,7 114,80 61,64 80,92 94,136 35,110 -10,215 -115,270 -26,14 -64,19 -150,22 l -115,4 z m 306,40 c 74,-21 138,-127 124,-209 -8,-52 -49,-106 -98,-130 -87,-41 -184,-17 -234,59 -98,148 36,327 208,280 z"
       id="path150"
       style="vector-effect:none;fill:#000000;fill-opacity:1;stroke:none;stroke-width:1;stroke-linecap:butt;stroke-linejoin:miter;stroke-miterlimit:4;stroke-dasharray:none;stroke-dashoffset:0;stroke-opacity:1"
       inkscape:connector-curvature="0" />
    <path
       d="m 1879,3101 c -68,-37 -89,-127 -44,-193 46,-68 145,-76 203,-17 105,108 -27,281 -159,210 z"
       id="path152"
       style="vector-effect:none;fill:#000000;fill-opacity:1;stroke:none;stroke-width:1;stroke-linecap:butt;stroke-linejoin:miter;stroke-miterlimit:4;stroke-dasharray:none;stroke-dashoffset:0;stroke-opacity:1"
       inkscape:connector-curvature="0" />
    <path
       d="m 3101,3175 c -30,-7 -60,-11 -67,-8 -17,6 -174,-28 -174,-38 0,-4 -37,-19 -82,-34 -104,-34 -134,-51 -214,-122 -47,-42 -64,-63 -64,-82 0,-18 -62,-110 -190,-286 -104,-143 -186,-263 -181,-268 4,-4 97,-68 207,-141 l 199,-133 80,74 80,74 6,-28 c 88,-415 91,-435 86,-548 -5,-120 -24,-218 -41,-212 -6,2 -12,12 -14,23 -7,40 -9,42 -52,34 l -41,-7 -39,71 c -21,39 -43,78 -48,86 -8,12 -16,10 -51,-13 -24,-16 -44,-27 -45,-25 -1,2 -28,40 -59,84 -58,84 -157,252 -157,266 0,4 43,40 95,79 l 96,71 -88,57 c -248,162 -254,165 -268,150 -8,-8 -75,-90 -149,-184 -92,-116 -135,-178 -136,-195 0,-64 90,-219 172,-296 54,-51 190,-155 289,-222 l 77,-51 6,-74 7,-73 47,-13 c 26,-6 64,-16 85,-22 20,-5 37,-16 37,-24 0,-7 13,-16 29,-20 21,-4 52,-32 103,-92 40,-47 83,-89 96,-94 44,-17 145,-10 172,11 14,11 33,20 43,20 11,0 32,14 48,31 24,26 33,29 61,24 31,-6 35,-4 50,27 15,32 14,35 -3,57 -11,13 -19,31 -19,40 0,9 -23,44 -51,78 -44,54 -67,71 -161,120 -77,40 -107,61 -103,71 3,7 14,64 25,125 17,94 20,154 20,414 0,203 -3,303 -10,303 -6,0 -28,-9 -50,-20 -55,-28 -59,-25 -21,14 l 32,33 -53,9 -53,8 58,6 c 31,3 57,10 57,15 0,6 -10,21 -22,35 -12,14 -46,54 -77,90 -63,74 -39,58 67,-44 l 72,-70 v 142 142 h 30 30 l 2,252 3,252 60,13 c 33,7 63,12 68,13 4,0 7,-119 7,-265 v -265 h 375 375 v 265 c 0,146 3,265 8,265 4,-1 34,-6 67,-13 l 60,-13 3,-252 2,-252 h 25 25 v -115 c 0,-63 2,-115 5,-115 5,0 154,69 210,97 39,20 29,11 -80,-77 -49,-40 -94,-76 -99,-81 -5,-4 13,-1 40,7 68,20 77,12 15,-14 l -53,-22 36,-37 c 40,-43 40,-51 -1,-30 -15,8 -38,18 -50,21 l -23,7 v -319 c 0,-283 2,-332 21,-423 11,-57 22,-106 25,-110 2,-4 -45,-32 -105,-63 -97,-50 -115,-63 -160,-121 -28,-35 -51,-73 -51,-83 0,-11 -9,-27 -19,-36 -19,-17 -19,-20 -3,-53 15,-32 19,-34 50,-28 28,5 37,2 61,-24 16,-17 37,-31 48,-31 10,0 29,-9 43,-20 27,-21 128,-28 172,-11 13,5 57,47 97,94 50,59 83,88 102,92 16,4 29,13 29,20 0,8 17,19 38,24 20,6 58,16 83,22 45,12 47,14 53,57 3,25 6,58 6,74 0,24 9,34 58,65 103,66 299,221 350,279 59,65 121,183 128,240 5,38 1,43 -126,194 -72,85 -139,163 -149,173 -18,18 -24,16 -190,-81 l -171,-99 95,-72 c 52,-39 95,-75 95,-79 0,-19 -158,-276 -216,-350 -1,-2 -21,9 -45,25 -35,23 -43,25 -51,13 -5,-8 -27,-47 -48,-86 l -39,-71 -41,7 c -43,8 -45,6 -52,-34 -6,-36 -25,-27 -37,16 -7,24 -15,102 -18,174 -5,125 -4,139 36,335 23,112 45,212 49,222 6,14 20,5 88,-57 l 81,-75 94,58 c 52,32 148,91 214,131 66,41 121,75 123,76 2,1 -87,123 -197,271 -138,184 -200,276 -201,294 0,20 -18,42 -72,89 -73,63 -108,82 -208,115 -30,9 -60,23 -66,30 -11,15 -140,44 -194,44 -19,0 -59,5 -89,10 -29,6 -57,11 -60,11 -4,0 -47,-36 -96,-80 -50,-44 -98,-80 -108,-80 -10,0 -39,20 -65,44 -81,76 -133,116 -150,115 -10,0 -41,-7 -71,-14 z M 2276,2170 c 60,-40 110,-75 111,-78 1,-4 -28,-29 -65,-57 -37,-27 -77,-58 -89,-69 l -23,-19 32,-56 c 17,-31 68,-113 114,-184 l 84,-127 -61,-38 -61,-37 4,-62 c 2,-35 2,-63 0,-63 -25,0 -319,225 -383,294 -44,47 -129,205 -129,241 0,16 47,83 141,199 l 140,175 38,-23 c 21,-14 87,-57 147,-96 z m 2551,-62 c 70,-84 131,-156 136,-159 31,-22 -46,-194 -125,-280 -53,-58 -355,-289 -378,-289 -4,0 -6,28 -3,63 l 5,62 -61,37 -61,38 84,127 c 46,71 97,153 114,184 l 32,56 -23,19 c -12,11 -52,42 -89,69 -37,28 -68,52 -68,55 0,7 283,169 297,169 7,1 70,-68 140,-151 z"
       id="path154"
       style="vector-effect:none;fill:#000000;fill-opacity:1;stroke:none;stroke-width:1;stroke-linecap:butt;stroke-linejoin:miter;stroke-miterlimit:4;stroke-dasharray:none;stroke-dashoffset:0;stroke-opacity:1"
       inkscape:connector-curvature="0" />
    <path
       d="m 1283,3043 c -58,-77 -193,-283 -193,-295 0,-4 8,-12 18,-17 15,-8 26,4 74,82 31,51 86,132 123,180 53,71 64,91 54,103 -6,8 -15,14 -18,14 -4,0 -30,-30 -58,-67 z"
       id="path156"
       style="vector-effect:none;fill:#000000;fill-opacity:1;stroke:none;stroke-width:1;stroke-linecap:butt;stroke-linejoin:miter;stroke-miterlimit:4;stroke-dasharray:none;stroke-dashoffset:0;stroke-opacity:1"
       inkscape:connector-curvature="0" />
    <path
       d="m 1378,2941 c -31,-42 -82,-116 -113,-166 -49,-78 -54,-90 -38,-96 20,-7 43,-1 43,11 0,11 129,205 169,254 36,45 37,52 14,64 -15,8 -28,-4 -75,-67 z"
       id="path158"
       style="vector-effect:none;fill:#000000;fill-opacity:1;stroke:none;stroke-width:1;stroke-linecap:butt;stroke-linejoin:miter;stroke-miterlimit:4;stroke-dasharray:none;stroke-dashoffset:0;stroke-opacity:1"
       inkscape:connector-curvature="0" />
    <path
       d="m 5555,2917 c -17,-13 -13,-21 48,-125 36,-61 80,-138 97,-171 27,-55 51,-74 64,-53 7,11 -73,172 -136,274 -50,80 -56,87 -73,75 z"
       id="path160"
       style="vector-effect:none;fill:#000000;fill-opacity:1;stroke:none;stroke-width:1;stroke-linecap:butt;stroke-linejoin:miter;stroke-miterlimit:4;stroke-dasharray:none;stroke-dashoffset:0;stroke-opacity:1"
       inkscape:connector-curvature="0" />
    <path
       d="m 317,2884 c -19,-19 0,-48 73,-114 61,-55 84,-70 92,-62 21,21 56,13 165,-39 60,-28 149,-69 198,-91 169,-76 255,-122 260,-139 3,-9 110,-117 237,-240 127,-123 243,-237 258,-253 30,-31 50,-28 50,7 0,13 -25,97 -55,187 l -55,164 20,21 c 11,12 82,50 158,85 75,35 147,70 160,78 23,15 29,37 13,47 -9,5 -190,13 -666,29 l -120,4 -275,109 c -251,100 -276,112 -290,140 -14,29 -21,32 -102,47 -48,9 -93,19 -100,21 -8,3 -17,2 -21,-1 z"
       id="path162"
       style="vector-effect:none;fill:#000000;fill-opacity:1;stroke:none;stroke-width:1;stroke-linecap:butt;stroke-linejoin:miter;stroke-miterlimit:4;stroke-dasharray:none;stroke-dashoffset:0;stroke-opacity:1"
       inkscape:connector-curvature="0" />
    <path
       d="m 5430,2845 c -10,-12 -1,-33 54,-118 36,-57 77,-129 91,-160 26,-59 30,-63 55,-47 12,7 8,21 -26,87 -45,89 -146,253 -155,253 -4,0 -12,-7 -19,-15 z"
       id="path164"
       style="vector-effect:none;fill:#000000;fill-opacity:1;stroke:none;stroke-width:1;stroke-linecap:butt;stroke-linejoin:miter;stroke-miterlimit:4;stroke-dasharray:none;stroke-dashoffset:0;stroke-opacity:1"
       inkscape:connector-curvature="0" />
    <path
       d="m 6047,2659 c -26,-11 -59,-30 -72,-43 -32,-32 -66,-101 -68,-139 -2,-46 13,-127 24,-127 5,0 9,-5 9,-10 0,-15 55,-67 88,-83 97,-50 233,-13 278,75 l 16,31 -89,-7 -89,-6 -27,41 c -15,22 -27,47 -27,55 0,26 40,94 55,95 8,1 24,3 35,4 11,1 43,3 70,4 70,1 76,22 21,73 -24,21 -46,38 -49,39 -4,0 -16,3 -27,5 -52,13 -104,10 -148,-7 z"
       id="path166"
       style="vector-effect:none;fill:#000000;fill-opacity:1;stroke:none;stroke-width:1;stroke-linecap:butt;stroke-linejoin:miter;stroke-miterlimit:4;stroke-dasharray:none;stroke-dashoffset:0;stroke-opacity:1"
       inkscape:connector-curvature="0" />
    <path
       d="m 5640,2394 c -255,-88 -260,-90 -260,-121 0,-53 25,-116 53,-133 33,-20 13,-26 309,76 l 197,67 -23,31 c -28,37 -46,88 -46,127 0,16 -3,29 -7,28 -5,0 -105,-34 -223,-75 z"
       id="path168"
       style="vector-effect:none;fill:#000000;fill-opacity:1;stroke:none;stroke-width:1;stroke-linecap:butt;stroke-linejoin:miter;stroke-miterlimit:4;stroke-dasharray:none;stroke-dashoffset:0;stroke-opacity:1"
       inkscape:connector-curvature="0" />
    <path
       d="m 2970,2305 v -125 h 420 420 v 125 125 h -420 -420 z m 800,0 v -85 h -380 -380 v 85 85 h 380 380 z"
       id="path170"
       style="vector-effect:none;fill:#000000;fill-opacity:1;stroke:none;stroke-width:1;stroke-linecap:butt;stroke-linejoin:miter;stroke-miterlimit:4;stroke-dasharray:none;stroke-dashoffset:0;stroke-opacity:1"
       inkscape:connector-curvature="0" />
    <path
       d="m 897,2348 c -63,-169 -109,-352 -136,-543 -26,-178 -27,-175 4,-175 21,0 25,5 25,31 0,112 62,407 124,591 34,102 40,128 28,133 -25,9 -29,6 -45,-37 z"
       id="path172"
       style="vector-effect:none;fill:#000000;fill-opacity:1;stroke:none;stroke-width:1;stroke-linecap:butt;stroke-linejoin:miter;stroke-miterlimit:4;stroke-dasharray:none;stroke-dashoffset:0;stroke-opacity:1"
       inkscape:connector-curvature="0" />
    <path
       d="m 1025,2297 c -50,-119 -114,-384 -135,-557 -13,-113 -14,-112 12,-108 20,3 23,12 35,103 20,164 57,327 112,492 28,81 28,84 10,94 -17,9 -22,5 -34,-24 z"
       id="path174"
       style="vector-effect:none;fill:#000000;fill-opacity:1;stroke:none;stroke-width:1;stroke-linecap:butt;stroke-linejoin:miter;stroke-miterlimit:4;stroke-dasharray:none;stroke-dashoffset:0;stroke-opacity:1"
       inkscape:connector-curvature="0" />
    <path
       d="m 3000,2005 c 0,-152 1,-156 25,-180 l 24,-25 h 340 340 l 28,24 28,24 3,156 3,156 h -395 -396 z m 750,-9 c 0,-142 -4,-151 -73,-161 -23,-4 -168,-5 -323,-3 -220,2 -285,6 -297,17 -14,11 -17,35 -17,142 v 129 h 355 355 z"
       id="path176"
       style="vector-effect:none;fill:#000000;fill-opacity:1;stroke:none;stroke-width:1;stroke-linecap:butt;stroke-linejoin:miter;stroke-miterlimit:4;stroke-dasharray:none;stroke-dashoffset:0;stroke-opacity:1"
       inkscape:connector-curvature="0" />
    <path
       d="m 5910,2154 c -14,-4 -12,-19 11,-112 37,-148 57,-273 71,-440 10,-114 15,-142 26,-137 7,3 18,5 24,5 6,0 8,21 4,58 -3,31 -8,86 -11,122 -17,188 -83,512 -103,509 -4,-1 -14,-3 -22,-5 z"
       id="path178"
       style="vector-effect:none;fill:#000000;fill-opacity:1;stroke:none;stroke-width:1;stroke-linecap:butt;stroke-linejoin:miter;stroke-miterlimit:4;stroke-dasharray:none;stroke-dashoffset:0;stroke-opacity:1"
       inkscape:connector-curvature="0" />
    <path
       d="m 5768,2115 c -3,-3 5,-47 18,-98 34,-134 63,-312 70,-437 7,-108 7,-110 31,-110 h 25 l -7,88 c -11,166 -39,342 -76,479 -10,40 -19,75 -19,78 0,7 -35,7 -42,0 z"
       id="path180"
       style="vector-effect:none;fill:#000000;fill-opacity:1;stroke:none;stroke-width:1;stroke-linecap:butt;stroke-linejoin:miter;stroke-miterlimit:4;stroke-dasharray:none;stroke-dashoffset:0;stroke-opacity:1"
       inkscape:connector-curvature="0" />
    <path
       d="m 679,1575 c -75,-15 -115,-33 -144,-65 -17,-19 -20,-39 -23,-165 -5,-168 0,-181 81,-215 93,-40 192,-51 432,-48 l 220,3 v 120 l -1,120 -29,3 c -17,2 -100,-1 -185,-7 -169,-13 -317,-3 -403,25 -49,16 -107,58 -107,76 0,6 8,3 19,-6 76,-69 376,-92 521,-41 29,10 46,12 48,5 2,-5 17,-10 34,-10 h 30 l -4,60 c -6,90 -38,117 -170,144 -91,19 -227,19 -319,1 z m 281,-46 c 78,-12 150,-42 150,-62 0,-8 -24,-25 -52,-38 -49,-22 -66,-24 -218,-24 -152,0 -169,2 -217,24 -29,13 -53,30 -53,38 0,8 20,23 44,33 82,37 225,49 346,29 z"
       id="path182"
       style="vector-effect:none;fill:#000000;fill-opacity:1;stroke:none;stroke-width:1;stroke-linecap:butt;stroke-linejoin:miter;stroke-miterlimit:4;stroke-dasharray:none;stroke-dashoffset:0;stroke-opacity:1"
       inkscape:connector-curvature="0" />
    <path
       d="m 6142,1548 c -7,-7 -12,-21 -12,-33 0,-11 -10,-24 -22,-30 -24,-11 -34,-49 -24,-91 6,-22 11,-24 70,-24 78,0 99,15 94,69 -2,26 -9,39 -25,46 -14,6 -23,19 -23,32 0,12 -9,27 -19,33 -24,13 -24,13 -39,-2 z"
       id="path184"
       style="vector-effect:none;fill:#000000;fill-opacity:1;stroke:none;stroke-width:1;stroke-linecap:butt;stroke-linejoin:miter;stroke-miterlimit:4;stroke-dasharray:none;stroke-dashoffset:0;stroke-opacity:1"
       inkscape:connector-curvature="0" />
    <path
       d="m 5920,1290 v -110 h 35 35 v 110 110 h -35 -35 z"
       id="path186"
       style="vector-effect:none;fill:#000000;fill-opacity:1;stroke:none;stroke-width:1;stroke-linecap:butt;stroke-linejoin:miter;stroke-miterlimit:4;stroke-dasharray:none;stroke-dashoffset:0;stroke-opacity:1"
       inkscape:connector-curvature="0" />
    <path
       d="m 6130,1165 c 0,-158 2,-187 15,-192 9,-3 25,3 35,12 18,17 20,32 20,192 v 173 h -35 -35 z"
       id="path188"
       style="vector-effect:none;fill:#000000;fill-opacity:1;stroke:none;stroke-width:1;stroke-linecap:butt;stroke-linejoin:miter;stroke-miterlimit:4;stroke-dasharray:none;stroke-dashoffset:0;stroke-opacity:1"
       inkscape:connector-curvature="0" />
    <path
       d="m 5664,1307 c -3,-8 -4,-34 -2,-58 l 3,-44 h 75 75 v 55 55 l -73,3 c -55,2 -74,0 -78,-11 z"
       id="path190"
       style="vector-effect:none;fill:#000000;fill-opacity:1;stroke:none;stroke-width:1;stroke-linecap:butt;stroke-linejoin:miter;stroke-miterlimit:4;stroke-dasharray:none;stroke-dashoffset:0;stroke-opacity:1"
       inkscape:connector-curvature="0" />
    <path
       d="m 3020,1288 c 0,-2 20,-30 45,-63 25,-33 45,-66 45,-73 0,-8 9,-25 20,-39 12,-15 18,-34 15,-44 -5,-15 1,-18 32,-21 31,-2 39,-7 41,-25 3,-23 5,-23 168,-23 h 164 v 25 c 0,22 5,25 33,25 34,0 52,9 53,25 1,24 50,114 86,159 21,27 37,50 36,52 -2,1 -37,-5 -78,-14 -54,-11 -137,-16 -295,-16 -206,-1 -246,3 -347,31 -10,2 -18,3 -18,1 z m 510,-178 v -90 h -145 -145 v 90 90 h 145 145 z"
       id="path192"
       style="vector-effect:none;fill:#000000;fill-opacity:1;stroke:none;stroke-width:1;stroke-linecap:butt;stroke-linejoin:miter;stroke-miterlimit:4;stroke-dasharray:none;stroke-dashoffset:0;stroke-opacity:1"
       inkscape:connector-curvature="0" />
    <path
       d="m 3288,1114 c -1,-31 -1,-58 1,-60 2,-2 49,-4 103,-4 h 98 v 60 60 h -99 -99 z"
       id="path194"
       style="vector-effect:none;fill:#000000;fill-opacity:1;stroke:none;stroke-width:1;stroke-linecap:butt;stroke-linejoin:miter;stroke-miterlimit:4;stroke-dasharray:none;stroke-dashoffset:0;stroke-opacity:1"
       inkscape:connector-curvature="0" />
    <path
       d="m 5877,1143 c -4,-3 -7,-28 -7,-55 0,-45 2,-48 25,-48 21,0 25,-5 25,-30 0,-18 6,-33 15,-37 19,-7 55,24 55,47 0,10 9,20 20,23 17,4 20,14 20,56 v 51 h -73 c -41,0 -77,-3 -80,-7 z"
       id="path196"
       style="vector-effect:none;fill:#000000;fill-opacity:1;stroke:none;stroke-width:1;stroke-linecap:butt;stroke-linejoin:miter;stroke-miterlimit:4;stroke-dasharray:none;stroke-dashoffset:0;stroke-opacity:1"
       inkscape:connector-curvature="0" />
  </g>
  <path
     style="fill:#800000;stroke-width:0.73940754"
     d="m 326.88577,479.24709 c -3.91388,-0.76496 -6.43584,-2.86785 -15.08788,-12.58075 -8.19503,-9.19985 -11.3597,-12.0393 -14.42376,-12.94153 -1.01669,-0.29937 -2.70148,-1.54821 -3.744,-2.77519 -1.62751,-1.91551 -3.35231,-2.61656 -12.20022,-4.95883 l -10.30475,-2.72795 -0.89652,-9.85661 c -0.49309,-5.42113 -0.99219,-9.92386 -1.10911,-10.00605 -0.11693,-0.0822 -5.03723,-3.40691 -10.934,-7.38823 -25.33574,-17.10594 -41.30298,-30.98211 -48.96327,-42.55104 -5.10222,-7.70563 -10.74633,-19.30709 -11.33123,-23.29134 -0.38979,-2.65519 -0.0631,-3.5104 3.1945,-8.36326 8.52552,-12.70038 34.36228,-44.50438 36.15422,-44.50438 0.67185,0 2.74809,0.88663 4.61385,1.97029 3.91324,2.27286 38.59066,24.55179 39.47122,25.35876 0.32304,0.29604 -3.33703,3.46837 -8.13349,7.04961 -4.79646,3.58124 -10.45409,7.97267 -12.5725,9.75874 -3.50017,2.95104 -3.78619,3.41964 -3.13409,5.13478 2.71799,7.14885 27.19412,45.37199 29.05389,45.37199 0.38153,0 2.83922,-1.35503 5.46154,-3.01117 2.62231,-1.65614 5.17263,-2.85583 5.66736,-2.66598 0.49474,0.18985 3.54254,5.19834 6.77288,11.12999 3.90123,7.16354 6.20482,10.66528 6.86052,10.42883 0.54295,-0.19579 2.83876,-0.5736 5.10181,-0.83958 3.49307,-0.41054 4.26545,-0.27735 5.11294,0.88166 0.54907,0.7509 0.99831,2.10974 0.99831,3.01965 0,2.30687 2.06697,4.28483 3.35799,3.21337 2.63912,-2.19027 5.17907,-23.3377 4.57055,-38.05404 -0.24092,-5.82618 -1.1698,-13.54403 -2.35829,-19.5943 -4.50698,-22.94386 -9.47611,-46.25252 -9.97709,-46.7995 -0.29547,-0.3226 -5.23851,3.76927 -10.98452,9.09303 l -10.44731,9.67957 -26.63897,-17.82318 c -14.65144,-9.80276 -26.63897,-18.27388 -26.63897,-18.82471 0,-1.33486 9.63642,-15.58483 24.01667,-35.51493 16.16503,-22.40368 23.91906,-34.12709 24.84394,-37.56184 0.92357,-3.42986 5.4523,-8.49587 13.08076,-14.63266 7.54216,-6.06736 10.52782,-7.66426 22.02259,-11.779 5.55303,-1.9878 10.92187,-4.15503 11.93074,-4.81608 2.90731,-1.90494 15.41431,-4.77107 23.88932,-5.47452 4.27008,-0.35443 10.18218,-1.20337 13.138,-1.88654 l 5.37422,-1.24213 3.1516,1.84696 c 1.73337,1.01583 6.09186,4.4544 9.68553,7.64127 8.41691,7.46414 14.3721,12.07927 15.58666,12.07927 1.37429,0 8.25303,-5.21556 18.41082,-13.95934 7.41186,-6.38009 9.08474,-7.4998 10.72141,-7.17612 5.78289,1.14366 11.70523,1.96094 19.30864,2.66459 10.74738,0.9946 19.99129,3.22528 24.93018,6.01598 2.1177,1.1966 6.6096,3.12063 9.982,4.27562 8.48857,2.90718 12.47748,4.7254 16.89831,7.70257 6.44814,4.34242 15.90767,12.87923 17.09558,15.428 3.80448,8.16283 5.46404,10.90779 12.85896,21.26904 4.50301,6.30929 15.56018,21.45345 24.57148,33.65367 9.0113,12.20023 16.39041,22.55212 16.39802,23.00421 0.012,0.71081 -52.56222,33.52505 -55.54988,34.67153 -0.70726,0.2714 -3.56131,-1.84262 -7.95773,-5.89435 -12.56205,-11.57718 -14.98686,-13.13165 -15.89491,-10.18971 -0.6964,2.2562 -5.4017,24.44554 -8.16786,38.51811 -1.46632,7.45971 -2.86091,17.10898 -3.0991,21.44282 -0.44797,8.15081 0.63926,26.5819 2.04681,34.6983 1.36177,7.8524 5.12245,10.20068 6.19255,3.86683 0.2844,-1.68333 1.01941,-3.25337 1.63338,-3.48897 0.61396,-0.23559 3.24315,-0.1105 5.84266,0.27799 l 4.72637,0.70634 6.01615,-10.94791 c 3.30888,-6.02134 6.328,-10.9479 6.70915,-10.9479 0.38116,0 2.99912,1.37003 5.81769,3.04451 4.00176,2.37741 5.34818,2.85901 6.14472,2.19795 2.44909,-2.03257 21.81834,-32.53741 26.3114,-41.43811 l 2.34,-4.63552 -1.71564,-1.83248 c -0.94361,-1.00786 -6.57357,-5.56866 -12.51103,-10.1351 l -10.79539,-8.30262 1.9225,-1.11712 c 24.77028,-14.39343 40.1012,-22.89123 41.94755,-23.25117 2.19929,-0.42874 2.66227,-0.0536 9.24259,7.48871 12.6189,14.46372 27.38212,32.4604 29.27784,35.6903 1.74118,2.96658 1.81264,3.45931 1.05145,7.24956 -1.68126,8.37158 -9.65044,22.65185 -17.36483,31.11664 -6.84553,7.51142 -29.64748,25.73364 -45.75559,36.56568 -3.54482,2.38374 -6.7486,4.91525 -7.11952,5.62558 -0.37092,0.71032 -0.91492,4.28609 -1.2089,7.94616 -0.82857,10.31575 -1.24712,10.94107 -8.62198,12.88165 -10.37847,2.73095 -13.29877,3.85144 -14.93129,5.729 -0.8619,0.99127 -2.90569,2.39847 -4.54177,3.12712 -1.973,0.8787 -6.43847,4.98803 -13.261,12.20338 -5.65746,5.98321 -11.31393,11.4288 -12.56992,12.10131 -1.69754,0.90891 -4.2095,1.22076 -9.78749,1.21505 -6.92312,-0.007 -7.86732,-0.188 -12.20022,-2.33767 -2.583,-1.2815 -5.86706,-2.79655 -7.29792,-3.36679 -1.43086,-0.57024 -4.21385,-2.43223 -6.18443,-4.13776 -3.39948,-2.94222 -3.79405,-3.08975 -7.70783,-2.88204 -4.11575,0.21842 -4.12872,0.21231 -5.81878,-2.73873 -2.17419,-3.7964 -2.15249,-5.61915 0.092,-7.72774 0.99559,-0.93531 2.02404,-2.67433 2.28544,-3.86448 0.75514,-3.43813 7.29697,-12.60011 12.37873,-17.33671 3.27595,-3.05344 7.92827,-6.09858 15.65614,-10.24764 6.04733,-3.24676 11.71939,-6.47291 12.60458,-7.16921 l 1.60945,-1.26598 -1.71965,-7.61894 c -3.59515,-15.92842 -3.8932,-20.23615 -4.42801,-63.99877 -0.38094,-31.17097 -0.29502,-41.59167 0.34291,-41.59167 0.85826,0 5.54677,1.75227 10.66422,3.98561 4.03663,1.76166 3.63382,0.17551 -1.3556,-5.33797 -3.56012,-3.93407 -3.94178,-4.62867 -2.77278,-5.04632 4.44074,-1.58652 10.5982,-4.71544 10.5982,-5.38547 0,-1.0451 -0.82564,-0.99552 -6.07518,0.36477 -2.44207,0.63281 -4.57499,1.01568 -4.73983,0.85083 -0.16485,-0.16484 5.36206,-4.89731 12.28201,-10.51659 14.98858,-12.17133 16.02609,-13.57429 6.48524,-8.76959 -7.82651,3.94136 -24.37512,11.4601 -24.64015,11.19506 -0.12595,-0.12594 -0.46576,-6.95924 -0.75516,-15.18511 l -0.52616,-14.95612 h -3.21561 -3.21561 v -33.56882 -33.56882 l -5.36071,-1.18182 c -9.86722,-2.17531 -12.38992,-2.51462 -12.87386,-1.73158 -0.25368,0.41047 -0.6279,16.33988 -0.83157,35.39868 l -0.37033,34.65236 h -49.35768 -49.35768 l -0.26154,-35.0604 c -0.14385,-19.28323 -0.42791,-35.22632 -0.63125,-35.4291 -0.46114,-0.45988 -16.87763,2.8282 -17.56819,3.51876 -0.27743,0.27743 -0.63699,15.45934 -0.79901,33.73758 l -0.29458,33.23316 h -3.97845 -3.97844 v 18.54513 18.54512 l -9.93072,-9.38185 c -5.46189,-5.16001 -10.65167,-9.88681 -11.53282,-10.504 -3.36817,-2.35916 -1.08071,1.20925 6.36452,9.92856 4.0991,4.80057 8.02643,9.61195 8.7274,10.69197 l 1.27449,1.96366 -3.7728,0.80911 c -2.07503,0.44502 -4.83779,0.84229 -6.13947,0.88283 -1.30167,0.0405 -3.19851,0.31628 -4.2152,0.61276 -1.40122,0.40862 -0.28204,0.76724 4.6252,1.48204 3.56055,0.51863 6.6239,1.18598 6.80746,1.48298 0.18356,0.29699 -1.14913,1.99532 -2.96153,3.77406 -3.10374,3.04608 -4.41323,5.764 -2.37102,4.92114 0.50835,-0.2098 3.34068,-1.46132 6.29409,-2.78115 2.9534,-1.31983 5.61526,-2.15425 5.91526,-1.85426 0.29999,0.29999 0.54543,18.23577 0.54543,39.85727 0,41.58441 -0.1097,43.38415 -3.80688,62.45241 -1.77742,9.16705 -1.82362,9.92246 -0.68398,11.18175 0.67222,0.74279 6.47675,4.25026 12.89896,7.79439 6.42222,3.54413 13.21516,7.75885 15.09543,9.36605 4.41764,3.77608 12.08517,13.95879 12.99666,17.25995 0.38994,1.41222 1.40389,3.54361 2.25325,4.73641 1.86025,2.61249 1.94416,4.56065 0.332,7.70758 -1.67047,3.26072 -2.30807,3.55212 -6.64681,3.03769 -3.75291,-0.44497 -3.83562,-0.41044 -7.95646,3.3214 -2.29026,2.07408 -4.58146,3.77105 -5.09156,3.77105 -0.51008,0 -3.01282,1.01739 -5.56163,2.26088 -6.61409,3.2268 -14.13037,4.2925 -20.91801,2.96587 z m -58.4271,-67.48813 -0.19118,-8.28462 7.89607,-4.83987 c 4.34284,-2.66191 7.89723,-5.06954 7.89865,-5.35027 0.001,-0.28073 -3.77701,-6.26993 -8.39652,-13.30934 -11.86681,-18.08317 -22.19273,-35.45476 -21.39789,-35.99826 3.13139,-2.14123 20.18698,-15.84482 21.53602,-17.30347 l 1.72104,-1.86086 -6.89689,-4.79735 c -16.38211,-11.39513 -32.63529,-21.45154 -33.60257,-20.79109 -1.56192,1.06647 -28.82597,35.57468 -33.24069,42.07285 -2.24969,3.3114 -4.01333,6.72897 -4.00651,7.76378 0.0265,4.02114 9.69222,22.63492 15.63715,30.11333 6.04848,7.60865 48.49795,40.86979 52.16,40.86979 0.88717,0 1.04117,-1.44435 0.88332,-8.28462 z m 290.61221,5.30362 c 12.04312,-7.78385 38.43967,-28.77431 44.98744,-35.77389 9.84271,-10.52189 19.62975,-31.51131 16.95973,-36.37209 -1.37015,-2.49437 -24.46338,-29.46575 -31.11364,-36.33871 -3.24635,-3.35506 -6.22958,-6.10011 -6.62939,-6.10011 -1.95823,0 -39.86253,22.02417 -39.52506,22.96591 0.11912,0.33243 3.04483,2.79263 6.50156,5.46711 3.45673,2.67447 8.69728,6.73355 11.64567,9.02016 2.94838,2.28661 5.3607,4.3906 5.3607,4.67554 0,1.0125 -13.30193,22.76874 -21.69765,35.48801 -5.26657,7.97871 -8.27971,13.20937 -7.87986,13.67904 0.35608,0.41826 3.97194,2.75687 8.03524,5.19692 l 7.38784,4.43644 -0.42997,8.31834 c -0.507,9.80862 -0.51292,9.80368 6.39739,5.33733 z"
     id="path59"
     inkscape:connector-curvature="0"
     transform="scale(0.74999999)" />
  <path
     style="fill:#800000;stroke-width:0.73940754"
     d="m 348.03071,61.510843 c -3.71153,-0.56561 -4.20146,-2.319522 -1.23748,-4.430068 1.74146,-1.240024 2.40134,-2.546035 3.30849,-6.548044 5.065,-22.344932 20.766,-38.765498 42.6043,-44.5568295 1.8016,-0.4777708 4.15139,-1.806158 5.22174,-2.9519716 2.33452,-2.49911084 7.69509,-3.42123826 15.21012,-2.61644757 4.16678,0.4462247 4.93707,0.76230527 5.50628,2.25944937 0.63476,1.6695435 4.34662,3.2939147 7.55066,3.3042945 3.85785,0.012498 19.15972,9.1035788 25.85394,15.3602348 7.78455,7.275722 13.26042,17.053551 15.79521,28.204302 0.81752,3.596291 1.85177,6.086761 3.00784,7.242833 2.96562,2.965612 2.3575,4.374798 -2.11998,4.912605 -4.92175,0.591173 -116.7347,0.424095 -120.70112,-0.180358 z"
     id="path63"
     inkscape:connector-curvature="0"
     transform="scale(0.74999999)" />
  <path
     style="fill:#800000;stroke-width:0.73940754"
     d="m 344.69621,69.934104 v -4.066742 h 63.95876 63.95875 v 4.163488 4.163487 l -2.77278,-0.473219 c -27.37788,-4.672475 -94.14325,-4.918445 -119.18041,-0.439073 -6.1391,1.09834 -5.96432,1.196453 -5.96432,-3.347941 z"
     id="path65"
     inkscape:connector-curvature="0"
     transform="scale(0.74999999)" />
  <path
     style="fill:#800000;stroke-width:0.73940754"
     d="m 376.61969,159.39746 c -3.42902,-2.88533 -8.61295,-10.11986 -11.24855,-15.69811 -1.29163,-2.73373 -3.32821,-8.7965 -4.52573,-13.47281 -2.04072,-7.96903 -3.53969,-11.12183 -5.28774,-11.12183 -1.75841,0 -5.68238,-3.95602 -7.45768,-7.51858 -3.24117,-6.50418 -2.11907,-12.990314 3.25615,-18.82174 1.62381,-1.76162 2.95237,-3.830974 2.95237,-4.598565 0,-1.965867 -2.48631,-4.89481 -6.52588,-7.687675 l -3.45612,-2.389475 5.54556,-0.852763 c 12.35848,-1.900414 24.57636,-2.634342 50.27971,-3.020301 27.62724,-0.414848 45.367,0.262317 62.45184,2.383922 4.86463,0.604092 9.35653,1.108865 9.982,1.121716 1.10956,0.0228 0.5139,0.657349 -4.30932,4.590695 -2.36685,1.930166 -2.22651,8.268156 0.25763,11.63522 6.10857,8.279706 4.85147,17.769236 -3.21217,24.247756 -2.12478,1.7071 -3.25574,3.33679 -3.84847,5.54556 -2.83528,10.56547 -6.33249,18.42113 -11.68515,26.24793 -3.84081,5.61615 -7.96313,10.26913 -8.57201,9.67547 -0.2696,-0.26287 0.83368,-2.22709 2.45175,-4.36491 1.61806,-2.13784 3.99014,-6.03681 5.2713,-8.66438 3.05132,-6.25809 7.19408,-18.75839 7.8276,-23.61893 0.49623,-3.80707 0.54359,-3.86657 3.98843,-5.01077 6.00587,-1.99483 9.64137,-7.35772 9.63914,-14.21914 -0.003,-9.130331 -7.88002,-14.65853 -11.7707,-8.260808 -1.6145,2.654826 -2.01678,2.23503 -2.68494,-2.801854 -0.77395,-5.83427 -0.81585,-5.861225 -7.49448,-4.820742 -17.99287,2.803162 -24.30011,3.230535 -42.74689,2.896496 -11.59714,-0.210004 -22.43028,-0.839146 -29.07248,-1.688403 -12.00203,-1.534556 -11.53518,-1.69564 -12.35469,4.262907 l -0.48769,3.54596 -3.02156,-2.586339 c -3.50287,-2.998331 -3.8702,-3.06024 -6.77928,-1.142594 -3.43429,2.263867 -5.58021,6.449647 -5.5846,10.893197 -0.007,6.92928 2.71908,10.98658 9.39685,13.98639 3.68773,1.65662 3.90606,1.91726 5.02974,6.00457 4.66469,16.96753 7.76993,24.41275 13.33495,31.97229 1.86589,2.53463 3.24483,4.75614 3.0643,4.93667 -0.18052,0.18052 -1.35196,-0.53319 -2.60319,-1.58603 z"
     id="path67"
     inkscape:connector-curvature="0"
     transform="scale(0.74999999)" />
  <path
     style="fill:#800000;stroke-width:0.73940754"
     d="m 383.88481,144.97124 c 3.4877,-2.75213 15.15835,-9.4595 18.01685,-10.35466 1.57244,-0.49242 4.15652,-0.72127 5.74239,-0.50856 1.58587,0.21271 3.83968,0.0258 5.00846,-0.41537 1.68702,-0.63679 2.86572,-0.52814 5.71842,0.5271 4.71911,1.74563 14.01275,7.14749 17.27241,10.03946 l 2.58793,2.296 -5.94787,-0.42052 c -7.61861,-0.53864 -15.11883,-2.62456 -18.37949,-5.11159 -3.06487,-2.33768 -4.21743,-2.43242 -5.97433,-0.49107 -2.61159,2.88578 -14.40396,5.95717 -22.70759,5.91432 l -3.18569,-0.0164 z"
     id="path69"
     inkscape:connector-curvature="0"
     transform="scale(0.74999999)" />
  <path
     style="fill:#800000;stroke-width:0.73940754"
     d="m 355.04792,296.56252 v -16.26696 h 55.45557 55.45556 v 16.26696 16.26697 h -55.45556 -55.45557 z m 106.47469,0 V 284.732 h -51.01912 -51.01912 v 11.83052 11.83052 h 51.01912 51.01912 z"
     id="path71"
     inkscape:connector-curvature="0"
     transform="scale(0.74999999)" />
  <path
     style="fill:#800000;stroke-width:0.73940754"
     d="m 362.81571,360.89509 c -2.57715,-2.63925 -2.94313,-3.48504 -3.43942,-7.94863 -0.30547,-2.74731 -0.57248,-12.0657 -0.59336,-20.70752 l -0.038,-15.71241 h 52.49793 52.49794 l -0.10014,9.05774 c -0.0551,4.98176 -0.30462,14.24543 -0.55455,20.58593 l -0.45442,11.52818 -3.55716,3.07512 -3.55715,3.07511 h -44.90883 -44.90883 z m 87.21565,-1.47358 c 6.48428,-1.06181 7.85047,-2.72868 8.59113,-10.48189 0.32387,-3.39027 0.60978,-11.07194 0.63537,-17.07039 l 0.0465,-10.90626 h -47.72978 -47.72977 l 0.22284,17.35696 c 0.28045,21.84468 -0.66644,20.34231 13.28597,21.07999 15.33971,0.81103 67.76166,0.82661 72.67771,0.0216 z"
     id="path73"
     inkscape:connector-curvature="0"
     transform="scale(0.74999999)" />
  <path
     style="fill:#800000;stroke-width:0.73940754"
     d="m 390.34079,469.81094 c -0.7193,-0.18745 -1.76575,-1.43683 -2.32546,-2.7764 -0.92769,-2.22026 -1.39853,-2.49305 -5.32582,-3.0856 -4.11039,-0.62017 -4.31354,-0.75184 -4.42536,-2.86824 -0.15925,-3.01393 -6.66829,-15.2712 -11.78034,-22.18372 -2.29903,-3.10876 -4.03244,-5.7999 -3.85202,-5.98032 0.18042,-0.18042 3.23909,0.36333 6.79703,1.20834 8.59985,2.04246 19.81819,2.90244 37.74733,2.89363 18.41772,-0.009 35.87189,-1.05066 43.42688,-2.59159 3.17439,-0.64745 6.26825,-1.07081 6.87524,-0.9408 0.79739,0.17079 -0.1432,1.98035 -3.38972,6.52135 -4.35596,6.09281 -11.05113,18.40237 -11.05113,20.31833 0,1.74352 -2.41633,2.97041 -6.58338,3.34271 l -4.13803,0.3697 -0.22737,3.14249 -0.22736,3.14248 -20.10634,-0.0858 c -11.05849,-0.0472 -20.69486,-0.23914 -21.41415,-0.42659 z m 39.38729,-13.90609 v -12.20022 h -19.5943 -19.5943 v 12.20022 12.20023 h 19.5943 19.5943 z"
     id="path75"
     inkscape:connector-curvature="0"
     transform="scale(0.74999999)" />
  <path
     style="fill:#800000;stroke-width:0.73940754"
     d="m 398.11841,463.17893 c -1.01699,-0.41036 -1.19624,-4.90274 -0.44514,-11.15597 l 0.46627,-3.88189 h 12.83664 12.83664 v 7.76378 7.76378 l -12.38507,-0.0584 c -6.8118,-0.0321 -12.801,-0.2262 -13.30934,-0.43133 z"
     id="path77"
     inkscape:connector-curvature="0"
     transform="scale(0.74999999)" />
  <path
     style="fill:#800000;stroke-width:0.73940754"
     d="m 59.654599,458.36713 c -15.993303,-1.81591 -28.692938,-7.01971 -31.058686,-12.7266 -1.055217,-2.5455 -1.520733,-10.81013 -1.269625,-22.5405 l 0.164082,-7.66497 3.051256,2.75663 c 8.778066,7.93045 26.291712,11.40102 52.718449,10.44688 7.350696,-0.2654 19.603655,-0.69082 27.228795,-0.94538 l 13.86389,-0.46284 v 16.00092 16.00091 l -29.39145,-0.0967 c -16.165298,-0.0532 -32.053318,-0.39894 -35.306711,-0.76834 z"
     id="path79"
     inkscape:connector-curvature="0"
     transform="scale(0.74999999)" />
  <path
     style="fill:#800000;stroke-width:0.73940754"
     d=""
     id="path81"
     inkscape:connector-curvature="0"
     transform="scale(0.74999999)" />
  <path
     style="fill:#800000;stroke-width:0.73940754"
     d="m 53.033886,422.60584 c -10.751852,-1.73154 -17.839026,-4.1991 -22.487942,-7.82966 -0.962816,-0.75192 -2.081275,-1.16273 -2.485464,-0.91293 -1.025747,0.63395 0.06505,-6.95651 1.364326,-9.49385 3.928982,-7.67287 21.15112,-12.13 44.278537,-11.45939 18.241643,0.52894 30.758567,3.5715 35.940277,8.73621 2.91538,2.90581 3.99474,6.30423 4.61022,14.51547 l 0.34639,4.6213 h -3.26725 c -1.79699,0 -3.89488,-0.39196 -4.66198,-0.87102 -1.12079,-0.69994 -3.04308,-0.45355 -9.787116,1.25451 -7.611909,1.92785 -9.733286,2.1432 -22.810838,2.31556 -9.859274,0.12995 -16.511944,-0.14711 -21.03916,-0.8762 z m 42.851684,-7.23706 c 5.25427,-1.68936 10.72141,-5.31406 10.72141,-7.10826 0,-1.96776 -4.88071,-4.7424 -11.60368,-6.59657 -19.626229,-5.41285 -49.456916,-3.07249 -59.009743,4.6296 l -2.218223,1.78847 1.722497,1.83946 c 2.232198,2.38379 9.691458,5.71528 14.479809,6.46705 2.068934,0.32482 12.412767,0.49571 22.986295,0.37976 15.190839,-0.16659 20.00032,-0.46023 22.921635,-1.39951 z"
     id="path83"
     inkscape:connector-curvature="0"
     transform="scale(0.74999999)" />
  <path
     style="fill:#800000;stroke-width:0.73940754"
     d="m 58.080639,384.94041 c -0.552688,-1.44028 2.800502,-25.96274 5.361188,-39.20729 2.816319,-14.56675 6.570622,-28.89476 11.411731,-43.552 4.916604,-14.88582 5.855305,-16.76956 8.068209,-16.19087 2.27884,0.59593 1.932587,3.09148 -2.246789,16.19329 -8.613174,27.00119 -15.568297,58.70771 -16.851831,76.82292 l -0.47151,6.65467 -2.408158,0.23208 c -1.680092,0.16192 -2.545624,-0.12615 -2.86284,-0.9528 z"
     id="path85"
     inkscape:connector-curvature="0"
     transform="scale(0.74999999)" />
  <path
     style="fill:#800000;stroke-width:0.73940754"
     d="m 76.601705,385.0339 c -0.582171,-1.51711 1.66104,-18.64648 4.178407,-31.9067 4.301212,-22.65662 13.432188,-54.83859 16.401935,-57.80834 1.10826,-1.10826 3.180873,-0.67967 3.738333,0.77304 0.18866,0.49162 -1.276736,6.03918 -3.256422,12.32791 -6.923649,21.99387 -10.419303,37.22554 -13.974277,60.89036 -1.214888,8.08728 -2.585438,15.15786 -3.045667,15.71241 -1.075343,1.29571 -3.546787,1.30263 -4.042309,0.0113 z"
     id="path87"
     inkscape:connector-curvature="0"
     transform="scale(0.74999999)" />
  <path
     style="fill:#800000;stroke-width:0.73940754"
     d="m 165.38988,337.38305 c -5.28676,-5.19445 -18.76247,-18.42891 -29.94601,-29.40992 -11.18354,-10.98103 -23.06921,-22.834 -26.41261,-26.33995 -7.19421,-7.54399 -9.515369,-8.82629 -47.897846,-26.46068 -30.894596,-14.19417 -33.501439,-15.10905 -37.656712,-13.21578 -2.396411,1.09188 -4.999555,-0.58079 -13.8717054,-8.91336 -6.8150925,-6.40062 -9.8841888,-10.501 -9.19811448,-12.28888 0.57607657,-1.50123 1.43934608,-1.41977 14.81994488,1.39854 l 11.767202,2.47849 3.760357,4.16979 c 4.534071,5.02774 4.00339,4.77781 44.427772,20.92408 l 30.315712,12.10867 30.31571,1.08216 c 69.22205,2.47097 74.8944,2.80451 75.52232,4.44086 0.97588,2.54309 -1.81605,4.35143 -22.1314,14.33457 -14.73949,7.2431 -21.53788,10.98128 -23.17842,12.74494 l -2.32143,2.49565 6.10604,18.48518 c 11.91645,36.07535 11.59009,37.69693 -4.42081,21.96564 z"
     id="path89"
     inkscape:connector-curvature="0"
     transform="scale(0.74999999)" />
  <path
     style="fill:#800000;stroke-width:0.73940754"
     d="m 122.29073,246.39499 c -0.7135,-0.45269 -0.76287,-1.10443 -0.19649,-2.59412 2.05241,-5.39824 22.24534,-34.95535 26.72758,-39.1221 1.79447,-1.66818 2.46885,-1.90219 3.65393,-1.26795 0.79932,0.42778 1.45331,1.23637 1.45331,1.79685 0,0.56049 -1.92325,3.62657 -4.2739,6.81351 -6.24403,8.46548 -13.3338,18.86458 -18.31742,26.86755 -2.40582,3.86341 -4.71209,7.26883 -5.12504,7.56761 -0.99092,0.71694 -2.73833,0.68961 -3.92197,-0.0614 z"
     id="path91"
     inkscape:connector-curvature="0"
     transform="scale(0.74999999)" />
  <path
     style="fill:#800000;stroke-width:0.73940754"
     d="m 105.13616,238.52866 c -0.7503,-0.90406 -0.28149,-2.11967 2.63774,-6.83952 10.17213,-16.44643 24.71228,-37.198 28.33732,-40.44277 1.45183,-1.29954 1.70248,-1.32382 2.759,-0.2673 1.68877,1.68877 0.98189,3.17373 -6.43485,13.51768 -3.62698,5.05846 -10.44037,15.0324 -15.14086,22.1643 -8.6289,13.09233 -10.01725,14.44748 -12.15835,11.86761 z"
     id="path93"
     inkscape:connector-curvature="0"
     transform="scale(0.74999999)" />
  <path
     style="fill:#800000;stroke-width:0.73940754"
     d="m 136.92269,174.21921 c -14.43693,-13.14854 -26.34145,-24.36155 -26.45448,-24.9178 -0.11304,-0.55624 1.27111,-2.46055 3.07587,-4.23179 2.96738,-2.91226 3.4192,-3.12352 4.72148,-2.2076 0.79206,0.55706 10.20923,8.99844 20.92707,18.75862 10.71783,9.76018 21.52698,19.57582 24.02033,21.81252 4.0362,3.62076 6.98307,7.17837 6.98307,8.43029 0,0.87767 -5.37131,6.35653 -6.18615,6.31003 -0.46102,-0.0263 -12.65026,-10.80573 -27.08719,-23.95427 z"
     id="path95"
     inkscape:connector-curvature="0"
     transform="scale(0.74999999)" />
  <path
     style="fill:#800000;stroke-width:0.73940754"
     d="m 211.23315,242.28238 c -4.1637,-1.84872 -40.30205,-34.65783 -40.29054,-36.57877 0.009,-1.50328 2.32366,-4.40868 14.73555,-18.49635 l 9.93657,-11.27815 10.76684,0.47268 c 15.42855,0.67735 21.06123,1.53081 25.28882,3.83175 4.8403,2.63443 10.63449,8.90434 12.99643,14.06349 3.87369,8.46126 2.76843,20.11955 -2.67884,28.25644 -2.99206,4.46941 -15.36952,17.69663 -18.14155,19.38705 -2.69376,1.64268 -9.28144,1.82123 -12.61328,0.34186 z m 14.60143,-11.30782 c 5.10013,-2.27829 9.5833,-6.89535 12.15961,-12.52275 1.59137,-3.47603 1.81812,-4.87573 1.57816,-9.7418 -0.46176,-9.36376 -5.33329,-17.59787 -13.1195,-22.17528 -3.07394,-1.80713 -4.07694,-1.99166 -10.78326,-1.98393 -6.35522,0.007 -7.9135,0.26457 -11.09111,1.83088 -12.11793,5.97319 -17.33532,20.19622 -11.8656,32.3466 2.16976,4.81989 7.05137,10.09832 11.43615,12.36578 5.91264,3.05754 14.68168,3.00922 21.68555,-0.1195 z"
     id="path97"
     inkscape:connector-curvature="0"
     transform="scale(0.74999999)" />
  <path
     style="fill:#800000;stroke-width:0.73940754"
     d="m 210.07177,221.3278 c -9.21413,-4.66704 -12.22168,-15.97524 -6.60452,-24.83258 6.39736,-10.08758 21.18748,-10.16886 28.07768,-0.15429 3.37246,4.9017 4.28545,9.81293 2.73724,14.72441 -3.27067,10.37575 -14.54853,15.15629 -24.2104,10.26246 z"
     id="path99"
     inkscape:connector-curvature="0"
     transform="scale(0.74999999)" />
  <path
     style="fill:#800000;stroke-width:0.73940754"
     d="m 184.24138,168.27122 c -0.77665,-0.93581 -0.14352,-1.86715 3.973,-5.84425 8.9447,-8.64176 39.64597,-31.28229 51.35601,-37.87226 2.40387,-1.35281 2.48055,-1.35253 3.48353,0.0128 1.63711,2.22861 0.28736,3.67544 -9.48572,10.16799 -10.71216,7.1164 -22.37584,15.78387 -35.91478,26.68884 -5.43548,4.37802 -10.46892,7.96004 -11.18543,7.96004 -0.7165,0 -1.71848,-0.50094 -2.22661,-1.1132 z"
     id="path101"
     inkscape:connector-curvature="0"
     transform="scale(0.74999999)" />
  <path
     style="fill:#800000;stroke-width:0.73940754"
     d="m 172.56213,155.1878 c -0.48801,-0.48801 -0.88729,-1.25057 -0.88729,-1.69457 0,-3.03664 31.30844,-27.38293 52.30861,-40.6766 7.54035,-4.77324 9.23935,-5.57651 10.16685,-4.80676 2.63179,2.1842 1.30841,3.60994 -10.53207,11.34668 -12.81362,8.37259 -23.56455,16.34836 -36.19288,26.8503 -7.50553,6.24175 -12.47952,9.85806 -13.56925,9.86547 -0.22367,0.002 -0.80596,-0.39652 -1.29397,-0.88452 z"
     id="path103"
     inkscape:connector-curvature="0"
     transform="scale(0.74999999)" />
  <path
     style="fill:#800000;stroke-width:0.73940754"
     d="m 273.34057,193.04003 c -0.63244,-1.22302 -2.48924,-9.12544 -4.12622,-17.56093 -1.63697,-8.4355 -4.10782,-20.49464 -5.49076,-26.79809 -1.38294,-6.30345 -3.2121,-15.61999 -4.0648,-20.70341 -2.23163,-13.30396 -3.4689,-17.63364 -6.25007,-21.87128 -2.35118,-3.58248 -33.63937,-43.099732 -43.74951,-55.256 -4.97689,-5.984137 -5.6824,-8.274296 -2.54898,-8.274296 1.27576,0 2.20486,0.770902 3.31721,2.752397 0.84981,1.513818 5.08852,6.671186 9.41934,11.460817 4.33082,4.789631 11.94494,13.533055 16.92027,19.42983 4.97532,5.896775 10.50581,12.385077 12.28996,14.418448 l 3.24392,3.697037 -0.45398,-4.436445 c -0.2497,-2.440045 -1.26321,-8.429246 -2.25226,-13.309336 -0.98905,-4.88009 -2.80097,-14.862092 -4.02649,-22.182227 -1.22551,-7.320135 -2.91826,-15.891921 -3.76167,-19.048414 -1.63118,-6.104763 -1.26108,-7.939962 1.60123,-7.939962 1.45313,0 2.52802,3.002231 1.84517,5.153686 -0.44419,1.399532 -0.12058,2.914875 2.92602,13.701207 1.87821,6.649719 6.02608,25.903083 9.63736,44.734157 1.05284,5.490101 2.69123,11.645671 3.64086,13.679041 0.94962,2.03337 7.30138,10.51807 14.11501,18.85489 18.21663,22.28896 29.32431,36.1066 35.12158,43.69023 4.28085,5.59994 5.01686,6.96457 4.38903,8.13767 -0.41487,0.77519 -1.00177,1.40945 -1.30422,1.40945 -1.25467,0 -10.60709,-10.51615 -27.82299,-31.28502 -17.06046,-20.58135 -19.79116,-23.52301 -20.85162,-22.46256 -0.77988,0.77988 8.13852,49.56893 10.43302,57.07491 1.7495,5.72312 2.33253,13.67403 1.06171,14.47861 -1.62173,1.02675 -2.02813,0.83411 -3.25812,-1.54441 z"
     id="path105"
     inkscape:connector-curvature="0"
     transform="scale(0.74999999)" />
  <path
     style="fill:#800000;stroke-width:0.73940754"
     d="m 271.46407,90.600406 c -1.38611,-1.67016 -0.0455,-2.689387 7.79457,-5.925848 13.9507,-5.759007 46.52528,-15.849565 51.16595,-15.849565 1.90263,0 2.63609,0.391806 3.11435,1.663667 0.40425,1.075067 0.33041,1.836274 -0.20872,2.151538 -0.45887,0.26833 -6.65713,2.169909 -13.7739,4.225732 -12.36824,3.572811 -21.07475,6.423877 -37.34004,12.227501 -8.33463,2.973881 -9.40974,3.124562 -10.75221,1.506975 z"
     id="path107"
     inkscape:connector-curvature="0"
     transform="scale(0.74999999)" />
  <path
     style="fill:#800000;stroke-width:0.73940754"
     d="m 277.69384,107.56453 c -0.3202,-1.27576 -0.13738,-2.14842 0.54047,-2.57985 5.98102,-3.80676 47.71038,-17.641039 56.88177,-18.857668 3.08117,-0.408731 3.71713,-0.280425 4.1457,0.83641 0.83079,2.165026 -2.58752,4.336412 -9.77987,6.212378 -11.4987,2.999181 -25.34818,7.40793 -37.48552,11.93287 -6.46721,2.41106 -12.2221,4.38374 -12.78863,4.38374 -0.56653,0 -1.24779,-0.86755 -1.51392,-1.92788 z"
     id="path109"
     inkscape:connector-curvature="0"
     transform="scale(0.74999999)" />
  <path
     style="fill:#800000;stroke-width:0.73940754"
     d="m 554.63928,95.405241 c -1.45014,-0.34171 -8.6039,-2.921584 -15.89726,-5.733052 -13.06096,-5.034781 -25.32929,-9.223887 -38.40051,-13.112112 -11.34538,-3.374846 -14.41845,-4.719599 -14.41845,-6.309395 0,-2.207826 4.86982,-1.845107 15.95607,1.188458 27.62863,7.5601 56.87557,19.301852 56.87557,22.833796 0,1.734146 -0.72031,1.93233 -4.11542,1.132305 z"
     id="path111"
     inkscape:connector-curvature="0"
     transform="scale(0.74999999)" />
  <path
     style="fill:#800000;stroke-width:0.73940754"
     d="m 539.89981,109.78397 c -10.96401,-4.73653 -28.23127,-10.780814 -42.95716,-15.036843 -6.92843,-2.002434 -13.07404,-4.036565 -13.65689,-4.520292 -1.55764,-1.29272 -1.37147,-4.395469 0.26373,-4.395469 5.68729,0 46.69939,13.514558 60.41706,19.908994 6.3038,2.93849 8.19054,4.53105 7.5,6.33056 -0.69032,1.79896 -3.30584,1.28183 -11.56674,-2.28695 z"
     id="path113"
     inkscape:connector-curvature="0"
     transform="scale(0.74999999)" />
  <path
     style="fill:#800000;stroke-width:0.73940754"
     d="m 539.53011,178.92625 c -6.02081,-3.22627 -11.82963,-7.73163 -12.06387,-9.35682 -0.15169,-1.05248 2.72866,-6.34865 8.23157,-15.13559 8.87777,-14.17587 58.72969,-91.558609 60.62935,-94.112034 1.08314,-1.455902 1.13855,-1.457351 3.57639,-0.09347 6.06488,3.393078 13.93702,8.861836 13.93702,9.682017 0,0.494404 -6.92414,12.181307 -15.38698,25.970895 -42.18473,68.737012 -52.09964,84.100082 -54.48704,84.427222 -0.81335,0.11145 -2.80975,-0.51055 -4.43644,-1.38222 z"
     id="path115"
     inkscape:connector-curvature="0"
     transform="scale(0.74999999)" />
  <path
     style="fill:#800000;stroke-width:0.73940754"
     d="m 621.60435,65.998258 c -7.68039,-4.136823 -24.0501,-14.738259 -26.80353,-17.358636 -1.32169,-1.257823 -2.40307,-2.651506 -2.40307,-3.097075 0,-1.292236 7.08996,-12.343088 9.61585,-14.987844 l 2.30074,-2.409022 3.46915,1.958988 c 5.34547,3.018527 31.02948,20.10541 31.59382,21.018518 0.27531,0.445462 -1.08308,3.362853 -3.01863,6.48309 -1.93556,3.120237 -4.21707,6.918164 -5.07002,8.439838 -1.95956,3.495851 -3.11571,3.490137 -9.68431,-0.04785 z"
     id="path117"
     inkscape:connector-curvature="0"
     transform="scale(0.74999999)" />
  <path
     style="fill:#800000;stroke-width:0.73940754"
     d="m 576.91703,39.942528 c -4.24432,-2.024563 -7.84931,-3.813394 -8.0111,-3.975179 -0.46494,-0.464938 10.81457,-17.532536 13.32703,-20.165819 l 2.26512,-2.374044 3.76498,3.061162 c 5.67185,4.611559 10.04995,8.915406 10.04995,9.879491 0,1.157004 -6.54829,11.126385 -9.56522,14.562475 -1.33017,1.514987 -2.79995,2.740665 -3.26616,2.72373 -0.46621,-0.01693 -4.32029,-1.687252 -8.5646,-3.711816 z"
     id="path119"
     inkscape:connector-curvature="0"
     transform="scale(0.74999999)" />
  <path
     style="fill:#800000;stroke-width:0.73940754"
     d="m 637.18526,74.742437 -3.57076,-5.225985 4.23031,-6.356721 4.23032,-6.356722 4.78852,0.384377 c 3.58792,0.288004 5.23039,0.799482 6.55085,2.039991 2.19063,2.057994 6.51031,13.712703 5.9338,16.009703 -0.47228,1.881709 -3.1764,2.810289 -10.38587,3.566448 -2.44005,0.255922 -5.28469,0.622719 -6.32143,0.815104 -1.64842,0.305892 -2.33312,-0.306069 -5.45574,-4.876195 z"
     id="path121"
     inkscape:connector-curvature="0"
     transform="scale(0.74999999)" />
  <path
     style="fill:#800000;stroke-width:0.73940754"
     d="m 667.60776,179.92098 c -16.52879,-18.62463 -45.01976,-43.63895 -65.05803,-57.11924 -2.89078,-1.9447 -3.5918,-4.30271 -1.73685,-5.84218 1.16615,-0.96782 6.83785,2.5682 19.0427,11.87216 16.46066,12.54825 56.18299,49.94869 59.05177,55.60003 0.97682,1.92426 0.94677,2.19775 -0.34522,3.14248 -0.77834,0.56913 -1.82665,1.03479 -2.32958,1.03479 -0.50293,0 -4.38408,-3.90962 -8.62479,-8.68804 z"
     id="path123"
     inkscape:connector-curvature="0"
     transform="scale(0.74999999)" />
  <path
     style="fill:#800000;stroke-width:0.73940754"
     d="m 655.05215,192.54765 c -2.93968,-2.77626 -10.66982,-10.21007 -17.17811,-16.51958 -13.35479,-12.9469 -24.17404,-22.14661 -39.00648,-33.16758 -5.59177,-4.15487 -10.16685,-7.97507 -10.16685,-8.48935 0,-0.51427 0.42598,-1.5176 0.94662,-2.22962 0.87423,-1.19558 1.369,-1.01846 6.46981,2.31601 17.60634,11.50949 35.62849,26.89005 56.40778,48.13982 8.45403,8.64544 10.90285,11.58095 10.7214,12.85219 -0.44255,3.10068 -2.67567,2.30984 -8.19417,-2.90189 z"
     id="path125"
     inkscape:connector-curvature="0"
     transform="scale(0.74999999)" />
  <path
     style="fill:#800000;stroke-width:0.73940754"
     d="m 643.05622,235.80702 c -2.65494,-3.15521 -3.78421,-5.65768 -2.90966,-6.44776 6.82149,-6.16263 63.44464,-54.05958 63.90852,-54.05958 0.7189,0 12.56314,15.51978 12.56314,16.46177 0,0.32609 -3.74325,3.02387 -8.31834,5.99506 -41.43813,26.91113 -61.43328,39.79472 -62.24324,40.10553 -0.52852,0.20281 -1.87871,-0.72195 -3.00042,-2.05502 z"
     id="path127"
     inkscape:connector-curvature="0"
     transform="scale(0.74999999)" />
  <path
     style="fill:#800000;stroke-width:0.73940754"
     d="m 725.69823,190.34497 c -2.16051,-0.87553 -18.69231,-23.16568 -18.69231,-25.20321 0,-1.4081 7.25066,-8.95453 9.93955,-10.34501 2.45113,-1.26754 11.65246,-0.94394 15.61812,0.54926 3.04024,1.14475 7.63577,5.72336 9.26639,9.23226 2.01726,4.34092 1.86536,11.55438 -0.34317,16.29718 -3.13955,6.74214 -10.95368,11.42882 -15.78858,9.46952 z"
     id="path129"
     inkscape:connector-curvature="0"
     transform="scale(0.74999999)" />
  <path
     style="fill:#800000;stroke-width:0.73940754"
     d="m 723.12893,260.52815 c -1.05707,-1.12481 -3.66102,-5.20609 -5.78654,-9.06949 -2.12553,-3.8634 -7.1508,-12.71134 -11.16727,-19.66209 -4.01648,-6.95074 -7.30268,-13.31512 -7.30268,-14.14306 0,-2.61684 1.76945,-3.37758 3.47107,-1.49233 5.68351,6.29688 23.52771,38.98295 24.06929,44.08886 0.26852,2.53161 -1.06033,2.64415 -3.28387,0.27811 z"
     id="path131"
     inkscape:connector-curvature="0"
     transform="scale(0.74999999)" />
  <path
     style="fill:#800000;stroke-width:0.73940754"
     d="m 701.837,260.64593 c -2.15852,-4.30051 -6.73759,-12.36929 -10.1757,-17.93063 -8.22404,-13.30285 -9.59459,-16.1165 -8.61046,-17.67666 0.42316,-0.67086 1.13798,-1.34261 1.58849,-1.49278 1.54551,-0.51517 15.48279,21.92724 22.03649,35.48413 2.87527,5.94773 3.32006,7.39605 2.55463,8.31833 -2.05207,2.4726 -3.40298,1.24795 -7.39345,-6.70239 z"
     id="path133"
     inkscape:connector-curvature="0"
     transform="scale(0.74999999)" />
  <path
     style="fill:#800000;stroke-width:0.73940754"
     d="m 684.31107,318.77457 c -4.47905,-2.72388 -7.62086,-9.58995 -7.62086,-16.65456 v -4.00313 l 4.6213,-2.18406 c 4.57201,-2.16077 55.01782,-19.79642 57.84546,-20.22254 1.27729,-0.19249 1.53223,0.34927 1.98378,4.21557 0.69436,5.9453 2.25431,10.0602 5.76176,15.19862 l 2.92302,4.28222 -4.58829,1.59567 c -17.06265,5.93388 -54.52633,18.36083 -56.40732,18.71067 -1.52611,0.28385 -3.01861,-0.0261 -4.51885,-0.93846 z"
     id="path135"
     inkscape:connector-curvature="0"
     transform="scale(0.74999999)" />
  <path
     style="fill:#800000;stroke-width:0.73940754"
     d="m 766.16251,304.24343 c -5.62414,-2.03768 -10.44129,-5.99791 -16.45596,-13.52864 -1.52615,-1.91084 -2.77262,-8.45714 -2.77262,-14.56149 0,-5.56854 0.23045,-6.49865 2.96281,-11.95774 3.44664,-6.88616 7.06853,-10.49384 13.60691,-13.55352 5.72534,-2.67921 12.02173,-3.38455 19.22059,-2.15315 4.79754,0.82065 6.0179,1.37881 9.79983,4.48221 2.37593,1.94965 4.94045,4.6027 5.69895,5.89567 2.22065,3.78542 0.91294,4.42405 -10.62594,5.18929 -11.19416,0.74237 -11.88855,1.09242 -15.15,7.6373 -2.66398,5.34591 -2.41708,7.45744 1.60749,13.7479 l 3.45961,5.40739 9.29517,-0.49436 c 5.11235,-0.2719 10.42214,-0.69553 11.79953,-0.94139 l 2.50435,-0.44703 -2.11327,3.88278 c -2.42025,4.4468 -6.57704,8.13636 -11.82722,10.49786 -4.86192,2.18685 -16.12308,2.66759 -21.01023,0.89692 z"
     id="path137"
     inkscape:connector-curvature="0"
     transform="scale(0.74999999)" />
  <path
     style="fill:#800000;stroke-width:0.73940754"
     d="m 759.93246,406.9191 c -0.22575,-0.71168 -1.24878,-9.44593 -2.2734,-19.40945 -2.19475,-21.34185 -4.56009,-36.13692 -8.21573,-51.38882 -1.4621,-6.10012 -2.82954,-12.80338 -3.03877,-14.89614 -0.33925,-3.39334 -0.21191,-3.85851 1.17697,-4.29932 2.28892,-0.72648 2.6614,-0.24629 4.40075,5.67318 4.03169,13.72099 8.89585,41.63796 11.21032,64.33967 1.94798,19.10696 1.93835,20.24203 -0.17656,20.8088 -2.42727,0.65049 -2.63206,0.59551 -3.08358,-0.82792 z"
     id="path139"
     inkscape:connector-curvature="0"
     transform="scale(0.74999999)" />
  <path
     style="fill:#800000;stroke-width:0.73940754"
     d="m 741.34416,406.66271 c -0.27566,-0.44602 -0.95488,-6.35204 -1.50938,-13.12449 -1.68092,-20.5301 -4.44619,-37.46124 -10.21201,-62.52587 -1.02053,-4.43635 -1.68254,-8.34597 -1.47113,-8.68804 0.2114,-0.34206 1.35011,-0.62193 2.53046,-0.62193 2.42957,0 2.08553,-0.86914 5.85383,14.78815 4.90276,20.37092 9.61089,53.64671 9.65096,68.21035 0.007,2.57729 -0.14568,2.77278 -2.16696,2.77278 -1.19602,0 -2.40012,-0.36493 -2.67577,-0.81095 z"
     id="path141"
     inkscape:connector-curvature="0"
     transform="scale(0.74999999)" />
  <path
     style="fill:#800000;stroke-width:0.73940754"
     d="m 714.13517,440.19244 c -0.62158,-3.76058 -0.57294,-9.23729 0.0913,-10.28112 0.63938,-1.00475 4.05488,-1.30177 12.9283,-1.12427 l 6.46981,0.12942 v 7.02438 7.02437 h -9.51555 -9.51555 z"
     id="path143"
     inkscape:connector-curvature="0"
     transform="scale(0.74999999)" />
  <path
     style="fill:#800000;stroke-width:0.73940754"
     d="m 748.41274,432.24381 v -14.41845 h 4.43645 4.43644 v 14.41845 14.41845 h -4.43644 -4.43645 z"
     id="path145"
     inkscape:connector-curvature="0"
     transform="scale(0.74999999)" />
  <path
     style="fill:#800000;stroke-width:0.73940754"
     d="m 749.17817,472.59013 c -0.42099,-0.78661 -0.76543,-2.40954 -0.76543,-3.6065 0,-2.58456 -1.0609,-3.61647 -4.06674,-3.95561 l -2.21822,-0.25028 -0.21447,-5.64797 c -0.30127,-7.93384 -0.16377,-8.03107 11.3584,-8.03107 h 9.18978 v 5.11538 c 0,6.22711 -0.34258,7.21136 -2.98566,8.57816 -1.28912,0.66662 -2.24982,1.90105 -2.55269,3.28 -0.50392,2.29433 -4.16081,5.9481 -5.95319,5.9481 -0.5645,0 -1.3708,-0.6436 -1.79178,-1.43021 z"
     id="path147"
     inkscape:connector-curvature="0"
     transform="scale(0.74999999)" />
  <path
     style="fill:#800000;stroke-width:0.73940754"
     d="m 777.23134,472.12368 c -0.41213,-1.08396 -0.72111,-11.69762 -0.72111,-24.77015 v -22.8735 h 4.097 4.09701 l -0.21512,22.98652 -0.21511,22.98651 -2.0746,1.78364 c -2.66195,2.2886 -4.06713,2.25664 -4.96807,-0.11302 z"
     id="path149"
     inkscape:connector-curvature="0"
     transform="scale(0.74999999)" />
  <path
     style="fill:#800000;stroke-width:0.73940754"
     d="m 771.33438,420.05923 c -0.81436,-0.51479 -1.10911,-2.08372 -1.10911,-5.90364 0,-5.17708 0.0154,-5.21656 3.14248,-8.07503 2.02133,-1.84768 3.14248,-3.50379 3.14248,-4.64193 0,-2.10614 1.9076,-5.05609 3.26955,-5.05609 1.94657,0 4.70091,2.96593 5.19369,5.59267 0.34911,1.8609 1.14118,3.02944 2.63432,3.88638 2.61779,1.50241 3.69059,3.71473 3.69059,7.61073 0,3.89559 -0.9356,5.49782 -3.79177,6.49349 -2.85814,0.99635 -14.63623,1.06439 -16.17223,0.0934 z"
     id="path151"
     inkscape:connector-curvature="0"
     transform="scale(0.74999999)" />
  <path
     style="fill:#800000;stroke-width:0.55455565"
     d="m 539.32221,345.4023 v -10.81384 h 3.32733 3.32733 v 10.81384 10.81384 h -3.32733 -3.32733 z"
     id="path145-2"
     inkscape:connector-curvature="0" />
</svg>
