<?xml version="1.0" encoding="UTF-8" standalone="no"?>
<svg
   xmlns:dc="http://purl.org/dc/elements/1.1/"
   xmlns:cc="http://creativecommons.org/ns#"
   xmlns:rdf="http://www.w3.org/1999/02/22-rdf-syntax-ns#"
   xmlns:svg="http://www.w3.org/2000/svg"
   xmlns="http://www.w3.org/2000/svg"
   xmlns:sodipodi="http://sodipodi.sourceforge.net/DTD/sodipodi-0.dtd"
   xmlns:inkscape="http://www.inkscape.org/namespaces/inkscape"
   version="1.0"
   width="677.000000pt"
   height="493.000000pt"
   viewBox="0 0 677.000000 493.000000"
   preserveAspectRatio="xMidYMid meet"
   id="svg3891"
   sodipodi:docname="Logo_2-white.svg"
   inkscape:version="0.92.2 (5c3e80d, 2017-08-06)">
  <defs
     id="defs3895" />
  <sodipodi:namedview
     pagecolor="#ffffff"
     bordercolor="#666666"
     borderopacity="1"
     objecttolerance="10"
     gridtolerance="10"
     guidetolerance="10"
     inkscape:pageopacity="0"
     inkscape:pageshadow="2"
     inkscape:window-width="1858"
     inkscape:window-height="1058"
     id="namedview3893"
     showgrid="false"
     inkscape:zoom="0.70710678"
     inkscape:cx="147.43806"
     inkscape:cy="578.01299"
     inkscape:window-x="-8"
     inkscape:window-y="92"
     inkscape:window-maximized="1"
     inkscape:current-layer="svg3891" />
  <metadata
     id="metadata3799">
Created by potrace 1.14, written by Peter Selinger 2001-2017
<rdf:RDF>
  <cc:Work
     rdf:about="">
    <dc:format>image/svg+xml</dc:format>
    <dc:type
       rdf:resource="http://purl.org/dc/dcmitype/StillImage" />
    <dc:title />
  </cc:Work>
</rdf:RDF>
</metadata>
  <g
     transform="translate(0.000000,493.000000) scale(0.100000,-0.100000)"
     fill="#000000"
     stroke="none"
     id="g3889">
    <path
       d="M3298 4514 c-2 -11 -23 -22 -58 -31 -114 -29 -212 -109 -266 -217 -19 -40 -38 -92 -41 -116 -4 -30 -11 -44 -24 -47 -11 -3 -19 -14 -19 -24 0 -18 17 -19 485 -19 478 0 485 0 485 20 0 11 -6 20 -13 20 -8 0 -18 23 -25 58 -17 82 -53 149 -114 210 -51 51 -172 122 -209 122 -28 0 -49 11 -49 26 0 11 -17 14 -74 14 -61 0 -75 -3 -78 -16z"
       id="path3801" />
    <path
       d="M4627 4349 l-57 -89 60 -30 c33 -16 66 -30 75 -30 15 0 95 114 95 136 0 9 -49 53 -105 95 -6 5 -33 -28 -68 -82z"
       id="path3803" />
    <path
       d="M2114 4315 c-4 -9 -2 -26 4 -38 6 -12 18 -71 27 -132 9 -60 23 -135 30 -165 7 -30 16 -77 19 -105 l6 -50 -27 34 c-16 19 -44 53 -63 76 -19 22 -55 65 -80 94 -25 29 -66 75 -92 102 -25 27 -48 56 -50 66 -4 23 -36 29 -44 8 -5 -11 2 -24 18 -38 14 -12 45 -49 69 -82 24 -33 96 -123 160 -201 64 -77 123 -154 131 -170 8 -16 23 -78 32 -139 10 -60 22 -124 27 -141 5 -18 19 -78 29 -135 41 -223 45 -234 66 -234 16 0 19 6 16 45 -1 25 -6 54 -12 65 -5 11 -18 72 -29 135 -11 63 -27 147 -35 185 -8 39 -15 83 -16 98 0 27 3 25 52 -35 29 -34 57 -68 63 -74 5 -7 46 -56 90 -110 118 -144 150 -178 163 -170 7 4 12 13 12 21 0 8 -85 116 -188 242 -103 125 -198 242 -209 258 -14 19 -28 64 -37 120 -27 161 -76 375 -88 392 -5 6 -8 28 -6 49 2 30 -1 39 -15 42 -9 2 -20 -4 -23 -13z"
       id="path3805" />
    <path
       d="M4790 4261 c-22 -33 -40 -67 -40 -76 0 -8 26 -32 58 -52 31 -19 84 -53 117 -75 64 -41 107 -57 112 -42 2 6 19 34 38 63 19 29 35 58 35 65 0 12 -250 176 -269 176 -6 0 -28 -27 -51 -59z"
       id="path3807" />
    <path
       d="M5092 4060 l-33 -52 27 -39 27 -40 56 6 c102 12 104 15 73 98 -23 60 -28 65 -77 72 -39 6 -41 5 -73 -45z"
       id="path3809" />
    <path
       d="M4777 4077 c-2 -6 -120 -189 -261 -406 -141 -217 -256 -399 -256 -405 0 -18 13 -30 69 -66 40 -25 57 -31 69 -24 15 10 64 84 197 299 34 55 121 196 193 313 73 117 132 216 132 220 0 8 -117 82 -130 82 -4 0 -10 -6 -13 -13z"
       id="path3811" />
    <path
       d="M2890 4004 c0 -33 2 -35 28 -30 202 39 720 39 915 0 25 -5 27 -4 27 30 l0 36 -485 0 -485 0 0 -36z"
       id="path3813" />
    <path
       d="M2765 4015 c-5 -2 -53 -15 -105 -30 -129 -35 -320 -107 -320 -120 1 -35 17 -34 117 5 56 22 159 56 229 75 70 19 129 37 131 39 2 2 1 11 -3 20 -6 15 -25 19 -49 11z"
       id="path3815" />
    <path
       d="M3950 4002 c0 -14 26 -25 132 -55 73 -20 194 -62 270 -93 135 -53 162 -58 156 -27 -5 24 -220 110 -407 163 -123 35 -151 37 -151 12z"
       id="path3817" />
    <path
       d="M3021 3964 c-68 -7 -126 -16 -129 -18 -2 -3 11 -15 31 -26 45 -27 54 -57 22 -82 -30 -23 -48 -77 -39 -114 10 -42 42 -83 69 -90 19 -5 25 -16 35 -66 16 -83 50 -157 96 -207 54 -60 87 -75 41 -19 -46 56 -84 138 -105 227 -14 62 -19 71 -43 76 -71 16 -100 115 -50 169 30 31 38 32 67 5 l23 -21 7 37 c6 36 7 37 43 31 180 -30 407 -31 556 -2 39 8 71 13 73 11 2 -2 7 -25 11 -52 6 -39 8 -44 15 -25 12 36 42 46 66 22 54 -54 24 -159 -51 -175 -20 -5 -29 -11 -25 -21 7 -18 -29 -134 -60 -196 -13 -26 -39 -64 -56 -84 -27 -30 -29 -35 -10 -25 55 29 149 184 160 263 3 28 13 44 38 63 43 33 61 88 45 138 -7 19 -19 41 -27 47 -7 7 -14 27 -14 45 0 24 6 35 25 45 24 13 34 30 18 30 -5 0 -64 7 -133 15 -155 18 -526 18 -699 -1z"
       id="path3819" />
    <path
       d="M2730 3864 c-89 -24 -234 -74 -308 -105 -38 -17 -42 -21 -32 -39 10 -19 11 -19 63 1 94 38 220 80 312 103 76 19 90 26 93 44 4 28 -15 28 -128 -4z"
       id="path3821" />
    <path
       d="M3922 3868 c2 -17 14 -25 58 -35 98 -24 303 -94 379 -129 76 -35 91 -36 91 -4 0 14 -28 29 -128 69 -122 48 -356 121 -388 121 -10 0 -14 -8 -12 -22z"
       id="path3823" />
    <path
       d="M1926 3646 c-109 -73 -232 -168 -315 -243 -22 -20 -23 -23 -8 -38 15 -15 24 -10 109 62 103 87 201 159 296 218 35 21 65 42 67 46 7 10 -5 39 -15 39 -4 0 -65 -38 -134 -84z"
       id="path3825" />
    <path
       d="M4805 3643 c-4 -13 1 -23 17 -33 133 -87 366 -286 464 -398 37 -42 73 -83 79 -90 14 -16 45 -5 45 15 0 29 -310 326 -445 426 -71 54 -135 97 -141 97 -7 0 -15 -8 -19 -17z"
       id="path3827" />
    <path
       d="M2037 3556 c-93 -59 -285 -206 -330 -253 -24 -26 -26 -31 -13 -42 13 -11 20 -9 44 11 143 117 249 197 323 244 78 49 87 59 78 75 -5 11 -11 19 -13 19 -2 0 -42 -24 -89 -54z"
       id="path3829" />
    <path
       d="M4726 3533 c-8 -19 -19 -9 129 -118 75 -55 175 -143 267 -235 138 -138 148 -146 163 -130 15 17 7 27 -112 147 -70 71 -162 156 -203 189 -85 68 -219 164 -230 164 -5 0 -11 -8 -14 -17z"
       id="path3831" />
    <path
       d="M3405 3530 c-3 -5 -20 -6 -39 -3 -35 5 -74 -11 -156 -66 l-45 -31 42 0 c64 0 138 19 162 41 21 20 21 20 42 0 23 -22 98 -41 157 -41 l37 0 -25 21 c-67 53 -164 97 -175 79z"
       id="path3833" />
    <path
       d="M1156 3441 c-24 -25 -26 -32 -15 -43 17 -16 345 -313 377 -342 l22 -19 25 23 c33 31 32 42 -12 81 -37 32 -179 161 -296 269 -32 30 -62 56 -66 58 -4 1 -20 -11 -35 -27z"
       id="path3835" />
    <path
       d="M5651 3345 c-22 -20 -41 -45 -41 -54 0 -10 32 -59 72 -110 64 -83 74 -92 97 -86 73 18 114 76 108 153 -3 45 -9 59 -39 89 -30 30 -43 35 -95 40 -59 5 -61 5 -102 -32z"
       id="path3837" />
    <path
       d="M5560 3198 c-14 -13 -119 -104 -235 -202 -115 -99 -214 -183 -219 -187 -8 -7 31 -69 45 -69 3 0 87 53 185 118 99 65 218 142 266 172 48 30 87 57 87 60 1 8 -88 125 -97 128 -4 1 -18 -8 -32 -20z"
       id="path3839" />
    <path
       d="M1676 3100 c-96 -108 -98 -112 -80 -129 141 -132 273 -250 291 -259 12 -7 39 -12 60 -12 35 0 45 7 114 80 61 64 80 92 94 136 35 110 -10 215 -115 270 -26 14 -64 19 -150 22 l-115 4 -99 -112z m306 40 c74 -21 138 -127 124 -209 -8 -52 -49 -106 -98 -130 -87 -41 -184 -17 -234 59 -98 148 36 327 208 280z"
       id="path3841" />
    <path
       d="M1879 3101 c-68 -37 -89 -127 -44 -193 46 -68 145 -76 203 -17 105 108 -27 281 -159 210z"
       id="path3843" />
    <path
       d="M3101 3175 c-30 -7 -60 -11 -67 -8 -17 6 -174 -28 -174 -38 0 -4 -37 -19 -82 -34 -104 -34 -134 -51 -214 -122 -47 -42 -64 -63 -64 -82 0 -18 -62 -110 -190 -286 -104 -143 -186 -263 -181 -268 4 -4 97 -68 207 -141 l199 -133 80 74 80 74 6 -28 c88 -415 91 -435 86 -548 -5 -120 -24 -218 -41 -212 -6 2 -12 12 -14 23 -7 40 -9 42 -52 34 l-41 -7 -39 71 c-21 39 -43 78 -48 86 -8 12 -16 10 -51 -13 -24 -16 -44 -27 -45 -25 -1 2 -28 40 -59 84 -58 84 -157 252 -157 266 0 4 43 40 95 79 l96 71 -88 57 c-248 162 -254 165 -268 150 -8 -8 -75 -90 -149 -184 -92 -116 -135 -178 -136 -195 0 -64 90 -219 172 -296 54 -51 190 -155 289 -222 l77 -51 6 -74 7 -73 47 -13 c26 -6 64 -16 85 -22 20 -5 37 -16 37 -24 0 -7 13 -16 29 -20 21 -4 52 -32 103 -92 40 -47 83 -89 96 -94 44 -17 145 -10 172 11 14 11 33 20 43 20 11 0 32 14 48 31 24 26 33 29 61 24 31 -6 35 -4 50 27 15 32 14 35 -3 57 -11 13 -19 31 -19 40 0 9 -23 44 -51 78 -44 54 -67 71 -161 120 -77 40 -107 61 -103 71 3 7 14 64 25 125 17 94 20 154 20 414 0 203 -3 303 -10 303 -6 0 -28 -9 -50 -20 -55 -28 -59 -25 -21 14 l32 33 -53 9 -53 8 58 6 c31 3 57 10 57 15 0 6 -10 21 -22 35 -12 14 -46 54 -77 90 -63 74 -39 58 67 -44 l72 -70 0 142 0 142 30 0 30 0 2 252 3 252 60 13 c33 7 63 12 68 13 4 0 7 -119 7 -265 l0 -265 375 0 375 0 0 265 c0 146 3 265 8 265 4 -1 34 -6 67 -13 l60 -13 3 -252 2 -252 25 0 25 0 0 -115 c0 -63 2 -115 5 -115 5 0 154 69 210 97 39 20 29 11 -80 -77 -49 -40 -94 -76 -99 -81 -5 -4 13 -1 40 7 68 20 77 12 15 -14 l-53 -22 36 -37 c40 -43 40 -51 -1 -30 -15 8 -38 18 -50 21 l-23 7 0 -319 c0 -283 2 -332 21 -423 11 -57 22 -106 25 -110 2 -4 -45 -32 -105 -63 -97 -50 -115 -63 -160 -121 -28 -35 -51 -73 -51 -83 0 -11 -9 -27 -19 -36 -19 -17 -19 -20 -3 -53 15 -32 19 -34 50 -28 28 5 37 2 61 -24 16 -17 37 -31 48 -31 10 0 29 -9 43 -20 27 -21 128 -28 172 -11 13 5 57 47 97 94 50 59 83 88 102 92 16 4 29 13 29 20 0 8 17 19 38 24 20 6 58 16 83 22 45 12 47 14 53 57 3 25 6 58 6 74 0 24 9 34 58 65 103 66 299 221 350 279 59 65 121 183 128 240 5 38 1 43 -126 194 -72 85 -139 163 -149 173 -18 18 -24 16 -190 -81 l-171 -99 95 -72 c52 -39 95 -75 95 -79 0 -19 -158 -276 -216 -350 -1 -2 -21 9 -45 25 -35 23 -43 25 -51 13 -5 -8 -27 -47 -48 -86 l-39 -71 -41 7 c-43 8 -45 6 -52 -34 -6 -36 -25 -27 -37 16 -7 24 -15 102 -18 174 -5 125 -4 139 36 335 23 112 45 212 49 222 6 14 20 5 88 -57 l81 -75 94 58 c52 32 148 91 214 131 66 41 121 75 123 76 2 1 -87 123 -197 271 -138 184 -200 276 -201 294 0 20 -18 42 -72 89 -73 63 -108 82 -208 115 -30 9 -60 23 -66 30 -11 15 -140 44 -194 44 -19 0 -59 5 -89 10 -29 6 -57 11 -60 11 -4 0 -47 -36 -96 -80 -50 -44 -98 -80 -108 -80 -10 0 -39 20 -65 44 -81 76 -133 116 -150 115 -10 0 -41 -7 -71 -14z m-825 -1005 c60 -40 110 -75 111 -78 1 -4 -28 -29 -65 -57 -37 -27 -77 -58 -89 -69 l-23 -19 32 -56 c17 -31 68 -113 114 -184 l84 -127 -61 -38 -61 -37 4 -62 c2 -35 2 -63 0 -63 -25 0 -319 225 -383 294 -44 47 -129 205 -129 241 0 16 47 83 141 199 l140 175 38 -23 c21 -14 87 -57 147 -96z m2551 -62 c70 -84 131 -156 136 -159 31 -22 -46 -194 -125 -280 -53 -58 -355 -289 -378 -289 -4 0 -6 28 -3 63 l5 62 -61 37 -61 38 84 127 c46 71 97 153 114 184 l32 56 -23 19 c-12 11 -52 42 -89 69 -37 28 -68 52 -68 55 0 7 283 169 297 169 7 1 70 -68 140 -151z"
       id="path3845" />
    <path
       d="M1283 3043 c-58 -77 -193 -283 -193 -295 0 -4 8 -12 18 -17 15 -8 26 4 74 82 31 51 86 132 123 180 53 71 64 91 54 103 -6 8 -15 14 -18 14 -4 0 -30 -30 -58 -67z"
       id="path3847" />
    <path
       d="M1378 2941 c-31 -42 -82 -116 -113 -166 -49 -78 -54 -90 -38 -96 20 -7 43 -1 43 11 0 11 129 205 169 254 36 45 37 52 14 64 -15 8 -28 -4 -75 -67z"
       id="path3849" />
    <path
       d="M5555 2917 c-17 -13 -13 -21 48 -125 36 -61 80 -138 97 -171 27 -55 51 -74 64 -53 7 11 -73 172 -136 274 -50 80 -56 87 -73 75z"
       id="path3851" />
    <path
       d="M317 2884 c-19 -19 0 -48 73 -114 61 -55 84 -70 92 -62 21 21 56 13 165 -39 60 -28 149 -69 198 -91 169 -76 255 -122 260 -139 3 -9 110 -117 237 -240 127 -123 243 -237 258 -253 30 -31 50 -28 50 7 0 13 -25 97 -55 187 l-55 164 20 21 c11 12 82 50 158 85 75 35 147 70 160 78 23 15 29 37 13 47 -9 5 -190 13 -666 29 l-120 4 -275 109 c-251 100 -276 112 -290 140 -14 29 -21 32 -102 47 -48 9 -93 19 -100 21 -8 3 -17 2 -21 -1z"
       id="path3853" />
    <path
       d="M5430 2845 c-10 -12 -1 -33 54 -118 36 -57 77 -129 91 -160 26 -59 30 -63 55 -47 12 7 8 21 -26 87 -45 89 -146 253 -155 253 -4 0 -12 -7 -19 -15z"
       id="path3855" />
    <path
       d="M6047 2659 c-26 -11 -59 -30 -72 -43 -32 -32 -66 -101 -68 -139 -2 -46 13 -127 24 -127 5 0 9 -5 9 -10 0 -15 55 -67 88 -83 97 -50 233 -13 278 75 l16 31 -89 -7 -89 -6 -27 41 c-15 22 -27 47 -27 55 0 26 40 94 55 95 8 1 24 3 35 4 11 1 43 3 70 4 70 1 76 22 21 73 -24 21 -46 38 -49 39 -4 0 -16 3 -27 5 -52 13 -104 10 -148 -7z"
       id="path3857" />
    <path
       d="M5640 2394 c-255 -88 -260 -90 -260 -121 0 -53 25 -116 53 -133 33 -20 13 -26 309 76 l197 67 -23 31 c-28 37 -46 88 -46 127 0 16 -3 29 -7 28 -5 0 -105 -34 -223 -75z"
       id="path3859" />
    <path
       d="M2970 2305 l0 -125 420 0 420 0 0 125 0 125 -420 0 -420 0 0 -125z m800 0 l0 -85 -380 0 -380 0 0 85 0 85 380 0 380 0 0 -85z"
       id="path3861" />
    <path
       d="M897 2348 c-63 -169 -109 -352 -136 -543 -26 -178 -27 -175 4 -175 21 0 25 5 25 31 0 112 62 407 124 591 34 102 40 128 28 133 -25 9 -29 6 -45 -37z"
       id="path3863" />
    <path
       d="M1025 2297 c-50 -119 -114 -384 -135 -557 -13 -113 -14 -112 12 -108 20 3 23 12 35 103 20 164 57 327 112 492 28 81 28 84 10 94 -17 9 -22 5 -34 -24z"
       id="path3865" />
    <path
       d="M3000 2005 c0 -152 1 -156 25 -180 l24 -25 340 0 340 0 28 24 28 24 3 156 3 156 -395 0 -396 0 0 -155z m750 -9 c0 -142 -4 -151 -73 -161 -23 -4 -168 -5 -323 -3 -220 2 -285 6 -297 17 -14 11 -17 35 -17 142 l0 129 355 0 355 0 0 -124z"
       id="path3867" />
    <path
       d="M5910 2154 c-14 -4 -12 -19 11 -112 37 -148 57 -273 71 -440 10 -114 15 -142 26 -137 7 3 18 5 24 5 6 0 8 21 4 58 -3 31 -8 86 -11 122 -17 188 -83 512 -103 509 -4 -1 -14 -3 -22 -5z"
       id="path3869" />
    <path
       d="M5768 2115 c-3 -3 5 -47 18 -98 34 -134 63 -312 70 -437 7 -108 7 -110 31 -110 l25 0 -7 88 c-11 166 -39 342 -76 479 -10 40 -19 75 -19 78 0 7 -35 7 -42 0z"
       id="path3871" />
    <path
       d="M679 1575 c-75 -15 -115 -33 -144 -65 -17 -19 -20 -39 -23 -165 -5 -168 0 -181 81 -215 93 -40 192 -51 432 -48 l220 3 0 120 -1 120 -29 3 c-17 2 -100 -1 -185 -7 -169 -13 -317 -3 -403 25 -49 16 -107 58 -107 76 0 6 8 3 19 -6 76 -69 376 -92 521 -41 29 10 46 12 48 5 2 -5 17 -10 34 -10 l30 0 -4 60 c-6 90 -38 117 -170 144 -91 19 -227 19 -319 1z m281 -46 c78 -12 150 -42 150 -62 0 -8 -24 -25 -52 -38 -49 -22 -66 -24 -218 -24 -152 0 -169 2 -217 24 -29 13 -53 30 -53 38 0 8 20 23 44 33 82 37 225 49 346 29z"
       id="path3873" />
    <path
       d="M6142 1548 c-7 -7 -12 -21 -12 -33 0 -11 -10 -24 -22 -30 -24 -11 -34 -49 -24 -91 6 -22 11 -24 70 -24 78 0 99 15 94 69 -2 26 -9 39 -25 46 -14 6 -23 19 -23 32 0 12 -9 27 -19 33 -24 13 -24 13 -39 -2z"
       id="path3875" />
    <path
       d="M5920 1290 l0 -110 35 0 35 0 0 110 0 110 -35 0 -35 0 0 -110z"
       id="path3877" />
    <path
       d="M6130 1165 c0 -158 2 -187 15 -192 9 -3 25 3 35 12 18 17 20 32 20 192 l0 173 -35 0 -35 0 0 -185z"
       id="path3879" />
    <path
       d="M5664 1307 c-3 -8 -4 -34 -2 -58 l3 -44 75 0 75 0 0 55 0 55 -73 3 c-55 2 -74 0 -78 -11z"
       id="path3881" />
    <path
       d="M3020 1288 c0 -2 20 -30 45 -63 25 -33 45 -66 45 -73 0 -8 9 -25 20 -39 12 -15 18 -34 15 -44 -5 -15 1 -18 32 -21 31 -2 39 -7 41 -25 3 -23 5 -23 168 -23 l164 0 0 25 c0 22 5 25 33 25 34 0 52 9 53 25 1 24 50 114 86 159 21 27 37 50 36 52 -2 1 -37 -5 -78 -14 -54 -11 -137 -16 -295 -16 -206 -1 -246 3 -347 31 -10 2 -18 3 -18 1z m510 -178 l0 -90 -145 0 -145 0 0 90 0 90 145 0 145 0 0 -90z"
       id="path3883" />
    <path
       d="M3288 1114 c-1 -31 -1 -58 1 -60 2 -2 49 -4 103 -4 l98 0 0 60 0 60 -99 0 -99 0 -4 -56z"
       id="path3885" />
    <path
       d="M5877 1143 c-4 -3 -7 -28 -7 -55 0 -45 2 -48 25 -48 21 0 25 -5 25 -30 0 -18 6 -33 15 -37 19 -7 55 24 55 47 0 10 9 20 20 23 17 4 20 14 20 56 l0 51 -73 0 c-41 0 -77 -3 -80 -7z"
       id="path3887" />
  </g>
  <path
     style="fill:#000000;stroke-width:1.39265537"
     d="m 305.22979,470.09166 c -4.47444,-2.47005 -24.1329,-17.47113 -36.20904,-27.63059 -11.08137,-9.32258 -18.4126,-19.40476 -24.97006,-34.33974 l -2.5883,-5.89502 3.89117,-5.94255 c 8.36915,-12.78126 33.3409,-42.90745 35.02919,-42.25959 2.6636,1.02212 34.96576,22.82499 35.78831,24.1559 0.39539,0.63976 -4.25475,5.04943 -10.33365,9.79928 -6.07889,4.74985 -11.05114,9.41782 -11.04944,10.37327 0.003,1.43201 17.46564,30.24708 26.95512,44.47744 l 2.49796,3.74592 -5.78182,3.6499 c -3.18001,2.00745 -6.64572,3.98142 -7.7016,4.38659 -1.25606,0.482 -2.06199,3.55088 -2.33115,8.87674 -0.38791,7.67567 -0.57028,8.05233 -3.19669,6.60245 z"
     id="path3901"
     inkscape:connector-curvature="0"
     transform="scale(0.75)" />
  <path
     style="fill:#000000;stroke-width:1.39265537"
     d="m 498.11256,491.86989 c 0,-0.76822 0.74159,-2.13835 1.64797,-3.04473 2.88204,-2.88205 0.15102,-3.44375 -8.99756,-1.85059 -13.18833,2.29665 -69.34134,1.97435 -79.67988,-0.45734 -8.74096,-2.05592 -10.67435,-1.83266 -7.92642,0.91527 3.75011,3.7501 1.29226,3.85243 -2.95529,0.12297 -2.5318,-2.22294 -10.05213,-7.1002 -16.71186,-10.83835 -7.19933,-4.04104 -12.10783,-7.68373 -12.1067,-8.98461 0.001,-1.20334 0.98815,-7.51482 2.19355,-14.02549 2.51908,-13.60617 4.32309,-71.36517 2.75247,-88.12601 l -1.00201,-10.69293 -4.92834,2.05919 c -6.61799,2.76517 -6.99465,2.62152 -3.33645,-1.27245 l 3.12991,-3.33163 -3.93165,-1.43272 -3.93164,-1.4327 3.74761,-0.10995 c 4.80778,-0.14105 6.1801,-2.40491 3.35209,-5.52982 -3.85485,-4.25957 -2.41695,-4.73761 2.30072,-0.76489 l 4.52613,3.81142 0.38689,-18.91807 0.38689,-18.91806 3.79108,-0.43693 3.79108,-0.43693 0.3724,-33.54343 0.37241,-33.54342 7.63964,-1.38474 c 4.2018,-0.7616 7.95106,-1.07331 8.33169,-0.69268 0.38063,0.38062 0.69205,16.25497 0.69205,35.27632 v 34.58428 h 50.83192 50.83192 v -35.66171 c 0,-29.65036 0.32212,-35.53811 1.91093,-34.92842 1.05101,0.40331 4.81118,1.16821 8.35594,1.69978 l 6.445,0.96649 v 33.96193 33.96193 h 3.48163 3.48164 v 15.31921 c 0,8.42556 0.27863,15.3192 0.61918,15.3192 0.34054,0 5.45035,-2.20163 11.35511,-4.89252 5.90477,-2.69089 11.00084,-4.62765 11.32457,-4.3039 0.32375,0.32374 -3.53266,3.89123 -8.5698,7.92774 -9.01925,7.22758 -10.84664,9.60394 -7.41762,9.64594 1.16958,0.0143 1.06335,0.4497 -0.32371,1.32674 -1.72399,1.09011 -1.39389,2.0054 2.00139,5.5493 4.67392,4.87853 4.54206,4.96355 -3.36907,2.17233 l -5.87139,-2.07154 0.65699,46.98468 c 0.50812,36.33666 1.15673,49.03617 2.86206,56.03694 1.21278,4.97874 2.22708,9.71743 2.25399,10.53041 0.0269,0.81299 -5.43466,4.49574 -12.13681,8.1839 -6.70215,3.68815 -14.53584,8.9471 -17.40819,11.68654 -2.87235,2.73945 -5.22246,4.35227 -5.22246,3.58405 z m 3.76811,-77.50538 c 2.51717,-2.75693 2.97715,-5.68557 3.82781,-24.37147 l 0.96685,-21.23799 h -53.81868 -53.81869 l 0.4462,21.44427 c 0.3902,18.75289 0.77916,21.81166 3.09919,24.37147 2.59572,2.86401 3.66528,2.92719 49.54467,2.92719 46.85228,0 46.89408,-0.003 49.75265,-3.13347 z m 7.37313,-64.41031 v -17.40819 h -57.09887 -57.09887 v 17.40819 17.40819 h 57.09887 57.09887 z"
     id="path3903"
     inkscape:connector-curvature="0"
     transform="scale(0.75)" />
  <path
     style="fill:#000000;stroke-width:1.39265537"
     d="m 410.37527,410.91227 c -3.67683,-1.39964 -4.1349,-3.55148 -4.15664,-19.52657 l -0.0213,-15.66738 h 46.77379 46.7738 l -0.46801,16.1305 c -0.40741,14.04212 -0.81799,16.38606 -3.17133,18.10452 -2.19473,1.60264 -10.31695,1.95334 -43.17231,1.86408 -22.25795,-0.0605 -41.40904,-0.46779 -42.55798,-0.90515 z"
     id="path3905"
     inkscape:connector-curvature="0"
     transform="scale(0.75)" />
  <path
     style="fill:#000000;stroke-width:1.39265537"
     d="m 402.01934,349.9542 v -10.44492 h 50.13559 50.1356 v 10.44492 10.44491 h -50.1356 -50.13559 z"
     id="path3907"
     inkscape:connector-curvature="0"
     transform="scale(0.75)" />
  <path
     style="fill:#000000;stroke-width:1.39265537"
     d="m 594.95249,464.23097 0.94713,-7.58057 -7.8102,-4.99612 c -4.29561,-2.74787 -7.81019,-5.3246 -7.81019,-5.72607 0,-0.40147 2.63407,-4.60879 5.85348,-9.34959 7.81558,-11.50895 23.39228,-37.25763 23.39228,-38.66803 0,-0.61862 -5.01356,-5.00321 -11.14124,-9.74354 -6.12769,-4.74033 -11.1406,-9.0105 -11.13982,-9.48926 0.002,-0.90723 30.88772,-18.8747 35.18086,-20.46579 3.2895,-1.21913 4.44779,-0.13414 23.68203,22.18332 l 16.63354,19.29988 -2.77629,8.1309 c -4.64426,13.60159 -13.89306,25.87009 -28.38408,37.6514 -15.24327,12.39288 -34.45484,26.33404 -36.28954,26.33404 -0.74363,0 -0.88602,-3.19401 -0.33796,-7.58057 z"
     id="path3909"
     inkscape:connector-curvature="0"
     transform="scale(0.75)" />
  <path
     style="fill:#ffffff;stroke-width:1.39265537"
     d="M 432.65776,509.41324 V 498.272 h 18.80084 18.80085 v 11.14124 11.14124 H 451.4586 432.65776 Z m 33.42373,0 v -8.35593 h -13.92656 -13.92655 v 8.35593 8.35593 h 13.92655 13.92656 z"
     id="path3911"
     inkscape:connector-curvature="0"
     transform="scale(0.75)" />
  <path
     style="fill:#ffffff;stroke-width:1.39265537"
     d="m 366.50663,531.84473 c -1.53192,-0.67889 -7.91803,-6.6304 -14.19136,-13.22558 -6.27332,-6.59517 -12.24432,-11.99122 -13.26888,-11.99122 -1.02457,0 -2.86125,-1.16606 -4.08152,-2.59123 -1.22028,-1.42518 -6.61829,-3.66941 -11.99558,-4.98718 -10.78679,-2.64345 -11.47255,-3.62765 -11.47255,-16.46545 0,-3.6917 -0.82796,-6.21968 -2.43715,-7.44123 -1.4884,-1.12986 -1.75947,-1.8673 -0.69632,-1.89435 1.19019,-0.0303 1.74081,-2.63354 1.74081,-8.23023 v -8.18595 l 7.65961,-4.6422 c 4.21278,-2.55322 7.6596,-5.48682 7.6596,-6.51913 0,-1.03231 0.64732,-1.47686 1.43849,-0.98789 0.79117,0.48897 3.70342,-0.4473 6.47167,-2.08061 2.76824,-1.6333 5.53499,-2.4664 6.14832,-1.85133 0.61332,0.61507 3.50513,5.49236 6.42624,10.83844 l 5.3111,9.72013 5.7284,-0.4136 c 5.14158,-0.37123 5.82033,-0.0473 6.6258,3.16193 1.01043,4.02586 4.93364,4.88687 5.18707,1.13838 0.0906,-1.34043 0.56604,-0.56149 1.05647,1.73098 0.744,3.47779 2.96561,5.34016 13.41361,11.24461 14.95421,8.45103 22.17066,15.34343 28.29236,27.02192 4.30095,8.20499 4.4316,8.87314 2.35496,12.04249 -1.60766,2.45362 -3.29551,3.27195 -6.27956,3.04457 -2.53631,-0.19326 -5.28687,0.79075 -7.26706,2.59978 -7.53654,6.88513 -26.92251,12.02267 -33.82453,8.96395 z"
     id="path3913"
     inkscape:connector-curvature="0"
     transform="scale(0.75)" />
  <path
     style="fill:#ffffff;stroke-width:1.39265537"
     d="m 429.87245,487.13003 c -10.34047,-0.50066 -20.59153,-1.41682 -22.78013,-2.03592 -2.69398,-0.76206 -4.317,-0.57922 -5.02484,0.5661 -0.75794,1.22637 -2.72809,0.54661 -7.16196,-2.47106 -3.36402,-2.28954 -9.8029,-6.45813 -14.30862,-9.26356 l -8.19221,-5.10073 0.91553,-7.90708 c 0.50354,-4.3489 1.18295,-12.6073 1.5098,-18.352 l 0.59427,-10.44491 -1.3208,10.43124 c -1.99567,15.76118 -2.33459,14.94518 -2.30805,-5.55695 0.0218,-16.81326 -0.59552,-21.7409 -5.83905,-46.61124 -3.22487,-15.29573 -6.08926,-28.03626 -6.36531,-28.31231 -0.27604,-0.27604 -5.21256,3.97278 -10.97005,9.44183 l -10.46815,9.94372 -25.48858,-17.14414 c -14.01872,-9.42927 -26.07172,-17.55736 -26.78445,-18.06242 -1.62441,-1.1511 2.86849,-8.15789 24.87318,-38.79031 9.62185,-13.39445 19.16961,-27.73315 21.21725,-31.86378 6.78436,-13.68586 19.94159,-24.07147 38.1979,-30.15138 6.01279,-2.00244 11.2892,-4.21821 11.72536,-4.92392 2.30389,-3.72778 2.68367,1.64254 2.32204,32.83587 l -0.39557,34.12113 h -4.13056 -4.13056 v 18.22079 18.22079 l -10.70594,-9.86486 c -5.88827,-5.42567 -11.29191,-9.86485 -12.00809,-9.86485 -1.4541,0 -0.69911,1.04691 10.02254,13.89784 7.37567,8.84046 7.46071,9.04252 4.19117,9.95794 -1.83549,0.5139 -5.21734,1.00644 -7.51522,1.09452 -3.23399,0.12396 -3.70598,0.46517 -2.08898,1.51015 1.14894,0.7425 3.81239,1.3596 5.91878,1.37133 4.62083,0.0257 4.76362,0.93679 0.80689,5.14853 -4.05091,4.312 -2.60845,5.26939 3.52933,2.34249 2.76608,-1.31905 5.50712,-1.92159 6.09121,-1.33898 0.58409,0.58261 1.40507,17.14567 1.8244,36.8068 l 0.76242,35.74751 0.26075,-36.20904 c 0.14341,-19.91497 -0.27812,-37.05947 -0.93672,-38.09889 -0.74977,-1.1833 -2.30052,-1.53975 -4.14788,-0.95342 -2.36486,0.75057 -2.77368,0.47586 -2.05992,-1.38418 0.50833,-1.32467 0.0563,-2.84882 -1.05325,-3.55138 -1.55583,-0.98515 -1.45737,-1.23503 0.49339,-1.2521 1.56054,-0.0137 2.43715,-1.1008 2.43715,-3.02248 0,-2.8982 0.0942,-2.91594 2.74485,-0.51711 2.7173,2.45913 2.74874,2.29016 3.13347,-16.84418 l 0.38863,-19.32824 3.8298,-0.44066 3.8298,-0.44067 v -33.23738 c 0,-36.93311 -0.92962,-33.60019 9.87781,-35.41448 l 5.00352,-0.83997 0.91063,21.95636 c 0.50085,12.07599 0.91272,27.75328 0.91527,34.83841 l 0.005,12.88207 h 50.6165 50.61651 l 0.80876,-34.24919 c 0.44482,-18.83705 1.09145,-34.53186 1.43692,-34.87735 0.34549,-0.34549 3.68199,-0.11649 7.41443,0.50887 l 6.78626,1.13704 0.37292,33.74031 0.37293,33.74032 h 3.45688 3.45687 v 15.31921 c 0,8.98462 0.55946,15.3192 1.35295,15.3192 0.74411,0 4.89562,-1.56673 9.22555,-3.48163 4.32993,-1.91491 8.25388,-3.48164 8.71988,-3.48164 0.46601,0 -2.41586,2.85451 -6.40414,6.34337 -5.98775,5.23793 -7.17226,7.02322 -6.79719,10.24458 0.24981,2.14566 0.92196,4.65802 1.49363,5.58302 0.7708,1.24716 -0.18775,1.45159 -3.70889,0.79102 l -4.74831,-0.89078 0.50066,40.14448 c 0.27537,22.07947 0.69833,41.39787 0.93993,42.92979 0.24161,1.53192 0.52463,-15.85887 0.62894,-38.64619 0.10431,-22.78732 0.7398,-41.4315 1.41223,-41.4315 0.67242,0 3.56028,0.97676 6.41747,2.17057 6.95805,2.90726 7.73602,1.54653 2.31405,-4.04751 l -4.47838,-4.62052 5.61807,-2.5334 c 6.76545,-3.05079 7.40433,-5.49068 1.09194,-4.17014 -3.94015,0.82428 -4.25569,0.69165 -2.43714,-1.02446 1.85856,-1.75389 19.30805,-16.36761 20.77378,-17.39777 0.31914,-0.22431 0.26243,-0.72568 -0.12604,-1.11415 -0.38848,-0.38847 -7.2299,2.37494 -15.20316,6.14091 l -14.49684,6.84722 -0.39378,-15.19317 c -0.39181,-15.11743 -0.4109,-15.19317 -3.8298,-15.19317 h -3.43603 v -33.42373 c 0,-30.40882 0.65233,-36.60898 3.38628,-32.18535 0.42096,0.68111 2.48453,1.66986 4.58571,2.19722 14.16825,3.55601 37.71986,19.74129 40.20074,27.62701 1.33774,4.25213 9.07461,15.52914 31.52434,45.94884 10.62627,14.39874 19.63281,26.99344 20.01455,27.98823 0.44892,1.1699 -9.1622,7.83194 -27.21272,18.86274 l -27.90678,17.05404 -8.71767,-7.91073 c -11.67251,-10.59206 -13.30198,-11.40284 -14.82119,-7.37462 -0.6616,1.75423 -3.54559,14.78337 -6.40888,28.95364 -4.90366,24.26809 -5.1643,26.85583 -4.48857,44.56497 0.75257,19.72242 0.50604,20.91132 -1.73272,8.35593 l -1.36578,-7.6596 0.68818,9.74859 c 0.3785,5.36172 1.04768,11.73433 1.48706,14.16137 0.72966,4.0303 0.27363,4.74171 -5.26132,8.208 -3.33311,2.08737 -10.12007,6.4875 -15.08213,9.77806 -4.96206,3.29055 -9.38105,5.40172 -9.81999,4.6915 -0.48979,-0.7925 -10.18471,-0.77037 -25.09814,0.0572 -13.36503,0.74174 -24.92676,1.25187 -25.69272,1.13365 -0.76596,-0.11824 -9.85304,-0.62459 -20.1935,-1.12524 z m 71.11697,-71.07369 c 1.48157,-0.79291 2.69376,-2.11839 2.69376,-2.94548 0,-0.87508 -1.43519,-0.56346 -3.43264,0.74532 -2.98179,1.95374 -9.37042,2.24915 -48.64186,2.24915 h -45.20922 l -2.88639,-3.66945 c -2.60486,-3.31154 -2.88639,-5.5528 -2.88639,-22.97882 V 370.1477 h 52.41188 52.41189 l -0.78815,20.54167 c -0.51408,13.39885 -0.37251,18.12037 0.40717,13.57839 0.65742,-3.8298 1.39781,-13.38751 1.64533,-21.23936 l 0.45002,-14.27607 -54.4343,0.001 -54.4343,10e-4 0.52517,18.45268 c 0.64923,22.8122 1.28273,27.05928 4.29844,28.8174 3.2898,1.91789 94.29007,1.94691 97.86959,0.0312 z m -4.07786,-5.39678 c 3.06553,-2.48233 3.31881,-3.78783 3.78261,-19.49718 l 0.49706,-16.83671 h -48.19328 -48.1933 v 16.44568 c 0,17.18438 0.91058,20.31896 6.26695,21.57331 1.53192,0.35875 20.73336,0.72496 42.66987,0.81381 37.32134,0.15117 40.09571,-0.01 43.17009,-2.49891 z M 509.2538,349.9542 v -17.40819 h -57.09887 -57.09887 v 17.40819 17.40819 h 57.09887 57.09887 z"
     id="path3915"
     inkscape:connector-curvature="0"
     transform="scale(0.75)" />
  <path
     style="fill:#ffffff;stroke-width:1.39265537"
     d="m 396.44872,349.9542 v -16.01554 h 55.70621 55.70622 v 16.01554 16.01554 h -55.70622 -55.70621 z m 107.23446,0 v -11.83757 h -51.52825 -51.52825 v 11.83757 11.83757 h 51.52825 51.52825 z"
     id="path3921"
     inkscape:connector-curvature="0"
     transform="scale(0.75)" />
  <path
     style="fill:#ffffff;stroke-width:1.39265537"
     d="m 403.41199,275.62122 c 0,-17.52135 -0.37094,-33.71171 -0.82431,-35.97858 -0.7816,-3.908 -0.57491,-4.13096 3.98879,-4.30253 2.64721,-0.0995 7.52169,-0.78952 10.83217,-1.53333 6.83305,-1.53528 8.72887,-0.55656 21.768,11.2378 11.30315,10.22411 11.70637,10.31535 19.49296,4.41099 3.69356,-2.80072 9.72453,-7.78012 13.40216,-11.06534 3.67764,-3.28522 7.43781,-5.68778 8.35594,-5.33902 0.91813,0.34875 6.23026,1.10011 11.80474,1.66967 5.57448,0.56957 10.11802,1.5056 10.09675,2.08007 -0.0213,0.57447 -0.0387,16.71187 -0.0387,35.86088 v 34.81638 h -49.43927 -49.43927 z"
     id="path3923"
     inkscape:connector-curvature="0"
     transform="scale(0.75)" />
  <path
     style="fill:#000000;stroke-width:1.39265537"
     d="m 521.7877,531.884 c -6.29993,-1.85734 -14.53339,-6.02192 -18.49378,-9.35437 -2.84119,-2.39071 -4.94997,-3.06592 -7.79695,-2.49652 -3.37437,0.67487 -4.14588,0.19278 -5.7014,-3.56258 -1.49569,-3.61091 -1.4725,-4.74792 0.13754,-6.74467 1.06507,-1.32088 3.04682,-4.59504 4.40389,-7.2759 4.78134,-9.44545 11.5602,-15.73232 25.41108,-23.56679 10.10409,-5.71517 14.01109,-8.70233 14.72149,-11.25557 0.53187,-1.91161 1.02951,-2.69229 1.10586,-1.73484 0.25621,3.21287 4.00483,1.78069 4.92391,-1.88121 0.82141,-3.27274 1.44712,-3.57071 6.48853,-3.08994 l 5.57947,0.53209 5.57921,-10.10704 c 3.06857,-5.55888 6.17454,-10.47498 6.90217,-10.92468 0.72763,-0.4497 3.22101,0.53389 5.54085,2.18577 2.31985,1.65187 5.1357,2.65121 6.25745,2.22075 1.19039,-0.45679 2.03955,0.0263 2.03955,1.16042 0,1.06869 3.52261,3.9585 7.82801,6.4218 l 7.82801,4.47873 -0.88129,7.4984 c -0.71155,6.05421 -0.46418,7.65846 1.28437,8.32945 1.87338,0.71888 1.90057,1.13675 0.20147,3.09612 -1.0803,1.24579 -2.38364,6.0168 -2.89631,10.60225 -0.51267,4.58545 -1.37925,8.7572 -1.92573,9.27056 -0.54649,0.51335 -5.47295,2.25262 -10.94769,3.86503 -5.47474,1.61242 -10.31196,3.86429 -10.74937,5.00417 -0.43741,1.13987 -1.8069,2.0725 -3.04331,2.0725 -1.23641,0 -7.6797,5.65715 -14.31843,12.57144 -11.62363,12.10613 -12.32815,12.59254 -19.03368,13.14126 -3.82981,0.3134 -8.53002,0.10792 -10.44492,-0.45663 z"
     id="path3925"
     inkscape:connector-curvature="0"
     transform="scale(0.75)" />
  <path
     style="fill:#000000;stroke-width:1.39265537"
     d=""
     id="path3927"
     inkscape:connector-curvature="0"
     transform="scale(0.75)" />
  <path
     style="fill:#ffffff;stroke-width:1.39265537"
     d="M 432.65776,509.41324 V 498.272 h 18.80084 18.80085 v 11.14124 11.14124 H 451.4586 432.65776 Z m 33.42373,0 v -8.35593 h -13.92656 -13.92655 v 8.35593 8.35593 h 13.92655 13.92656 z"
     id="path3929"
     inkscape:connector-curvature="0"
     transform="scale(0.75)" />
  <path
     style="fill:#ffffff;stroke-width:1.39265537"
     d="m 520.39505,531.79087 c -6.26046,-2.19435 -14.80225,-6.84646 -16.64276,-9.06413 -1.0477,-1.2624 -3.99389,-2.17226 -7.03395,-2.17226 -4.50918,0 -5.47202,-0.58152 -6.97643,-4.21351 -1.45197,-3.50536 -1.40189,-4.61713 0.298,-6.61511 1.12382,-1.32088 2.80768,-4.33802 3.74191,-6.70474 3.07566,-7.79167 12.91968,-16.9513 26.59398,-24.74508 9.24781,-5.27086 13.48844,-8.51884 14.1359,-10.8269 0.5087,-1.81346 0.98738,-2.51383 1.06373,-1.55638 0.25621,3.21287 4.00483,1.78069 4.92391,-1.88121 0.82141,-3.27274 1.44712,-3.57071 6.48853,-3.08994 l 5.57947,0.53209 5.57921,-10.10704 c 3.06857,-5.55888 6.12215,-10.44261 6.78575,-10.85273 0.6636,-0.41013 3.42746,0.56469 6.14192,2.16626 2.71445,1.60156 5.58269,2.51187 6.37386,2.0229 0.79117,-0.48897 1.43849,-0.0444 1.43849,0.98789 0,1.03231 3.51522,4.00737 7.81161,6.61125 l 7.8116,4.73433 -0.6531,6.79692 c -0.43086,4.48407 -0.0392,7.41086 1.15113,8.60114 1.27909,1.2791 1.37144,2.23701 0.31727,3.29118 -0.81782,0.81782 -2.1876,5.73625 -3.04394,10.92983 l -1.557,9.44287 -10.36709,3.1456 c -5.70191,1.73008 -10.90328,4.1037 -11.55861,5.27471 -0.65533,1.17102 -1.98407,2.12912 -2.95275,2.12912 -0.96868,0 -7.39663,5.67302 -14.28434,12.60672 -12.31048,12.39269 -12.65179,12.61665 -20.10388,13.19164 -4.16943,0.32171 -9.14752,0.0358 -11.06242,-0.63542 z"
     id="path3931"
     inkscape:connector-curvature="0"
     transform="scale(0.75)" />
  <path
     style="fill:#ffffff;stroke-width:1.39265537"
     d="m 429.93303,520.66768 c -0.78654,-1.46966 -3.31537,-3.08619 -5.61962,-3.59229 -2.37519,-0.52168 -4.18955,-1.82032 -4.18955,-2.99868 0,-2.25406 -5.06533,-11.52555 -11.57053,-21.17847 l -4.09069,-6.07009 6.08979,1.19579 c 7.75731,1.52323 73.54078,1.56798 82.40378,0.0561 l 6.68123,-1.13974 -4.88358,6.79759 c -2.68598,3.73868 -6.4578,10.20516 -8.38185,14.36996 -3.01388,6.5239 -4.13052,7.66879 -8.06459,8.26871 -3.41085,0.52012 -4.67894,1.48923 -5.01135,3.8298 -0.43876,3.08936 -0.73703,3.13347 -21.189,3.13347 -19.02573,0 -20.86243,-0.22133 -22.17404,-2.67211 z m 41.71908,-11.25444 v -12.5339 H 451.4586 431.2651 v 12.5339 12.5339 h 20.1935 20.19351 z"
     id="path3933"
     inkscape:connector-curvature="0"
     transform="scale(0.75)" />
  <path
     style="fill:#000000;stroke-width:1.39265537"
     d="m 439.62103,509.41324 v -6.96328 h 12.5339 12.5339 v 6.96328 6.96328 h -12.5339 -12.5339 z"
     id="path3935"
     inkscape:connector-curvature="0"
     transform="scale(0.75)" />
  <path
     style="fill:#ffffff;stroke-width:1.39265537"
     d="M 432.65776,509.41324 V 498.272 h 18.80084 18.80085 v 11.14124 11.14124 H 451.4586 432.65776 Z m 33.42373,0 v -8.35593 h -13.92656 -13.92655 v 8.35593 8.35593 h 13.92655 13.92656 z"
     id="path3937"
     inkscape:connector-curvature="0"
     transform="scale(0.75)" />
  <path
     style="fill:#ffffff;stroke-width:1.39265537"
     d="m 429.17612,196.12251 c 7.8517,-5.58922 12.53526,-7.55998 20.1935,-8.49705 6.41138,-0.78451 8.79436,-0.40024 14.62288,2.35803 3.82981,1.8124 8.53002,4.59818 10.44492,6.19063 l 3.48164,2.89535 -8.08365,-0.71272 c -4.446,-0.392 -10.24293,-1.98674 -12.88206,-3.54386 l -4.79842,-2.83114 -4.86328,2.86941 c -2.91244,1.71838 -8.35924,3.14539 -13.57839,3.55742 l -8.71511,0.68801 z"
     id="path3939"
     inkscape:connector-curvature="0"
     transform="scale(0.75)" />
  <path
     style="fill:#ffffff;stroke-width:0.34816384"
     d="m 419.97642,214.64075 c -9.25188,-7.70005 -15.0146,-17.80975 -18.20658,-31.94034 -1.88876,-8.36133 -2.12775,-8.81273 -5.4214,-10.23979 -4.73684,-2.05235 -8.88348,-8.80065 -8.87404,-14.44173 0.008,-4.7884 1.4236,-8.19414 4.94813,-11.90455 1.3183,-1.38783 2.53615,-3.02438 2.7152,-3.64871 0.7533,-2.6266 -0.69959,-4.76156 -5.43295,-7.98352 -3.91382,-2.66409 -4.22709,-2.95918 -3.45573,-3.25518 0.87438,-0.33553 10.21094,-1.57254 17.29197,-2.29102 13.48542,-1.36832 20.06944,-1.5881 47.46915,-1.58457 30.58252,0.004 32.52298,0.0955 55.18396,2.60291 8.18503,0.90568 8.35594,0.93722 8.35594,1.54222 0,0.51679 -1.52692,1.88959 -3.80908,3.42462 -2.1276,1.43107 -2.80319,2.77184 -2.80473,5.5663 -10e-4,2.76102 0.8545,5.30619 2.36223,7.02341 1.50188,1.71053 3.13235,5.3912 3.55206,8.01845 0.50178,3.14104 -0.0339,6.31751 -1.61055,9.55029 -1.2077,2.47626 -2.20015,3.65214 -6.34345,7.51587 -2.25719,2.10489 -3.0208,3.53518 -3.5581,6.66459 -0.65965,3.84203 -2.25477,8.30752 -4.83759,13.54274 -4.09197,8.29414 -10.63785,17.494 -14.52157,20.4092 -1.83706,1.37894 -3.24561,2.18853 -3.24561,1.86549 0,-0.1135 0.95329,-1.33323 2.11842,-2.71052 2.64093,-3.12179 6.59157,-8.97923 8.16942,-12.11242 3.89878,-7.74193 8.58336,-22.86806 8.0171,-25.88651 -0.27759,-1.47965 0.3569,-2.0162 3.47257,-2.93655 5.9133,-1.74676 9.76836,-6.7058 10.16585,-13.07708 0.2168,-3.47503 -0.46789,-6.20548 -2.18763,-8.72393 -3.32473,-4.86886 -7.72737,-4.6073 -10.18991,0.60539 l -1.02829,2.1767 -0.38089,-1.91329 c -0.20948,-1.05231 -0.62587,-3.36708 -0.9253,-5.14393 -0.64713,-3.84024 -1.02743,-4.95121 -1.69483,-4.95121 -0.46565,0 -2.9937,0.42488 -12.22895,2.05528 -17.39969,3.07175 -45.53992,3.00298 -67.02154,-0.1638 -6.00771,-0.88564 -7.9052,-1.01224 -8.59527,-0.57345 -0.61619,0.3918 -0.99738,1.62087 -1.67433,5.39853 l -0.61089,3.409 -0.73967,-0.62065 c -0.40681,-0.34136 -1.48717,-1.29727 -2.4008,-2.12423 -0.91364,-0.82697 -2.20619,-1.73132 -2.87236,-2.00966 -1.62935,-0.68078 -3.05085,-0.0829 -5.40866,2.27491 -4.09026,4.09027 -5.11223,10.41795 -2.57959,15.97207 1.69879,3.7255 4.26189,6.04677 7.95906,7.20815 0.97756,0.30707 2.13183,0.73132 2.56505,0.94275 1.20492,0.58809 2.36481,3.40377 3.74208,9.08408 2.86601,11.82036 8.13582,23.39138 13.7415,30.17244 1.73284,2.09619 3.28618,4.49684 3.05758,4.72544 -0.10184,0.10183 -1.10397,-0.57955 -2.22698,-1.51419 z"
     id="path3949"
     inkscape:connector-curvature="0"
     transform="scale(0.75)" />
  <path
     style="fill:#ffffff;stroke-width:0.34816384"
     d="m 385.85653,127.09781 c -0.1442,-0.23332 -0.32983,-2.19174 -0.41253,-4.35205 l -0.15034,-3.92784 h 64.65816 64.65817 l -0.11701,3.98741 c -0.0761,2.5928 -0.26982,4.13991 -0.55395,4.42343 -0.35002,0.34928 -1.38895,0.28308 -5.22246,-0.33275 -11.37836,-1.82788 -22.86378,-2.6877 -43.66144,-3.26858 -26.47172,-0.73935 -58.31683,0.65911 -73.35446,3.22131 -4.61651,0.7866 -5.48895,0.82378 -5.84414,0.24907 z"
     id="path3951"
     inkscape:connector-curvature="0"
     transform="scale(0.75)" />
  <path
     style="fill:#ffffff;stroke-width:0.34816384"
     d="m 391.82231,115.32686 c -4.33291,-0.27636 -5.97572,-0.67283 -6.30106,-1.52066 -0.33296,-0.86769 0.8419,-2.56107 2.36006,-3.40166 1.9466,-1.07781 2.53707,-2.20508 3.41239,-6.51454 0.82564,-4.064859 2.83079,-9.789094 5.1015,-14.563611 5.27826,-11.098357 15.63759,-21.330292 26.69988,-26.371537 1.44123,-0.65679 4.94323,-1.92503 7.78223,-2.818313 6.17964,-1.944408 8.25636,-2.981495 8.85257,-4.420858 0.2523,-0.609108 0.88038,-1.232244 1.50463,-1.492778 2.50226,-1.04433 16.99769,-0.914369 18.07411,0.162046 0.20367,0.203668 0.53493,0.879613 0.73614,1.502098 0.48563,1.502435 2.6723,2.571002 6.11757,2.98949 4.53812,0.551235 10.72702,3.507195 19.1402,9.141797 9.01544,6.037954 14.80447,12.383675 19.2503,21.101465 2.18576,4.28605 3.58589,8.271186 4.92954,14.030751 1.11444,4.77706 2.08376,6.90395 3.49513,7.66901 1.32246,0.71688 1.94566,2.55202 1.14018,3.3575 -0.29916,0.29916 -1.22513,0.70849 -2.05771,0.90962 -1.80145,0.43519 -113.67652,0.65866 -120.23766,0.24018 z"
     id="path3953"
     inkscape:connector-curvature="0"
     transform="scale(0.75)" />
  <path
     style="fill:#ffffff;stroke-width:0.34816384"
     d="m 596.07695,148.91051 c -2.96459,-0.79764 -6.60811,-2.10211 -15.72392,-5.62953 -14.80559,-5.72913 -23.7653,-8.79535 -36.95318,-12.64623 -12.41726,-3.62586 -15.6879,-4.90298 -16.36563,-6.39043 -0.53906,-1.1831 0.13249,-2.21158 1.62715,-2.49198 4.44561,-0.834 32.25457,7.35855 53.2584,15.68999 8.35008,3.31217 13.66974,5.7846 16.80223,7.80923 1.81974,1.17616 2.1727,1.56388 2.1727,2.38673 0,1.88851 -1.27542,2.22531 -4.81775,1.27222 z"
     id="path3955"
     inkscape:connector-curvature="0"
     transform="scale(0.75)" />
  <path
     style="fill:#ffffff;stroke-width:0.34816384"
     d="m 588.18672,166.20603 c -0.95745,-0.34835 -4.48261,-1.81195 -7.83369,-3.25243 -11.61071,-4.99094 -32.18747,-12.07382 -46.27532,-15.92877 -8.07949,-2.21084 -9.21581,-2.62542 -10.17633,-3.71275 -0.78666,-0.89051 -1.12208,-2.71704 -0.65815,-3.58391 0.74079,-1.38418 3.58493,-0.88168 16.37626,2.89332 23.73681,7.00525 49.07738,16.62581 52.65815,19.99169 1.0836,1.01856 1.23721,2.30435 0.41547,3.47755 -0.67176,0.95907 -2.08774,0.9953 -4.50639,0.1153 z"
     id="path3957"
     inkscape:connector-curvature="0"
     transform="scale(0.75)" />
  <path
     style="fill:#ffffff;stroke-width:0.34816384"
     d="m 581.56178,232.8934 c -3.25776,-1.56592 -10.59429,-6.50969 -11.94748,-8.05088 -1.5909,-1.81194 -1.69256,-2.66014 -0.55328,-4.61631 3.69086,-6.33729 14.55483,-23.37442 40.02113,-62.7621 11.32852,-17.52135 22.12978,-34.28544 24.00281,-37.25353 1.87304,-2.9681 3.79006,-5.99816 4.26005,-6.73346 0.74034,-1.15827 0.97905,-1.3066 1.78633,-1.11 1.71072,0.41662 10.73381,5.89527 15.09829,9.1674 l 1.63259,1.22398 -0.72608,1.42325 c -1.39824,2.74076 -6.4643,11.07575 -25.62546,42.16054 -30.5952,49.634 -39.08685,62.99303 -42.10422,66.23817 -1.71529,1.84476 -2.56339,1.89017 -5.84468,0.31294 z"
     id="path3959"
     inkscape:connector-curvature="0"
     transform="scale(0.75)" />
  <path
     style="fill:#ffffff;stroke-width:0.34816384"
     d="m 701.30497,250.45932 c -1.5676,-0.9559 -4.60672,-3.81357 -16.50739,-15.52184 -16.85426,-16.58174 -26.6696,-25.15755 -40.3824,-35.28274 -10.36122,-7.65045 -14.17324,-10.684 -14.42583,-11.47985 -0.24764,-0.78024 0.57065,-2.89086 1.38178,-3.56404 0.49457,-0.41046 0.79888,-0.35813 2.18588,0.37588 3.61819,1.91478 21.79675,15.14231 29.48494,21.45455 7.6515,6.28213 20.99754,18.94529 32.31266,30.65933 9.18164,9.50536 10.4222,11.15369 9.58771,12.73918 -0.7738,1.47016 -1.92174,1.66569 -3.63735,0.61953 z"
     id="path3961"
     inkscape:connector-curvature="0"
     transform="scale(0.75)" />
  <path
     style="fill:#ffffff;stroke-width:0.34816384"
     d="m 716.64429,241.74309 c -0.39118,-0.16262 -4.01475,-4.03374 -8.05239,-8.60248 -4.03765,-4.56874 -9.90621,-10.81874 -13.04126,-13.88889 -14.61585,-14.31331 -34.23139,-30.705 -49.316,-41.21081 -5.05323,-3.51938 -5.85668,-4.37796 -5.48775,-5.86434 0.3052,-1.22963 1.51314,-2.52673 2.35305,-2.52673 1.03972,0 7.72976,4.48833 16.80853,11.27678 13.2429,9.90209 31.37844,26.17784 48.59059,43.60764 9.65755,9.77966 12.60022,13.2907 12.44374,14.8472 -0.1698,1.68883 -2.64536,3.04892 -4.29851,2.36163 z"
     id="path3963"
     inkscape:connector-curvature="0"
     transform="scale(0.75)" />
  <path
     style="fill:#ffffff;stroke-width:0.34816384"
     d="m 666.67548,121.48611 c -3.96879,-1.63276 -7.95859,-4.04775 -25.53698,-15.45729 -3.83101,-2.48659 -7.5164,-5.78747 -7.5164,-6.732208 0,-2.360574 6.94765,-13.242034 10.74671,-16.831573 l 1.07346,-1.014252 1.4884,0.662901 c 3.3901,1.50988 17.89908,10.667938 26.90435,16.982017 5.17503,3.628485 7.13736,5.296695 7.13736,6.067595 0,0.74256 -2.21359,4.70809 -5.5022,9.85688 -1.51758,2.37599 -3.09703,4.98585 -3.50989,5.79968 -0.68265,1.34566 -0.86828,1.47895 -2.04918,1.47143 -0.7142,-0.005 -2.17023,-0.36687 -3.23563,-0.80518 z"
     id="path3965"
     inkscape:connector-curvature="0"
     transform="scale(0.75)" />
  <path
     style="fill:#ffffff;stroke-width:0.34816384"
     d="m 624.918,96.503098 c -1.05319,-0.372783 -4.93442,-2.155933 -8.62495,-3.962556 l -6.71006,-3.28477 1.63022,-2.540077 c 0.89662,-1.397042 3.03385,-4.733509 4.74939,-7.41437 3.59955,-5.624963 7.53886,-10.972126 8.83355,-11.990535 l 0.89602,-0.70481 1.56062,1.120752 c 2.48688,1.785939 8.4255,6.841585 10.65292,9.06901 2.42386,2.423855 2.42336,2.462911 -0.0865,6.831732 -3.3249,5.787437 -9.45874,13.651716 -10.59099,13.578849 -0.21741,-0.01399 -1.25699,-0.330443 -2.31019,-0.703225 z"
     id="path3967"
     inkscape:connector-curvature="0"
     transform="scale(0.75)" />
  <path
     style="fill:#ffffff;stroke-width:0.34816384"
     d="m 678.30453,128.12507 -3.53826,-5.2303 1.2752,-2.04943 c 3.73405,-6.0012 6.57367,-9.89295 7.68092,-10.52682 1.09766,-0.62838 1.39996,-0.64651 4.17797,-0.25052 4.45788,0.63544 5.54768,1.00971 7.04621,2.4199 1.53826,1.44759 3.3436,5.31946 5.1764,11.10174 2.13302,6.72942 1.33589,7.40156 -10.44649,8.80853 -3.15959,0.3773 -6.21473,0.74701 -6.7892,0.82159 -0.99786,0.12954 -1.20244,-0.0979 -4.58275,-5.09469 z"
     id="path3969"
     inkscape:connector-curvature="0"
     transform="scale(0.75)" />
  <path
     style="fill:#ffffff;stroke-width:0.34816384"
     d="m 684.9748,290.34326 c -1.67234,-1.74536 -4.00242,-5.66569 -4.00242,-6.73405 0,-0.47463 2.50136,-2.82604 7.92073,-7.4459 4.3564,-3.71371 17.68586,-15.13701 29.62102,-25.38513 22.21841,-19.07781 26.06584,-22.28865 26.70768,-22.28865 0.74977,0 4.87365,4.89274 9.53718,11.31533 2.86226,3.94187 3.62701,5.26684 3.32345,5.75802 -0.26865,0.4347 -8.54346,5.91165 -20.4387,13.52804 -5.11813,3.27708 -15.66526,10.11482 -23.43807,15.19498 -15.94491,10.42129 -24.90873,16.16322 -26.58959,17.03242 l -1.14143,0.59026 z"
     id="path3971"
     inkscape:connector-curvature="0"
     transform="scale(0.75)" />
  <path
     style="fill:#ffffff;stroke-width:0.34816384"
     d="m 595.84632,474.38047 c 0,-1.23467 0.12334,-1.38045 2.26307,-2.67483 10.4659,-6.33113 42.75666,-31.71316 47.72054,-37.51055 7.18835,-8.3954 14.02693,-20.96463 16.33609,-30.02555 1.2929,-5.07322 1.31642,-5.00893 -4.0471,-11.06257 -1.75022,-1.97542 -6.26891,-7.27349 -10.04154,-11.77351 -11.7628,-14.03077 -20.93276,-24.24881 -22.5275,-25.10229 -0.46814,-0.25055 -1.08339,-0.14675 -2.28979,0.38631 -2.46442,1.08891 -10.26241,5.36739 -20.74281,11.38082 -12.19694,6.99834 -17.28305,10.13091 -17.28757,10.64752 -0.004,0.4537 2.21435,2.27307 9.35981,7.67645 8.3405,6.30709 14.27827,11.09183 14.29813,11.52164 0.0514,1.11269 -11.76,20.43051 -22.62575,37.00495 -5.67449,8.65577 -7.17429,10.72673 -7.37513,10.18379 -0.13867,-0.37485 -0.49218,-0.68154 -0.78558,-0.68154 -0.29341,0 -0.53347,-0.0642 -0.53347,-0.14269 0,-0.0785 1.17084,-1.81515 2.60187,-3.85925 7.26578,-10.37855 21.09546,-32.81191 24.42297,-39.61693 0.76084,-1.55597 0.90021,-2.14912 0.61353,-2.61123 -0.63042,-1.01622 -5.45529,-5.04174 -12.2545,-10.22427 -3.57813,-2.72734 -7.87628,-6.00924 -9.55144,-7.29312 l -3.04576,-2.33433 18.10746,-10.49338 c 24.5103,-14.20388 26.49133,-15.19479 28.38925,-14.20038 1.01835,0.53357 3.7378,3.60193 16.88722,19.05383 20.63537,24.24867 21.63277,25.71983 20.83139,30.72626 -1.03626,6.47373 -6.35414,17.53005 -12.70258,26.40977 -2.54746,3.5632 -7.15794,8.43628 -11.96953,12.65129 -11.34622,9.93943 -27.45511,22.28048 -39.0917,29.94823 -2.25098,1.48324 -4.17948,2.83724 -4.28556,3.00888 -0.40611,0.65711 -0.67402,0.26229 -0.67402,-0.99332 z"
     id="path3973"
     inkscape:connector-curvature="0"
     transform="scale(0.75)" />
  <path
     style="fill:#000000;stroke-width:0.34816384"
     d="m 301.98829,471.39795 c -17.62009,-11.91604 -36.07317,-26.27225 -42.64586,-33.17782 -9.38471,-9.86002 -19.30079,-27.03755 -20.40257,-35.3432 -0.28745,-2.16691 0.55981,-3.95521 4.63645,-9.78598 4.73202,-6.76815 20.37574,-26.76927 29.8238,-38.1309 3.39878,-4.08716 3.95758,-4.61251 4.90074,-4.60736 1.21026,0.007 4.91014,1.91414 10.47831,5.40226 3.59773,2.25375 31.41034,20.26268 33.84317,21.91377 l 1.12911,0.7663 -9.31096,6.97735 c -5.12103,3.83754 -10.77567,8.20252 -12.56586,9.69995 -3.02957,2.53412 -3.24229,2.79616 -3.0729,3.78525 0.56135,3.27779 14.42618,26.2244 24.41536,40.40798 1.82848,2.59625 3.32451,4.79361 3.32451,4.88301 0,0.0894 -0.21107,0.16255 -0.46904,0.16255 -0.25797,0 -0.61766,0.33307 -0.79931,0.74015 -0.28823,0.64597 -1.24112,-0.64991 -7.48832,-10.18379 -8.64449,-13.19237 -14.92479,-23.23903 -19.34312,-30.94336 -3.62604,-6.3228 -3.49545,-6.12251 -3.79592,-5.82204 -0.58737,0.58736 14.09916,25.11693 24.81278,41.44251 2.36369,3.60183 4.29762,6.68062 4.29762,6.84174 0,0.2865 -7.61168,5.08841 -11.56909,7.29849 -1.09702,0.61265 -2.11066,1.30014 -2.25253,1.52777 -0.14187,0.22762 -0.24866,2.05893 -0.23731,4.06958 0.0131,2.32584 -0.0285,2.76928 -0.11457,1.21898 -0.0744,-1.34021 -0.2672,-2.56872 -0.42851,-2.73003 -0.3169,-0.31691 -0.55846,1.48008 -1.05786,7.8695 -0.17605,2.25247 -0.41568,4.25006 -0.53251,4.43909 -0.62821,1.01647 -2.56403,-0.087 -10.97109,-6.25355 -13.53209,-9.9258 -27.79228,-21.51692 -33.41704,-27.16238 -8.29091,-8.32143 -13.82925,-16.88703 -19.9678,-30.88223 l -1.55232,-3.5391 3.03435,-4.64275 c 6.98167,-10.68239 25.13262,-33.33299 32.7102,-40.81908 l 2.78624,-2.75261 2.52734,1.50146 c 6.00653,3.56841 32.07298,21.2976 33.05807,22.48456 0.34349,0.41388 -0.0343,0.94181 -2.11967,2.96203 -1.39571,1.35211 -4.89392,4.36447 -7.7738,6.69413 -2.87988,2.32966 -6.49828,5.47038 -8.04088,6.97937 -2.92614,2.86238 -2.75161,2.931 0.50282,0.1977 1.0532,-0.88455 4.65669,-3.69152 8.00777,-6.23772 7.39716,-5.62048 11.38741,-8.91209 11.84883,-9.77426 0.30123,-0.56285 -0.2696,-1.0826 -4.446,-4.04823 -5.24022,-3.72103 -28.32597,-18.92169 -32.4055,-21.33719 -2.16126,-1.27968 -2.61459,-1.4338 -2.99926,-1.01965 -0.69253,0.74562 -25.14574,31.41594 -27.73146,34.78204 -6.15237,8.00921 -9.37325,13.10087 -9.37325,14.8175 0,3.49307 6.43007,16.72714 12.8438,26.43451 3.8574,5.8383 8.27463,10.06161 22.12666,21.15532 12.18115,9.75556 26.02313,19.92615 31.00659,22.78252 0.76596,0.43903 1.19681,0.80012 0.95745,0.80243 -0.74797,0.007 -0.47936,0.79589 0.67758,1.98956 0.61204,0.63146 0.96455,1.14036 0.78337,1.13088 -0.18118,-0.009 -3.62306,-2.24463 -7.64861,-4.96701 z"
     id="path3981"
     inkscape:connector-curvature="0"
     transform="scale(0.75)" />
  <path
     style="fill:#000000;stroke-width:0.34816384"
     d="m 373.71779,344.54149 c -4.1063,-3.68646 -7.13782,-5.29746 -6.60121,-3.508 0.30995,1.0336 0.36797,1.09534 -5.97112,-6.35399 -10.22471,-12.01547 -10.27814,-12.55989 -0.30973,-3.15607 6.37174,6.01086 14.81478,14.29631 14.55449,14.28282 -0.15388,-0.008 -0.90647,-0.57711 -1.67243,-1.26476 z"
     id="path3985"
     inkscape:connector-curvature="0"
     transform="scale(0.75)" />
  <path
     style="fill:#000000;stroke-width:0.34816384"
     d="m 359.96532,351.39137 -0.87041,-0.27876 0.87041,-0.0146 c 0.47873,-0.008 1.4971,0.11499 2.26307,0.27342 l 1.39265,0.28806 -1.39265,0.005 c -0.76597,0.003 -1.78434,-0.12011 -2.26307,-0.27342 z"
     id="path3987"
     inkscape:connector-curvature="0"
     transform="scale(0.75)" />
  <path
     style="fill:#000000;stroke-width:0.34816384"
     d=""
     id="path3989"
     inkscape:connector-curvature="0"
     transform="scale(0.75)" />
  <path
     style="fill:#000000;stroke-width:0.34816384"
     d=""
     id="path3991"
     inkscape:connector-curvature="0"
     transform="scale(0.75)" />
  <path
     style="fill:#000000;stroke-width:0.34816384"
     d="m 548.66069,332.77412 c 1.22843,-1.23945 2.11582,-2.37123 1.97198,-2.51508 -0.14385,-0.14384 -1.4668,0.18129 -2.9399,0.72253 -2.9925,1.09947 -4.15581,1.45222 -3.89694,1.18165 0.34476,-0.36035 14.3649,-6.91001 14.50073,-6.77418 0.15218,0.15218 -1.48982,1.57353 -7.44187,6.44191 -2.14957,1.75819 -4.02513,3.19672 -4.16791,3.19672 -0.14278,0 0.74547,-1.0141 1.97391,-2.25355 z"
     id="path3993"
     inkscape:connector-curvature="0"
     transform="scale(0.75)" />
  <path
     style="fill:#000000;stroke-width:0.34816384"
     d=""
     id="path3995"
     inkscape:connector-curvature="0"
     transform="scale(0.75)" />
  <path
     style="fill:#000000;stroke-width:0.34816384"
     d="m 537.70296,359.37994 c -3.00044,-1.45708 -3.08902,-1.66925 -0.35005,-0.83847 1.57009,0.47624 1.77787,0.47419 2.14,-0.0211 0.35104,-0.48007 0.48533,-0.4269 1.07634,0.42623 1.17359,1.69408 1.21984,1.84709 0.54886,1.81553 -0.34641,-0.0163 -1.88323,-0.63829 -3.41515,-1.38223 z"
     id="path3997"
     inkscape:connector-curvature="0"
     transform="scale(0.75)" />
  <path
     id="path3999"
     transform="scale(0.75)"
     style="fill:#000000;stroke-width:0.34816384"
     d="m 278.22852,350.34766 c -1.14831,0 -3.45196,2.66389 -16.86719,19.5039 -14.81153,18.59277 -21.90264,28.46726 -22.41992,31.22461 -0.13168,0.70195 0.0254,2.1994 0.38281,3.66992 2.19626,9.03623 11.25531,24.237 19.8457,33.29883 6.64798,7.01282 24.76164,21.14493 42.30469,33.00586 4.30853,2.91302 7.98093,5.30445 8.16211,5.31445 0.18118,0.01 -0.17116,-0.4994 -0.7832,-1.13085 -1.13729,-1.17339 -1.42772,-1.98633 -0.71094,-1.98633 0.22072,0 -0.96475,-0.85706 -2.63281,-1.9043 -10.48373,-6.58189 -35.62669,-26.14886 -44.58594,-34.69922 -4.91691,-4.69251 -10.19531,-12.6238 -15.29883,-22.98047 -3.163,-6.41873 -4.57946,-10.46191 -4.25977,-12.16601 0.27677,-1.4753 3.82861,-7.02095 8.22266,-12.83985 2.95438,-3.91239 27.743,-35.11027 28.75,-36.18359 0.38469,-0.41002 0.70854,-0.33506 2.13281,0.49023 2.80852,1.62739 24.29242,15.67225 30.22852,19.76172 6.99262,4.81734 7.4432,5.17179 7.4668,5.8711 0.0231,0.68647 -3.86517,4.01257 -10.94727,9.36523 -1.95431,1.47708 -3.97869,3.04772 -5.67383,4.37891 -0.0118,0.48748 -0.23919,1.10244 -0.72461,1.96875 -0.16266,0.29028 -0.61242,0.26277 -0.91797,0.39453 -0.10488,0.0166 -0.20956,0.0322 -0.31445,0.0488 -0.0949,0.14333 -0.21145,0.31191 -0.37891,0.53515 -0.1973,0.26304 -0.50021,0.4268 -0.75,0.64063 -1.18988,0.42618 -0.69034,0.34275 -1.68359,0.38476 0.0527,0.24662 0.11214,0.49229 0.14453,0.74219 0.12627,0.97389 -0.14016,-0.23803 -0.0234,0.49219 0.0576,0.36066 0.27651,0.69001 0.29688,1.05469 0.007,0.11972 -0.006,0.23963 -0.01,0.35937 0.19605,0.58105 0.39673,1.16156 0.58203,1.74609 0.16162,0.50983 0.32428,1.01999 0.45313,1.53907 0.21384,0.86146 0.20848,1.04677 -0.006,0.9414 0.0275,0.20484 0.0596,0.40863 0.0879,0.61328 4.91884,8.506 11.80638,19.49024 20.88477,33.29297 l 5.64648,8.58399 0.85547,-0.85352 0.85352,-0.85351 -3.69727,-5.25 c -9.6271,-13.67289 -24.1543,-37.80102 -24.1543,-40.11524 0,-0.32447 0.66469,-1.2137 1.47852,-1.97656 1.90609,-1.78671 9.93345,-8.04016 17.60547,-13.71484 3.3161,-2.45279 5.90261,-4.57181 5.74609,-4.70704 -0.15652,-0.13524 -7.25799,-4.76425 -15.7793,-10.2871 -22.86982,-14.82244 -27.49223,-17.57422 -29.51171,-17.57422 z m 1.85937,3.74023 -3.8418,3.96484 c -8.35886,8.6249 -24.37476,28.69073 -31.53711,39.51172 l -3.07421,4.64258 1.32617,3.05469 c 7.85346,18.09375 14.77941,27.60759 28.22265,38.76562 10.0439,8.33654 26.058,20.62327 31.8086,24.40625 2.99576,1.97073 4.13557,2.39288 4.57031,1.68946 0.1158,-0.18738 0.42888,-2.94728 0.69727,-6.13282 0.2684,-3.18554 0.57251,-5.87525 0.67382,-5.97656 0.3122,-0.3122 0.52611,0.68664 0.6543,3.04883 0.0679,1.25055 0.13263,0.52371 0.14453,-1.625 0.0118,-2.13865 0.11793,-4.04474 0.23633,-4.23633 0.11841,-0.19159 1.27164,-0.93567 2.5625,-1.65234 4.10282,-2.27785 11.22461,-6.81683 11.22461,-7.1543 0,-0.1789 -1.07301,-1.92642 -2.38477,-3.88281 -6.08884,-9.08102 -17.76406,-28.0764 -23.375,-37.8086 -0.80291,0.75745 -0.63161,0.47089 -3.02343,-0.79687 -0.0449,-0.0237 -0.0937,-0.67735 -0.0937,-0.67773 -0.005,-0.0189 -0.0146,-0.0452 -0.0195,-0.0645 -0.39032,-0.0673 -0.44705,-0.70539 -0.65626,-1.06054 -0.61774,-1.04866 -0.82045,-1.78036 -0.52929,-2.73047 -0.0752,-0.30159 -0.11609,-0.58463 -0.11914,-0.8418 -0.0614,-0.26686 -0.11147,-0.53161 -0.12696,-0.83594 -0.0387,-0.75972 0.2327,-0.90488 -0.0586,-0.71875 -0.46699,-0.97372 -0.19424,-2.02261 -0.21289,-3.04101 -0.003,-0.1196 -0.0277,0.23855 -0.041,0.35742 -0.45044,-0.63856 -0.40361,-1.45257 -0.35156,-2.18945 0.0133,-0.18007 -0.0426,-0.38205 0.043,-0.54102 0.2954,-0.54904 0.71515,-1.02216 1.07227,-1.5332 0.50878,-0.1172 1.00481,-0.31158 1.52539,-0.35157 0.32985,-0.0253 1.54653,0.22748 1.96289,0.28516 0.18856,0.0261 0.37826,0.0428 0.56836,0.0527 0.1048,0.005 0.212,-0.0279 0.31445,-0.006 0.34925,0.0773 0.68618,0.20161 1.0293,0.30273 0.0952,0.1906 0.2778,0.0101 0.39648,0.0723 0.80967,0.42715 1.36237,0.77227 1.64844,1.20507 1.35949,-1.17172 2.82519,-2.41098 4.35742,-3.66406 6.54879,-5.35568 10.57985,-9.17872 10.24609,-9.71875 -0.61636,-0.9973 -31.03803,-21.66988 -34.45898,-23.41601 z m 16.34961,39.24023 c 0.0742,0.28102 0.15017,0.56238 0.19141,0.84961 0.0169,0.11794 0.007,0.23479 0,0.35157 0.33925,-0.38324 0.68542,-0.75935 0.92968,-1.07227 -0.3757,-0.0257 -0.74912,-0.0665 -1.12109,-0.12891 z m 2.125,0.38477 c 0.057,0.0353 0.1635,0.0517 0.25977,0.0723 0.006,-0.005 0.0154,-0.0121 0.0215,-0.0176 -0.0942,-0.0161 -0.18642,-0.0399 -0.28125,-0.0547 z m 0.31445,1.1543 c -0.0117,0.002 -0.0234,0.004 -0.0352,0.006 -0.0249,0.0275 -0.10616,0.10403 -0.0762,0.082 0.0214,-0.0156 0.0794,-0.0628 0.11133,-0.0879 z" />
  <path
     style="fill:#ffffff;stroke-width:1.41421354"
     d="m 764.80449,240.79485 c -1.94106,-2.08433 -6.46331,-7.82532 -10.04946,-12.75775 -7.2552,-9.97892 -7.19429,-11.70752 0.60829,-17.26345 5.88592,-4.19114 18.02979,-3.41032 23.25127,1.49501 9.77333,9.18156 6.18638,26.07811 -6.56118,30.90686 -3.18868,1.20786 -4.22357,0.86799 -7.24892,-2.38067 z"
     id="path4019"
     inkscape:connector-curvature="0"
     transform="scale(0.75)" />
  <path
     style="fill:#ffffff;stroke-width:1.41421354"
     d="m 810.92794,357.98556 c -17.54284,-4.18335 -27.07542,-22.1985 -20.20139,-38.1776 5.69178,-13.2309 17.1206,-19.6337 31.777,-17.8025 5.98235,0.74744 8.24433,1.88871 12.6152,6.36488 2.9292,2.99978 4.89701,6.14798 4.3729,6.99601 -0.52411,0.84803 -4.37412,1.54187 -8.55558,1.54187 -9.93782,0 -14.23436,1.76321 -16.91143,6.94008 -3.04704,5.89234 -2.74636,9.36039 1.33188,15.36207 l 3.52094,5.18153 11.44598,-0.43371 c 11.15701,-0.42277 11.40682,-0.36056 9.8951,2.46413 -2.4809,4.63561 -10.24395,9.80413 -17.0976,11.38333 -3.48458,0.80291 -6.6538,1.41025 -7.04271,1.34965 -0.38891,-0.0606 -2.70654,-0.58699 -5.15029,-1.16974 z"
     id="path4021"
     inkscape:connector-curvature="0"
     transform="scale(0.75)" />
  <path
     style="fill:#ffffff;stroke-width:1.41421354"
     d="m 724.11941,370.6134 c -3.69446,-3.69445 -5.62192,-8.76268 -5.62192,-14.78273 0,-4.54571 0.37978,-4.87744 9.54594,-8.33841 17.03658,-6.43267 50.51089,-17.85553 52.3259,-17.85583 0.97228,-1.6e-4 1.76777,1.61114 1.76777,3.58067 0,4.31925 3.49907,13.05236 6.60454,16.48387 2.69559,2.97859 4.59843,2.10244 -29.93906,13.78521 -31.87222,10.78121 -31.17289,10.6375 -34.68317,7.12722 z"
     id="path4023"
     inkscape:connector-curvature="0"
     transform="scale(0.75)" />
  <path
     style="fill:#ffffff;stroke-width:1.41421354"
     d="m 744.49939,316.03378 c -1.17593,-2.81439 -6.321,-12.08305 -11.43348,-20.59701 -6.35241,-10.57887 -8.83614,-15.93921 -7.84481,-16.93054 1.72259,-1.72259 6.4535,4.87652 16.88501,23.55275 8.72112,15.61401 9.96351,19.09188 6.82011,19.09188 -1.29327,0 -3.21874,-2.22569 -4.42683,-5.11708 z"
     id="path4025"
     inkscape:connector-curvature="0"
     transform="scale(0.75)" />
  <path
     style="fill:#ffffff;stroke-width:1.41421354"
     d="m 761.85311,309.4836 c -1.88796,-3.30572 -7.63161,-13.30788 -12.76367,-22.22701 -6.08973,-10.58348 -8.8499,-16.69773 -7.94597,-17.60166 1.74983,-1.74984 3.6258,0.65633 12.689,16.27525 6.15998,10.6157 14.1625,26.94398 14.1625,28.89705 0,2.53279 -3.26668,-0.30933 -6.14186,-5.34363 z"
     id="path4027"
     inkscape:connector-curvature="0"
     transform="scale(0.75)" />
  <path
     style="fill:#ffffff;stroke-width:1.41421354"
     d="m 783.08784,460.09734 c -0.34672,-0.58336 -1.06291,-6.47002 -1.59153,-13.08147 -1.24784,-15.60669 -5.55113,-42.80902 -9.16741,-57.94983 -1.86493,-7.80818 -2.37812,-12.45392 -1.47542,-13.35662 2.83232,-2.83233 3.85261,0.23602 9.95447,29.93657 2.02149,9.83952 6.98601,48.75732 6.98601,54.76469 0,1.15076 -3.99399,0.88484 -4.70612,-0.31334 z"
     id="path4029"
     inkscape:connector-curvature="0"
     transform="scale(0.75)" />
  <path
     style="fill:#ffffff;stroke-width:1.41421354"
     d=""
     id="path4031"
     inkscape:connector-curvature="0"
     transform="scale(0.75)" />
  <path
     style="fill:#ffffff;stroke-width:1.41421354"
     d="m 801.32722,457.97602 c -0.36452,-1.75008 -1.65483,-12.40972 -2.86735,-23.68807 -1.21252,-11.27836 -3.82482,-28.14285 -5.80511,-37.47666 -5.52501,-26.0413 -5.53934,-26.16295 -3.08279,-26.16295 3.68353,0 10.80922,33.74737 14.45196,68.44476 1.13489,10.80992 1.72824,20.19676 1.31855,20.85965 -1.36802,2.21351 -3.34524,1.24012 -4.01526,-1.97673 z"
     id="path4033"
     inkscape:connector-curvature="0"
     transform="scale(0.75)" />
  <path
     style="fill:#ffffff;stroke-width:1.41421354"
     d="m 812.77839,472.94312 c -1.80384,-1.80384 -0.92854,-10.03642 1.26022,-11.85293 1.21167,-1.00559 3.10196,-3.9798 4.20066,-6.60935 1.70791,-4.08759 2.39034,-4.57082 4.70537,-3.33186 1.48925,0.79703 3.11126,3.05691 3.60446,5.02197 0.4932,1.96506 1.53675,3.57284 2.319,3.57284 0.78224,0 2.05982,1.67689 2.83905,3.72642 1.07696,2.83262 0.89114,4.52867 -0.77471,7.07107 -1.84885,2.8217 -3.3657,3.34465 -9.70137,3.34465 -4.13042,0 -7.93413,-0.42427 -8.45268,-0.94281 z"
     id="path4035"
     inkscape:connector-curvature="0"
     transform="scale(0.75)" />
  <path
     style="fill:#ffffff;stroke-width:1.41421354"
     d="m 818.40015,520.90853 c -0.48212,-2.91682 -0.88359,-13.73555 -0.89215,-24.04163 l -0.0156,-18.73833 h 4.24264 4.24264 v 21.30617 c 0,11.98243 -0.64064,22.50324 -1.46397,24.04163 -2.35308,4.39677 -5.15709,3.21902 -6.1136,-2.56784 z"
     id="path4037"
     inkscape:connector-curvature="0"
     transform="scale(0.75)" />
  <path
     style="fill:#ffffff;stroke-width:1.41421354"
     d="m 798.21666,485.19964 c 0,-8.16709 0.23373,-11.50817 0.51941,-7.42463 0.28567,4.08355 0.28567,10.76571 0,14.84925 -0.28568,4.08354 -0.51941,0.74246 -0.51941,-7.42462 z"
     id="path4039"
     inkscape:connector-curvature="0"
     transform="scale(0.75)" />
  <path
     style="fill:#ffffff;stroke-width:1.41421354"
     d="M 790.62238,485.19964 V 471.0575 h 3.53554 3.53553 v 14.14214 14.14213 h -3.53553 -3.53554 z"
     id="path4041"
     inkscape:connector-curvature="0"
     transform="scale(0.75)" />
  <path
     style="fill:#ffffff;stroke-width:1.41421354"
     d="m 790.06766,522.82288 c -1.17116,-2.80298 -3.11645,-5.09633 -4.32286,-5.09633 -1.65688,0 -2.19349,-1.55687 -2.19349,-6.36396 v -6.36396 h 9.8995 9.89949 v 5.60709 c 0,4.15971 -0.73011,5.99784 -2.82842,7.12083 -1.55564,0.83255 -2.82843,2.34729 -2.82843,3.3661 0,1.01881 -1.23669,2.97157 -2.7482,4.33947 -2.65925,2.40659 -2.81713,2.32213 -4.87759,-2.60924 z"
     id="path4043"
     inkscape:connector-curvature="0"
     transform="scale(0.75)" />
  <path
     style="fill:#ffffff;stroke-width:1.41421354"
     d="m 755.54311,489.79583 0.43104,-6.71751 9.54594,-0.41817 9.54594,-0.41817 v 7.13568 7.13568 h -9.97698 -9.97698 z"
     id="path4045"
     inkscape:connector-curvature="0"
     transform="scale(0.75)" />
  <path
     style="fill:#ffffff;stroke-width:1.41421354"
     d="m 94.829313,510.53461 c -9.233017,-1.77754 -18.620112,-5.4862 -22.273864,-8.79997 -2.889888,-2.62099 -3.18198,-4.16693 -3.18198,-16.84114 v -13.95523 l 6.209542,3.63904 c 11.525069,6.75414 23.331812,8.20532 58.490729,7.18918 l 31.46625,-0.90942 v 15.60631 15.60631 l -32.17336,-0.15495 c -17.69534,-0.0852 -35.037139,-0.70628 -38.537317,-1.38013 z"
     id="path4047"
     inkscape:connector-curvature="0"
     transform="scale(0.75)" />
  <path
     style="fill:#ffffff;stroke-width:1.41421354"
     d="m 89.521354,474.56847 c -12.093181,-2.62693 -20.147885,-7.28769 -20.147885,-11.65834 0,-4.55958 6.748913,-11.02527 13.546473,-12.97799 21.044858,-6.04553 55.898208,-3.81911 66.123258,4.22392 3.60018,2.8319 6.57378,10.2817 6.58941,16.50851 0.007,2.87947 -0.6138,3.12264 -7.41674,2.90402 -4.08354,-0.13123 -10.85256,0.52288 -15.04226,1.45358 -9.94374,2.2089 -32.47283,1.97475 -43.652256,-0.4537 z m 52.535216,-7.68153 c 3.58207,-1.73405 6.51286,-4.08643 6.51286,-5.22751 0,-2.98899 -10.51298,-7.20238 -22.70589,-9.10005 -17.49704,-2.7232 -41.356877,0.64102 -48.324994,6.81379 -2.954408,2.61719 -2.294653,3.90509 3.591863,7.01166 7.003451,3.69602 14.261916,4.53933 35.116761,4.07997 16.52194,-0.36392 20.233,-0.87837 25.8094,-3.57786 z"
     id="path4049"
     inkscape:connector-curvature="0"
     transform="scale(0.75)" />
  <path
     style="fill:#ffffff;stroke-width:1.41421354"
     d="m 99.875247,438.68622 c -1.056437,-1.70935 3.602813,-32.81118 7.544283,-50.36021 5.52011,-24.57779 13.72528,-48.79037 16.5341,-48.79037 2.7438,0 2.69237,0.29242 -3.59675,20.45113 -6.82299,21.86992 -12.33657,46.29406 -14.67478,65.0066 -1.60296,12.8284 -3.53111,17.37508 -5.806853,13.69285 z"
     id="path4051"
     inkscape:connector-curvature="0"
     transform="scale(0.75)" />
  <path
     style="fill:#ffffff;stroke-width:1.41421354"
     d="m 118.87094,432.53181 c 0,-19.04088 15.83737,-82.48324 21.02204,-84.21146 2.61055,-0.87019 1.87952,3.73015 -3.23981,20.38797 -5.03107,16.37061 -9.46354,36.60317 -12.48266,56.9787 -1.95307,13.18094 -5.29957,17.5032 -5.29957,6.84479 z"
     id="path4053"
     inkscape:connector-curvature="0"
     transform="scale(0.75)" />
  <path
     style="fill:#ffffff;stroke-width:1.41421354"
     d="M 180.38517,364.2318 C 139.36041,323.93286 143.72638,327.02095 98.364847,306.21818 80.41633,297.987 72.628085,295.12697 67.63473,294.93334 c -5.762516,-0.22345 -7.787501,-1.19827 -14.626911,-7.04136 -7.397709,-6.32006 -11.889608,-12.49637 -10.267833,-14.11814 0.382815,-0.38282 6.04076,0.37596 12.57321,1.68618 9.258489,1.85698 12.663513,3.2239 15.443603,6.19973 4.759452,5.09456 9.666953,7.42927 45.347661,21.57387 l 30.4103,12.0553 51.9238,2.131 c 28.5581,1.17205 52.57743,2.53496 53.37631,3.02869 0.79887,0.49373 1.08696,1.48915 0.64018,2.21205 -0.44678,0.7229 -11.00115,6.46768 -23.45416,12.76619 -12.45302,6.2985 -22.96184,12.28572 -23.35294,13.30493 -0.39112,1.01921 2.51613,11.82039 6.46052,24.00262 6.96329,21.50606 8.31381,27.61242 6.10692,27.61242 -0.58561,0 -17.60921,-16.25176 -37.83022,-36.11502 z"
     id="path4055"
     inkscape:connector-curvature="0"
     transform="scale(0.75)" />
  <path
     style="fill:#ffffff;stroke-width:1.41421354"
     d="m 164.12657,298.16989 c 0.002,-3.46323 19.89236,-33.46414 25.85543,-38.99723 7.41151,-6.87709 4.878,0.0384 -5.38441,14.69743 -5.85521,8.36367 -12.01928,17.65038 -13.69792,20.63713 -2.9434,5.23707 -6.77474,7.30894 -6.7731,3.66267 z"
     id="path4057"
     inkscape:connector-curvature="0"
     transform="scale(0.75)" />
  <path
     style="fill:#ffffff;stroke-width:1.41421354"
     d="m 146.60992,291.7142 c -0.81825,-1.32395 16.01197,-27.79706 25.56297,-40.2093 4.55995,-5.92601 6.87414,-7.92235 7.94377,-6.85272 1.06963,1.06963 -0.4663,4.29551 -5.27229,11.07329 -3.7299,5.26018 -10.86145,15.76882 -15.84791,23.35254 -8.61275,13.09883 -10.7519,15.28109 -12.38654,12.63619 z"
     id="path4059"
     inkscape:connector-curvature="0"
     transform="scale(0.75)" />
  <path
     style="fill:#ffffff;stroke-width:1.41421354"
     d="m 185.93074,233.9619 c -31.85537,-28.73227 -33.30301,-30.2105 -32.39298,-33.07775 0.45826,-1.44385 2.07078,-3.01798 3.58337,-3.49806 2.13614,-0.67798 7.56673,3.54279 24.32285,18.90423 11.86497,10.87741 23.32276,21.14797 25.46176,22.82349 2.139,1.67551 3.88908,3.85615 3.88908,4.84587 0,1.69661 -4.34323,6.48051 -5.88356,6.48051 -0.3911,0 -8.93234,-7.41523 -18.98052,-16.47829 z"
     id="path4061"
     inkscape:connector-curvature="0"
     transform="scale(0.75)" />
  <path
     style="fill:#ffffff;stroke-width:1.41421354"
     d="m 252.239,294.63436 c -5.9017,-3.2649 -40.2002,-34.49107 -39.66109,-36.1084 0.23053,-0.6916 5.81031,-7.49207 12.39951,-15.11217 l 11.98036,-13.85472 13.43502,0.63641 c 16.59907,0.78629 23.83995,3.26405 30.23959,10.34769 6.6054,7.31138 8.75003,15.37835 6.61945,24.8988 -2.58237,11.53926 -20.8111,31.66726 -28.67914,31.66726 -1.02304,0 -3.8732,-1.11369 -6.3337,-2.47487 z m 14.41726,-10.09755 c 17.67977,-8.15974 19.82773,-28.70831 4.41543,-42.24048 -4.64973,-4.08252 -6.15163,-4.58407 -13.72726,-4.58407 -15.10723,0 -24.0048,8.00368 -25.05618,22.53894 -1.42292,19.67164 16.66748,32.45494 34.36801,24.28561 z"
     id="path4063"
     inkscape:connector-curvature="0"
     transform="scale(0.75)" />
  <path
     style="fill:#ffffff;stroke-width:1.41421354"
     d="m 250.22518,273.77034 c -2.03673,-1.10684 -4.80063,-4.32521 -6.142,-7.15194 -6.54032,-13.7827 6.98464,-28.55569 20.84234,-22.76557 5.89756,2.46416 10.90994,9.57856 10.91784,15.49642 0.007,5.03705 -3.31481,11.49758 -7.37237,14.33961 -3.89672,2.72937 -13.29612,2.77134 -18.24581,0.0815 z"
     id="path4065"
     inkscape:connector-curvature="0"
     transform="scale(0.75)" />
  <path
     style="fill:#ffffff;stroke-width:1.41421354"
     d="m 214.37412,208.08459 c -0.50479,-0.81676 -0.54258,-2.09213 -0.084,-2.83414 3.19097,-5.16311 56.38166,-43.90572 60.27924,-43.90572 4.32249,0 -0.54392,5.02516 -12.71206,13.12677 -7.69524,5.12352 -18.99127,13.34594 -25.10229,18.27204 -18.69747,15.07205 -21.40159,16.92561 -22.3809,15.34105 z"
     id="path4067"
     inkscape:connector-curvature="0"
     transform="scale(0.75)" />
  <path
     style="fill:#000000;stroke-width:1.41421354"
     d="m 226.35117,220.66198 c 0,-2.20338 7.28477,-8.61234 24.74874,-21.77336 18.07971,-13.62505 31.72875,-22.55 32.81887,-21.45988 1.83751,1.83751 -1.513,5.21284 -12.53868,12.63156 -6.4872,4.36497 -18.63727,13.37215 -27.00015,20.01596 -14.81419,11.76899 -18.02878,13.65646 -18.02878,10.58572 z"
     id="path4069"
     inkscape:connector-curvature="0"
     transform="scale(0.75)" />
  <path
     style="fill:#000000;stroke-width:1.41421354"
     d=""
     id="path4071"
     inkscape:connector-curvature="0"
     transform="scale(0.75)" />
  <path
     style="fill:#000000;stroke-width:1.41421354"
     d="m 249.33197,291.54579 c -6.53486,-4.73383 -9.56449,-8.44684 -5.18157,-6.35036 1.48878,0.71212 6.8994,1.29757 12.0236,1.30099 7.93471,0.005 10.17441,-0.58851 15.09869,-4.00307 6.86986,-4.76363 10.23281,-11.15445 10.23281,-19.44602 0,-12.1495 -10.19559,-25.50842 -19.22537,-25.19031 -4.10892,0.14476 -4.10888,0.14483 0.60113,1.25894 10.04071,2.37503 18.33066,15.64537 16.81814,26.92204 -1.04992,7.82777 -6.68513,14.74313 -14.42154,17.69769 -18.65709,7.12521 -35.1231,-7.65674 -31.28986,-28.08968 1.13662,-6.05869 8.77028,-13.78483 15.98639,-16.18005 l 5.36816,-1.78184 -5.18907,0.61373 c -2.85399,0.33755 -6.86812,1.71389 -8.9203,3.05853 -10.73525,7.034 -12.53734,28.49044 -3.22758,38.42874 1.63941,1.75009 2.49209,3.18198 1.89484,3.18198 -1.38216,0 -26.27719,-22.70371 -26.27719,-23.96421 0,-0.51717 5.25027,-7.19312 11.66726,-14.83544 l 11.66727,-13.89513 13.47291,0.74067 c 19.50475,1.07228 28.11856,5.34768 34.04087,16.89598 5.99373,11.68756 2.03287,24.16923 -12.3446,38.90095 -10.19578,10.44701 -13.86006,11.2083 -22.79499,4.73587 z m 21.94125,-19.07663 c 4.87595,-4.46847 5.28253,-5.44096 5.28253,-12.63506 0,-6.70878 -0.58255,-8.40203 -4.18391,-12.16104 -6.20594,-6.47761 -13.24968,-8.18373 -19.98187,-4.83996 -7.47212,3.71127 -11.18955,9.29245 -11.18955,16.79947 0,10.66347 7.38817,17.61752 18.75909,17.65682 4.91126,0.017 7.01208,-0.87808 11.31371,-4.82023 z"
     id="path4075"
     inkscape:connector-curvature="0"
     transform="scale(0.75)" />
  <path
     style="fill:#ffffff;stroke-width:1.41421354"
     d="m 432.82635,509.20022 v -11.35476 l 18.73833,0.3946 18.73833,0.3946 0.41304,10.96016 0.41305,10.96015 h -19.15138 -19.15137 z m 32.52691,0.041 v -8.48529 h -13.43502 -13.43503 v 8.48529 8.48528 h 13.43503 13.43502 z"
     id="path4077"
     inkscape:connector-curvature="0"
     transform="scale(0.75)" />
  <path
     style="fill:#ffffff;stroke-width:1.41421354"
     d=""
     id="path4083"
     inkscape:connector-curvature="0"
     transform="scale(0.75)" />
  <path
     style="fill:#ffffff;stroke-width:1.41421354"
     d="m 226.35117,220.11709 c 0,-3.87841 55.27974,-44.97622 57.50431,-42.75166 1.94966,1.94967 -1.52397,5.38051 -14.60681,14.42692 -7.64836,5.28863 -19.77785,14.28396 -26.9544,19.98962 -13.29081,10.56677 -15.9431,11.95339 -15.9431,8.33512 z"
     id="path4085"
     inkscape:connector-curvature="0"
     transform="scale(0.75)" />
  <path
     style="fill:#ffffff;stroke-width:1.41421354"
     d=""
     id="path4089"
     inkscape:connector-curvature="0"
     transform="scale(0.75)" />
  <path
     style="fill:#ffffff;stroke-width:1.41421354"
     d="m 245.16634,281.61511 c -8.23423,-5.02073 -12.07419,-14.23982 -10.22718,-24.55377 1.14877,-6.41489 6.93307,-13.00232 14.74654,-16.79404 l 5.65685,-2.74516 -6.1682,0.68876 c -12.07695,1.34855 -18.0216,11.24419 -16.8225,28.00321 0.62779,8.77416 0.47333,9.55148 -1.59206,8.01188 -4.17477,-3.112 -15.72232,-14.471 -15.72232,-15.4656 0,-1.16286 20.49459,-26.09393 22.43774,-27.29486 0.73887,-0.45665 7.46793,-0.19519 14.95346,0.58102 15.58689,1.61628 22.86136,4.68212 28.42879,11.9814 5.02512,6.58828 6.25834,12.82162 4.16654,21.05995 -2.65107,10.44099 -4.43939,10.64611 -3.78917,0.4346 0.44859,-7.04491 -0.0511,-10.16885 -2.34608,-14.66741 -3.99671,-7.83418 -10.63289,-13.1674 -16.23008,-13.04343 -3.78966,0.0839 -4.04775,0.28845 -1.65926,1.31482 2.4714,1.06199 2.31719,1.22796 -1.22167,1.31481 -6.0139,0.1476 -14.64141,5.59166 -17.11189,10.7978 -2.74763,5.79021 -2.75643,10.97821 -0.0284,16.72717 2.91707,6.14727 8.83652,9.34398 17.30253,9.34398 6.0713,0 7.65744,-0.64872 12.07429,-4.93831 3.93413,-3.82078 5.20745,-6.30104 5.62672,-10.96015 0.53489,-5.94385 0.54511,-5.9284 0.78898,1.19364 0.29497,8.61432 -3.45948,15.1266 -11.04457,19.15732 -6.4694,3.43784 -16.44748,3.37154 -22.21909,-0.14763 z"
     id="path4091"
     inkscape:connector-curvature="0"
     transform="scale(0.75)" />
  <path
     style="fill:#000000;stroke-width:1.41421354"
     d="m 314.87782,246.42132 c -0.40466,-0.65476 -4.25793,-18.95114 -8.56283,-40.65865 -4.30489,-21.7075 -8.72229,-41.37738 -9.81644,-43.71083 -1.09415,-2.33345 -12.87014,-17.79497 -26.16887,-34.35893 -13.29874,-16.56396 -24.17952,-30.405579 -24.17952,-30.759148 0,-0.35357 0.83403,-0.642854 1.85339,-0.642854 1.01936,0 3.72405,2.512749 6.01041,5.583882 2.28636,3.07114 10.20278,12.4672 17.59205,20.88013 7.38926,8.41294 15.15149,17.49501 17.24939,20.18239 6.39889,8.19688 6.40914,8.54333 -0.91919,-31.09005 -5.40811,-29.248351 -5.63512,-31.112702 -3.78849,-31.112702 0.88023,0 1.60042,1.829177 1.60042,4.064837 0,2.23566 0.98596,6.849532 2.19101,10.253048 1.20505,3.403517 4.66375,18.403167 7.686,33.332557 3.02224,14.92939 6.26956,28.61191 7.21627,30.40559 0.94671,1.79369 5.59211,8.03422 10.32312,13.86785 29.62886,36.53426 43.29428,53.94868 43.29428,55.17177 0,4.58114 -5.5476,-1.05594 -29.54722,-30.02383 -17.05648,-20.58742 -19.53412,-23.20705 -20.77531,-21.96586 -0.7145,0.7145 8.46351,51.34782 10.70074,59.03398 1.80347,6.19594 1.85857,12.73726 0.10727,12.73726 -0.73191,0 -1.66183,-0.53571 -2.06649,-1.19044 z"
     id="path4093"
     inkscape:connector-curvature="0"
     transform="scale(0.75)" />
  <path
     style="fill:#000000;stroke-width:1.41421354"
     d="m 250.03922,272.95431 c -3.6345,-2.1169 -6.71748,-8.91263 -6.71748,-14.80714 0,-6.8957 7.5052,-14.77805 14.07094,-14.77805 14.61963,0 22.55099,15.86305 13.38051,26.76155 -3.23034,3.83903 -4.52031,4.34608 -10.96016,4.30814 -4.0144,-0.0236 -8.41261,-0.69168 -9.77381,-1.4845 z"
     id="path4095"
     inkscape:connector-curvature="0"
     transform="scale(0.75)" />
  <path
     style="fill:#ffffff;stroke-width:1.41421354"
     d="m 314.8592,246.39119 c -0.41489,-0.67131 -2.65332,-10.69455 -4.97429,-22.27386 -10.77607,-53.76177 -12.5861,-61.29648 -15.83228,-65.90588 -1.79914,-2.55469 -13.31321,-17.24743 -25.58682,-32.65054 -12.27361,-15.4031 -22.31565,-28.290124 -22.31565,-28.637822 0,-1.948364 4.23071,-0.162649 6.04098,2.5498 1.16799,1.750092 7.97803,9.864142 15.1334,18.031222 7.15538,8.16708 15.65978,18.16021 18.89867,22.20695 6.70599,8.37861 8.22782,9.13407 7.25686,3.60245 -0.37546,-2.139 -2.90513,-16.09567 -5.6215,-31.01482 -5.39646,-29.63906 -5.61143,-31.564132 -3.52464,-31.564132 0.77782,0 1.41421,1.829177 1.41421,4.064837 0,2.23566 0.98179,6.847519 2.18175,10.248576 1.19997,3.401056 4.69617,18.470779 7.76934,33.488279 3.07317,15.01749 6.31046,28.65525 7.19399,30.30613 0.88352,1.65088 13.29722,17.51649 27.586,35.2569 14.28878,17.74043 25.9796,32.9016 25.9796,33.69151 0,4.64538 -6.6787,-2.13869 -31.05942,-31.54941 -9.55858,-11.53063 -17.90277,-20.44018 -18.54263,-19.79899 -1.13253,1.13487 7.27997,49.40225 10.03765,57.59181 2.63088,7.81303 1.05813,17.36213 -2.03522,12.35699 z"
     id="path4097"
     inkscape:connector-curvature="0"
     transform="scale(0.75)" />
  <path
     style="fill:#ffffff;stroke-width:1.41421354"
     d="m 250.90066,291.56172 c -7.16761,-4.37057 -6.49659,-5.05909 4.93049,-5.05909 9.05562,0 11.57641,-0.53587 15.4213,-3.27828 6.87225,-4.9017 5.54149,-1.32971 -1.96687,5.27941 -7.39236,6.50702 -11.58493,7.20436 -18.38492,3.05796 z"
     id="path4099"
     inkscape:connector-curvature="0"
     transform="scale(0.75)" />
  <path
     style="fill:#ffffff;stroke-width:1.41421354"
     d="m 312.6182,143.09193 c 0,-3.12412 57.53639,-22.662 60.79881,-20.64572 2.85742,1.76599 1.29634,3.46805 -4.58382,4.99777 -3.30572,0.85999 -16.44179,5.02109 -29.19125,9.2469 -23.70153,7.85587 -27.02374,8.64279 -27.02374,6.40105 z"
     id="path4101"
     inkscape:connector-curvature="0"
     transform="scale(0.75)" />
  <path
     style="fill:#ffffff;stroke-width:1.41421354"
     d="m 319.23768,160.79353 c -0.90311,-2.35346 9.71352,-6.88504 34.92345,-14.90666 17.23117,-5.48284 27.01296,-7.06916 26.0656,-4.22708 -0.36024,1.08073 -2.83251,2.53941 -5.49393,3.2415 -4.79923,1.26606 -47.98524,15.37455 -52.38616,17.1141 -1.39043,0.54959 -2.61367,0.0688 -3.10896,-1.22186 z"
     id="path4103"
     inkscape:connector-curvature="0"
     transform="scale(0.75)" />
  <path
     style="fill:#ffffff;stroke-width:1.41421354"
     d="m 289.16134,458.07852 c -21.78728,-16.44044 -34.07678,-29.19406 -40.89479,-42.4392 -3.07759,-5.97875 -5.80905,-10.65702 -6.06992,-10.39615 -0.64842,0.64842 7.89532,17.50473 11.35801,22.40869 1.54197,2.18378 2.4773,4.29679 2.07851,4.69558 -1.93678,1.93677 -16.51046,-24.12766 -16.54024,-29.58153 -0.0182,-3.34291 6.15751,-12.3488 23.32071,-34.00778 7.77818,-9.81561 15.09673,-17.86051 16.26346,-17.87755 2.03136,-0.0297 38.29956,22.3943 42.17711,26.07734 1.53011,1.45336 -0.34252,3.50736 -10.25305,11.24606 -6.66879,5.20737 -12.12507,9.924 -12.12507,10.48141 0,0.5574 2.85787,5.89557 6.35083,11.8626 3.49296,5.96702 6.0475,11.68128 5.67677,12.69835 -0.37074,1.01707 2.42816,6.62192 6.21978,12.45523 l 6.89386,10.60601 -5.85311,3.88325 c -3.21921,2.13578 -6.3619,4.05573 -6.98376,4.26656 -0.62187,0.21083 -1.57675,3.50187 -2.12197,7.31342 -0.54522,3.81155 -1.68247,7.16049 -2.52722,7.44207 -0.84475,0.28158 -8.48121,-4.72888 -16.96991,-11.13436 z m 19.21422,-37.93271 c -0.83255,-1.55563 -1.83192,-2.82842 -2.22083,-2.82842 -0.38891,0 -0.0259,1.27279 0.80662,2.82842 0.83255,1.55564 1.83193,2.82843 2.22084,2.82843 0.3889,0 0.0259,-1.27279 -0.80663,-2.82843 z m -4.24264,-7.07107 c -0.83255,-1.55563 -1.83192,-2.82842 -2.22083,-2.82842 -0.38891,0 -0.0259,1.27279 0.80662,2.82842 0.83255,1.55564 1.83193,2.82843 2.22084,2.82843 0.3889,0 0.0259,-1.27279 -0.80663,-2.82843 z m -5.81789,-9.88367 c -1.74374,-3.10257 -3.40131,-5.41016 -3.68349,-5.12798 -0.60765,0.60766 5.23875,10.76901 6.19603,10.76901 0.36184,0 -0.7688,-2.53846 -2.51254,-5.64103 z M 252.15959,387.6189 c 11.52943,-15.53222 26.33964,-32.52691 28.34593,-32.52691 1.79131,0 10.34811,5.42847 26.36998,16.72924 l 9.10654,6.42314 -9.81365,9.0733 -9.81364,9.07329 9.35609,-7.19435 c 14.93103,-11.48119 15.4336,-9.61799 -6.5126,-24.14406 -10.62699,-7.03395 -19.75075,-12.75981 -20.27503,-12.72415 -1.24639,0.0848 -30.62975,37.359 -34.50856,43.77578 -4.16476,6.88985 -1.50411,3.97487 7.74494,-8.48528 z"
     id="path138"
     inkscape:connector-curvature="0"
     transform="scale(0.75)" />
  <path
     style="fill:#ffffff;stroke-width:1.41421354"
     d="m 248.36506,270.34257 c -3.69199,-4.0796 -4.98275,-11.69511 -2.84425,-16.78112 5.18549,-12.33264 21.7316,-11.91583 26.99448,0.68001 2.29547,5.49383 1.10239,11.43081 -3.26745,16.25944 -3.37758,3.73218 -17.45853,3.62542 -20.88278,-0.15833 z"
     id="path140"
     inkscape:connector-curvature="0"
     transform="scale(0.75)" />
  <path
     style="fill:#ffffff;stroke-width:1.41421354"
     d="m 319.14859,437.02728 c -3.01974,-4.67133 -5.1845,-8.79926 -4.81058,-9.17318 0.94478,-0.94478 11.27626,14.83122 10.73785,16.3965 -0.24026,0.69851 -2.90754,-2.55199 -5.92727,-7.22332 z"
     id="path142"
     inkscape:connector-curvature="0"
     transform="scale(0.75)" />
  <path
     style="fill:#ffffff;stroke-width:1.41421354"
     d="m 284.33393,458.77901 c -13.83657,-10.41443 -28.28427,-22.97792 -28.28427,-24.59556 0,-0.70375 7.18254,4.60034 15.9612,11.78685 8.77865,7.18651 18.1655,14.78659 20.85965,16.88907 9.50486,7.41745 1.92715,3.79542 -8.53658,-4.08036 z"
     id="path144"
     inkscape:connector-curvature="0"
     transform="scale(0.75)" />
  <path
     style="fill:#ffffff;stroke-width:1.41421354"
     d="m 422.26642,410.69895 c -7.79049,-0.35122 -13.09996,-1.23052 -13.76692,-2.27994 -0.59712,-0.93952 -1.09542,-8.54948 -1.10733,-16.91102 l -0.0217,-15.2028 h 46.15494 46.15494 l -0.99572,15.2028 c -0.63369,9.67524 -1.69181,15.91529 -2.91023,17.16241 -1.48911,1.52419 -8.45959,2.03079 -31.37063,2.27993 -16.20087,0.17618 -35.1627,0.063 -42.13739,-0.25138 z"
     id="path146"
     inkscape:connector-curvature="0"
     transform="scale(0.75)" />
  <path
     style="fill:#ffffff;stroke-width:1.41421354"
     d="m 403.12787,349.43513 v -9.89949 h 49.49748 49.49747 v 9.89949 9.8995 h -49.49747 -49.49748 z"
     id="path148"
     inkscape:connector-curvature="0"
     transform="scale(0.75)" />
  <path
     style="fill:#ffffff;stroke-width:1.41421354"
     d="m 595.81662,463.77704 0.79677,-7.71998 -6.47924,-4.16704 c -3.56358,-2.29187 -7.09171,-4.57647 -7.84028,-5.07688 -0.74857,-0.5004 4.05028,-9.40995 10.66411,-19.79899 12.30756,-19.33278 16.64507,-26.95116 16.64507,-29.23528 0,-0.71181 -4.8341,-5.29283 -10.74244,-10.18005 l -10.74245,-8.88584 7.56047,-4.72565 c 13.70383,-8.56554 27.51363,-15.16749 29.8509,-14.27059 1.25106,0.48007 9.94361,9.65914 19.31677,20.39792 12.9349,14.81945 16.85461,20.20672 16.2641,22.35348 -0.4279,1.55564 -3.03848,7.52191 -5.80127,13.25839 -6.25904,12.99586 -17.69519,24.8155 -40.04922,41.39222 -22.09079,16.38151 -20.38658,15.7979 -19.44329,6.65829 z"
     id="path150"
     inkscape:connector-curvature="0"
     transform="scale(0.75)" />
</svg>
